<svg width="96" height="99" viewBox="0 0 96 99" fill="none" xmlns="http://www.w3.org/2000/svg">
<path d="M71.14 55.3593C76.94 52.9193 81.88 49.5193 85.95 45.1493C90.02 40.7793 92.83 35.6993 94.38 29.8993C95.93 24.0993 95.86 19.0493 94.17 14.7193C92.48 10.3993 89.45 6.98929 85.11 4.50929C80.76 2.02929 75.28 0.779297 68.65 0.779297H26.97L0.75 98.6193H25.45L36.06 59.0093H37.51L53.74 98.6193H82.31L63.27 57.8293C65.99 57.2293 68.62 56.4193 71.13 55.3593H71.14ZM60.28 19.1293C64.33 19.1293 67.15 20.1693 68.76 22.2393C70.37 24.3093 70.73 26.9993 69.84 30.3093C68.95 33.6193 67.12 36.4093 64.43 38.3793C61.74 40.3593 58.37 41.3493 54.32 41.3493H40.8L46.75 19.1293H60.27H60.28Z" fill="#D42D26"/>
</svg>
