<svg width="109" height="102" viewBox="0 0 109 102" fill="none" xmlns="http://www.w3.org/2000/svg">
<path d="M101.73 14.48C98.27 9.88 93.71 6.32 88.04 3.79C82.37 1.26 75.76 0 68.22 0C60.68 0 53.39 1.27 46.37 3.79C39.34 6.32 32.87 9.89 26.94 14.48C21.02 19.08 15.92 24.44 11.66 30.56C7.40003 36.68 4.31003 43.33 2.38003 50.5C0.45003 57.67 2.52724e-05 64.37 1.00003 70.58C2.00003 76.79 4.26004 82.2 7.76004 86.79C11.26 91.39 15.85 94.98 21.5 97.55C27.16 100.13 33.76 101.41 41.3 101.41C48.84 101.41 55.97 100.14 62.95 97.62C69.93 95.09 76.39 91.5 82.33 86.86C88.27 82.22 93.37 76.81 97.65 70.64C101.92 64.48 105.02 57.81 106.94 50.63C108.86 43.45 109.34 36.79 108.37 30.62C107.4 24.46 105.18 19.08 101.72 14.47L101.73 14.48ZM74.35 65.68C70.98 70.01 66.96 73.36 62.27 75.75C57.58 78.14 52.48 79.34 46.96 79.34C42.82 79.34 39.27 78.67 36.32 77.34C33.37 76.01 31.03 74.08 29.32 71.54C27.6 69.01 26.6 65.97 26.31 62.43C26.02 58.89 26.46 54.91 27.65 50.49C29.18 44.79 31.63 39.77 34.99 35.45C38.36 31.13 42.38 27.79 47.05 25.45C51.73 23.1 56.83 21.93 62.35 21.93C66.49 21.93 70.03 22.62 72.97 24C75.91 25.38 78.24 27.34 79.95 29.87C81.66 32.4 82.67 35.41 82.98 38.91C83.29 42.41 82.87 46.27 81.74 50.5C80.19 56.3 77.73 61.36 74.36 65.68H74.35Z" fill="#D42D26"/>
</svg>
