<svg width="205" height="107" viewBox="0 0 205 107" fill="none" xmlns="http://www.w3.org/2000/svg">
<path fill-rule="evenodd" clip-rule="evenodd" d="M148.194 104H172.206V67.2922C172.206 66.853 172.219 66.4269 172.244 66.0139C172.348 64.2898 172.668 62.7942 173.206 61.5269C173.619 60.5541 174.16 59.7159 174.828 59.0122C176.576 57.0802 179.014 56.1142 182.142 56.1142C183.798 56.1142 185.27 56.3902 186.558 56.9422C187.531 57.2664 188.343 57.6819 188.996 58.1889C189.27 58.4013 189.515 58.6297 189.732 58.8742L203.67 40.2442C202.014 38.4962 199.99 37.2082 197.598 36.3802C195.298 35.5522 192.538 35.1382 189.318 35.1382C182.828 35.1382 177.457 36.76 173.206 40.0037C172.866 40.2635 172.532 40.5338 172.206 40.8145V36.5182H148.194V104ZM173.206 38.7614V35.5182H147.194V105H173.206V67.2922C173.206 63.7539 174.048 61.286 175.553 59.701L175.562 59.6921L175.57 59.6831C177.09 58.0024 179.235 57.1142 182.142 57.1142C183.687 57.1142 185.021 57.3715 186.164 57.8613L186.203 57.8777L186.242 57.8909C187.506 58.3124 188.396 58.8762 188.985 59.5386L189.799 60.4544L204.976 40.1683L204.396 39.5565C202.626 37.6874 200.464 36.3151 197.931 35.4373C195.496 34.5614 192.617 34.1382 189.318 34.1382C182.951 34.1382 177.56 35.6618 173.206 38.7614Z" fill="#666666"/>
<path fill-rule="evenodd" clip-rule="evenodd" d="M81.6739 100.964C87.3779 104 93.8639 105.518 101.132 105.518C108.308 105.518 114.702 104 120.314 100.964C126.018 97.8362 130.48 93.6042 133.7 88.2682C137.012 82.8402 138.668 76.7682 138.668 70.0522C138.668 63.3362 137.012 57.3562 133.7 52.1122C130.388 46.7762 125.88 42.5902 120.176 39.5542C114.564 36.4262 108.17 34.8622 100.994 34.8622C93.8179 34.8622 87.3779 36.4262 81.6739 39.5542C75.9699 42.5902 71.4619 46.7762 68.1499 52.1122C64.9299 57.3562 63.3199 63.3362 63.3199 70.0522C63.3199 76.7682 64.9759 82.8402 68.2879 88.2682C71.5999 93.6042 76.0619 97.8362 81.6739 100.964ZM81.1986 38.6744C87.0634 35.4595 93.6698 33.8622 100.994 33.8622C108.316 33.8622 114.879 35.4588 120.654 38.676C126.504 41.7914 131.141 46.0954 134.547 51.5814C137.967 56.9977 139.668 63.1648 139.668 70.0522C139.668 76.9405 137.967 83.194 134.555 88.7874C131.24 94.28 126.646 98.6325 120.795 101.841L120.79 101.844C115.014 104.968 108.453 106.518 101.132 106.518C93.7208 106.518 87.07 104.969 81.2041 101.847L81.1955 101.842L81.1871 101.838C75.4303 98.629 70.842 94.2793 67.4383 88.7956L67.4343 88.7891C64.0211 83.1952 62.3199 76.9412 62.3199 70.0522C62.3199 63.169 63.9724 57.0046 67.2978 51.5889L67.3003 51.5848C70.707 46.0962 75.3462 41.7905 81.1986 38.6744ZM107.894 82.4722C105.962 83.5762 103.662 84.1282 100.994 84.1282C98.4179 84.1282 96.118 83.5762 94.0939 82.4722C92.0699 81.2762 90.5059 79.6202 89.4019 77.5042C88.2979 75.3882 87.7459 72.9962 87.7459 70.3282C87.7459 67.5682 88.2979 65.1762 89.4019 63.1522C90.5059 61.0362 92.0699 59.3802 94.0939 58.1842C96.118 56.9882 98.4179 56.3902 100.994 56.3902C103.662 56.3902 105.962 56.9882 107.894 58.1842C109.826 59.2882 111.344 60.8982 112.448 63.0142C113.644 65.0382 114.242 67.4302 114.242 70.1902C114.242 72.9502 113.69 75.3882 112.586 77.5042C111.482 79.6202 109.918 81.2762 107.894 82.4722ZM107.391 81.6077C105.639 82.6072 103.519 83.1282 100.994 83.1282C98.5718 83.1282 96.4447 82.6119 94.5878 81.6024C92.7342 80.5036 91.3049 78.9896 90.2885 77.0416C89.2675 75.0846 88.7459 72.8544 88.7459 70.3282C88.7459 67.7026 89.2704 65.4818 90.2798 63.6311L90.2843 63.623L90.2885 63.6148C91.3076 61.6616 92.7419 60.1447 94.6027 59.0451C96.4581 57.9488 98.5793 57.3902 100.994 57.3902C103.509 57.3902 105.619 57.9523 107.368 59.0345L107.383 59.0437L107.398 59.0524C109.151 60.0545 110.539 61.5177 111.561 63.4768L111.574 63.5002L111.587 63.5229C112.677 65.3679 113.242 67.5777 113.242 70.1902C113.242 72.8144 112.718 75.0893 111.699 77.0416C110.681 78.9927 109.249 80.5084 107.391 81.6077Z" fill="#666666"/>
<path fill-rule="evenodd" clip-rule="evenodd" d="M15.318 105V57.5282H0.966003V35.5182H15.318V32.2402C15.318 26.3876 16.5935 21.1136 19.1662 16.4431C21.7377 11.6828 25.4071 7.87373 30.1555 5.0247L30.163 5.02022C35.0368 2.15327 40.8315 0.742187 47.506 0.742188C52.4904 0.742188 56.91 1.58801 60.7408 3.30997C64.5276 4.9207 67.8074 7.10542 70.5691 9.86708L71.2762 10.5742L54.7772 27.0732L54.0726 26.2806C53.4589 25.5902 52.6904 25.0864 51.7438 24.7709L51.694 24.7543L51.6462 24.7326C50.7916 24.3441 49.7428 24.1322 48.472 24.1322C46.1983 24.1322 44.494 24.7984 43.2451 26.0473C41.9962 27.2962 41.33 29.0005 41.33 31.2742V35.5182H60.374V57.5282H41.33V105H15.318ZM40.33 56.5282H59.374V36.5182H40.33V31.2742C40.33 28.7902 41.066 26.8122 42.538 25.3402C44.01 23.8682 45.988 23.1322 48.472 23.1322C49.852 23.1322 51.048 23.3622 52.06 23.8222C52.9187 24.1084 53.666 24.5338 54.3021 25.0983C54.4838 25.2595 54.6565 25.4322 54.82 25.6162L69.862 10.5742C69.6261 10.3383 69.3863 10.1067 69.1425 9.87949C66.6288 7.53635 63.6947 5.65191 60.34 4.22619C56.66 2.57019 52.382 1.74219 47.506 1.74219C40.974 1.74219 35.362 3.12219 30.67 5.88219C26.07 8.64219 22.528 12.3222 20.044 16.9222C17.56 21.4302 16.318 26.5362 16.318 32.2402V36.5182H1.966V56.5282H16.318V104H40.33V56.5282Z" fill="#666666"/>
</svg>
