<svg width="226" height="37" viewBox="0 0 226 37" fill="none" xmlns="http://www.w3.org/2000/svg">
<line x1="4.5" y1="5" x2="4.5" y2="33" stroke="#999999" stroke-width="9"/>
<path d="M36.1999 30.3065C34.6263 30.3065 33.1652 30.0307 31.8165 29.4789C30.4678 28.9067 29.2825 28.12 28.2608 27.1186C27.2594 26.0969 26.4829 24.9116 25.9311 23.5629C25.3998 22.2142 25.1342 20.7633 25.1342 19.2102C25.1342 17.6571 25.3998 16.2062 25.9311 14.8575C26.4829 13.5087 27.2594 12.3337 28.2608 11.3324C29.2825 10.331 30.4575 9.54428 31.7858 8.97209C33.1346 8.39991 34.6059 8.11381 36.1999 8.11381C37.9164 8.11381 39.4286 8.39991 40.7365 8.97209C42.0444 9.52385 43.1989 10.2902 44.2003 11.2711L41.3802 14.0911C40.7876 13.4372 40.0621 12.9263 39.2038 12.5585C38.3456 12.1907 37.3442 12.0067 36.1999 12.0067C35.1985 12.0067 34.2789 12.1804 33.4411 12.5278C32.6237 12.8548 31.9085 13.3452 31.2954 13.9992C30.6823 14.6327 30.2123 15.399 29.8854 16.2981C29.5584 17.1769 29.3949 18.1475 29.3949 19.2102C29.3949 20.2932 29.5584 21.2741 29.8854 22.1529C30.2123 23.0316 30.6823 23.7979 31.2954 24.4518C31.9085 25.0853 32.6237 25.5758 33.4411 25.9232C34.2789 26.2706 35.1985 26.4443 36.1999 26.4443C37.4055 26.4443 38.4375 26.2603 39.2958 25.8925C40.1745 25.5247 40.9102 25.0036 41.5028 24.3292L44.3229 27.1493C43.3216 28.1506 42.1567 28.9271 40.8285 29.4789C39.5002 30.0307 37.9573 30.3065 36.1999 30.3065ZM56.4377 30.3372C54.8642 30.3372 53.3929 30.0511 52.0237 29.4789C50.675 28.9067 49.4897 28.12 48.468 27.1186C47.4666 26.0969 46.6799 24.9116 46.1077 23.5629C45.5355 22.1937 45.2494 20.7326 45.2494 19.1795C45.2494 17.6264 45.5253 16.1857 46.077 14.8575C46.6492 13.5087 47.436 12.3337 48.4373 11.3324C49.4591 10.3106 50.6443 9.52385 51.9931 8.97209C53.3418 8.39991 54.8029 8.11381 56.3764 8.11381C57.9704 8.11381 59.4417 8.39991 60.7905 8.97209C62.1392 9.52385 63.3142 10.3106 64.3155 11.3324C65.3373 12.3337 66.1343 13.5087 66.7065 14.8575C67.2787 16.2062 67.5647 17.6571 67.5647 19.2102C67.5647 20.7633 67.2787 22.2142 66.7065 23.5629C66.1343 24.9116 65.3373 26.0969 64.3155 27.1186C63.3142 28.12 62.1392 28.9067 60.7905 29.4789C59.4622 30.0511 58.0113 30.3372 56.4377 30.3372ZM56.3764 26.4443C57.766 26.4443 58.9717 26.1377 59.9935 25.5247C61.0152 24.9116 61.8122 24.0636 62.3844 22.9805C62.977 21.8974 63.2733 20.6304 63.2733 19.1795C63.2733 18.1169 63.1099 17.1462 62.7829 16.2675C62.4559 15.3888 61.9859 14.6327 61.3729 13.9992C60.7598 13.3452 60.0343 12.8446 59.1965 12.4972C58.3587 12.1498 57.4186 11.9761 56.3764 11.9761C55.0277 11.9761 53.8322 12.2826 52.79 12.8957C51.7683 13.4883 50.9611 14.3261 50.3685 15.4092C49.7963 16.4923 49.5102 17.749 49.5102 19.1795C49.5102 20.2626 49.6737 21.2537 50.0006 22.1529C50.348 23.052 50.818 23.8183 51.4107 24.4518C52.0237 25.0853 52.7492 25.5758 53.587 25.9232C54.4453 26.2706 55.3751 26.4443 56.3764 26.4443ZM70.8693 30V8.451H73.7813L75.0381 12.6198V30H70.8693ZM85.7666 30L72.9843 13.4474L73.7813 8.451L86.5636 25.0036L85.7666 30ZM85.7666 30L84.5711 25.9538V8.451H88.7706V30H85.7666ZM98.4741 30V8.91079H102.674V30H98.4741ZM91.6079 12.16V8.451H109.54V12.16H91.6079ZM115.484 20.988V17.7388H120.48C121.502 17.7388 122.289 17.4834 122.84 16.9725C123.413 16.4412 123.699 15.7157 123.699 14.7962C123.699 13.9583 123.413 13.2635 122.84 12.7118C122.289 12.1396 121.502 11.8535 120.48 11.8535H115.484V8.451H120.848C122.238 8.451 123.453 8.72687 124.496 9.27862C125.558 9.80994 126.376 10.5456 126.948 11.4856C127.54 12.4257 127.837 13.5087 127.837 14.7348C127.837 16.0018 127.54 17.1053 126.948 18.0454C126.376 18.9649 125.558 19.6904 124.496 20.2217C123.433 20.7326 122.197 20.988 120.787 20.988H115.484ZM112.418 30V8.451H116.587V30H112.418ZM124.189 30L117.078 20.6815L120.909 19.486L129.247 30H124.189ZM141.512 30.3372C139.938 30.3372 138.467 30.0511 137.098 29.4789C135.749 28.9067 134.564 28.12 133.542 27.1186C132.54 26.0969 131.754 24.9116 131.182 23.5629C130.609 22.1937 130.323 20.7326 130.323 19.1795C130.323 17.6264 130.599 16.1857 131.151 14.8575C131.723 13.5087 132.51 12.3337 133.511 11.3324C134.533 10.3106 135.718 9.52385 137.067 8.97209C138.416 8.39991 139.877 8.11381 141.45 8.11381C143.044 8.11381 144.516 8.39991 145.864 8.97209C147.213 9.52385 148.388 10.3106 149.389 11.3324C150.411 12.3337 151.208 13.5087 151.78 14.8575C152.352 16.2062 152.639 17.6571 152.639 19.2102C152.639 20.7633 152.352 22.2142 151.78 23.5629C151.208 24.9116 150.411 26.0969 149.389 27.1186C148.388 28.12 147.213 28.9067 145.864 29.4789C144.536 30.0511 143.085 30.3372 141.512 30.3372ZM141.45 26.4443C142.84 26.4443 144.046 26.1377 145.067 25.5247C146.089 24.9116 146.886 24.0636 147.458 22.9805C148.051 21.8974 148.347 20.6304 148.347 19.1795C148.347 18.1169 148.184 17.1462 147.857 16.2675C147.53 15.3888 147.06 14.6327 146.447 13.9992C145.834 13.3452 145.108 12.8446 144.27 12.4972C143.432 12.1498 142.492 11.9761 141.45 11.9761C140.102 11.9761 138.906 12.2826 137.864 12.8957C136.842 13.4883 136.035 14.3261 135.442 15.4092C134.87 16.4923 134.584 17.749 134.584 19.1795C134.584 20.2626 134.747 21.2537 135.074 22.1529C135.422 23.052 135.892 23.8183 136.484 24.4518C137.098 25.0853 137.823 25.5758 138.661 25.9232C139.519 26.2706 140.449 26.4443 141.45 26.4443ZM155.943 30V8.451H160.112V30H155.943ZM159.008 30V26.291H169.982V30H159.008ZM172.976 30V8.451H177.145V30H172.976ZM176.041 30V26.291H187.015V30H176.041ZM190.009 30V8.451H194.177V30H190.009ZM193.074 30V26.3216H204.998V30H193.074ZM193.074 20.7735V17.2177H203.925V20.7735H193.074ZM193.074 12.1293V8.451H204.845V12.1293H193.074ZM211.513 20.988V17.7388H216.51C217.532 17.7388 218.318 17.4834 218.87 16.9725C219.442 16.4412 219.728 15.7157 219.728 14.7962C219.728 13.9583 219.442 13.2635 218.87 12.7118C218.318 12.1396 217.532 11.8535 216.51 11.8535H211.513V8.451H216.878C218.267 8.451 219.483 8.72687 220.525 9.27862C221.588 9.80994 222.406 10.5456 222.978 11.4856C223.57 12.4257 223.867 13.5087 223.867 14.7348C223.867 16.0018 223.57 17.1053 222.978 18.0454C222.406 18.9649 221.588 19.6904 220.525 20.2217C219.463 20.7326 218.226 20.988 216.816 20.988H211.513ZM208.448 30V8.451H212.617V30H208.448ZM220.219 30L213.107 20.6815L216.939 19.486L225.277 30H220.219Z" fill="#999999"/>
</svg>
