<svg width="98" height="106" viewBox="0 0 98 106" fill="none" xmlns="http://www.w3.org/2000/svg">
<path fill-rule="evenodd" clip-rule="evenodd" d="M53.4279 103.276C57.4759 104.38 61.5699 104.932 65.7099 104.932C74.3579 104.932 81.2579 103 86.4099 99.1364C91.5619 95.1804 94.1379 89.8444 94.1379 83.1284C94.1379 78.8964 93.3559 75.4464 91.7919 72.7784C90.3199 70.1104 88.3419 67.9944 85.8579 66.4304C83.4659 64.7744 80.9359 63.4864 78.2679 62.5664C75.6919 61.6464 73.1619 60.9104 70.6779 60.3584C68.2859 59.7144 66.3079 59.0244 64.7439 58.2884C63.2719 57.5524 62.5359 56.5864 62.5359 55.3904C62.5359 54.3784 62.9959 53.5964 63.9159 53.0444C64.8359 52.4004 66.3539 52.0784 68.4699 52.0784C70.6779 52.0784 73.1159 52.5844 75.7839 53.5964C78.1806 54.4228 80.3916 55.8802 82.4171 57.9687C82.6464 58.2052 82.8734 58.4497 83.0979 58.7024L96.3459 45.3164C93.1259 41.3604 88.8939 38.4164 83.6499 36.4844C78.4059 34.4604 72.8859 33.4484 67.0899 33.4484C61.3859 33.4484 56.4179 34.4144 52.1859 36.3464C47.9539 38.1864 44.6419 40.7624 42.2499 44.0744C39.9499 47.2944 38.7999 51.0664 38.7999 55.3904C38.7999 59.5304 39.5359 62.9344 41.0079 65.6024C42.5719 68.2704 44.5959 70.3404 47.0799 71.8124C49.5639 73.2844 52.1399 74.4804 54.8079 75.4004C57.4759 76.2284 60.0059 76.9644 62.3979 77.6084C64.8819 78.1604 66.8599 78.8504 68.3319 79.6784C69.8959 80.4144 70.6779 81.5184 70.6779 82.9904C70.6779 84.0024 70.1259 84.7844 69.0219 85.3364C68.0099 85.8884 66.4919 86.1644 64.4679 86.1644C60.9719 86.1644 57.6599 85.5204 54.5319 84.2324C51.8141 83.0794 49.428 81.5208 47.3738 79.5568C47.1333 79.3269 46.8973 79.0914 46.6659 78.8504L33.5559 92.2364C35.9479 94.7204 38.8459 96.9284 42.2499 98.8604C45.7459 100.7 49.4719 102.172 53.4279 103.276ZM54.9175 83.3097C57.9193 84.545 61.0999 85.1644 64.4679 85.1644C66.4338 85.1644 67.7507 84.8907 68.5431 84.4585L68.5587 84.4499L68.5747 84.442C69.0207 84.219 69.2897 83.982 69.447 83.7592C69.5968 83.5469 69.6779 83.3024 69.6779 82.9904C69.6779 82.4423 69.5361 82.0044 69.2754 81.6364C69.0081 81.259 68.5745 80.8977 67.9061 80.5832L67.8733 80.5677L67.8417 80.55C66.4867 79.7878 64.6125 79.1249 62.181 78.5846L62.1594 78.5798L62.138 78.574C59.7323 77.9263 57.1901 77.1867 54.5115 76.3554L54.4967 76.3508L54.4819 76.3458C51.7485 75.4032 49.111 74.1784 46.5701 72.6727C43.93 71.1082 41.7886 68.9116 40.1452 66.1081L40.1386 66.0969L40.1324 66.0855C38.5547 63.2259 37.7999 59.6413 37.7999 55.3904C37.7999 50.8783 39.0038 46.8986 41.4362 43.4931L41.4392 43.4889C43.9478 40.0155 47.408 37.3348 51.7788 35.4329C56.1654 33.4321 61.2779 32.4484 67.0899 32.4484C73.0025 32.4484 78.6426 33.4808 84.0029 35.5487C89.3952 37.5366 93.7792 40.5788 97.1215 44.6851L97.6884 45.3816L83.0588 60.1635L82.3505 59.3667C80.2362 56.9881 77.937 55.3966 75.4579 54.5418L75.4435 54.5368L75.4293 54.5314C72.8431 53.5504 70.5271 53.0784 68.4699 53.0784C66.4041 53.0784 65.148 53.4026 64.4894 53.8636L64.4606 53.8838L64.4304 53.9019C63.7896 54.2864 63.5359 54.7546 63.5359 55.3904C63.5359 56.0653 63.9087 56.75 65.1808 57.3888C66.668 58.0875 68.5751 58.7557 70.9168 59.3871C73.4354 59.9478 75.9963 60.6934 78.5991 61.6228C81.3475 62.571 83.9513 63.8965 86.4093 65.5958C89.0297 67.2501 91.115 69.4856 92.6612 72.2839C94.3378 75.1499 95.1379 78.7871 95.1379 83.1284C95.1379 90.1428 92.4271 95.7769 87.019 99.9295L87.01 99.9364C81.6341 103.968 74.5008 105.932 65.7099 105.932C61.4798 105.932 57.2974 105.368 53.1648 104.241L53.1591 104.24C49.1376 103.117 45.3453 101.62 41.7842 99.7453L41.7701 99.7379L41.7563 99.7301C38.2798 97.7569 35.3026 95.4919 32.8356 92.93L32.162 92.2305L46.6731 77.4139L47.3873 78.1578C49.4972 80.3556 52.0038 82.0728 54.9175 83.3097Z" fill="#666666"/>
<path fill-rule="evenodd" clip-rule="evenodd" d="M0.900022 104V34.5184H27.05V104H0.900022ZM4.22225 24.7648L4.2157 24.758C1.63142 22.0743 0.348022 18.7379 0.348022 14.8184C0.348022 10.9833 1.63637 7.69527 4.2157 5.01673C6.8046 2.32826 10.0586 0.984375 13.906 0.984375C17.9178 0.984375 21.23 2.31569 23.7411 5.02376C26.3159 7.70102 27.602 10.9867 27.602 14.8184C27.602 18.7379 26.3186 22.0743 23.7343 24.758C21.2194 27.3733 17.909 28.6524 13.906 28.6524C10.0707 28.6524 6.82071 27.3633 4.22892 24.7715L4.22225 24.7648ZM23.014 24.0644C25.406 21.5804 26.602 18.4984 26.602 14.8184C26.602 11.2304 25.406 8.19438 23.014 5.71037C20.714 3.22638 17.678 1.98438 13.906 1.98438C10.318 1.98437 7.32802 3.22638 4.93602 5.71037C2.54402 8.19438 1.34802 11.2304 1.34802 14.8184C1.34802 18.4984 2.54402 21.5804 4.93602 24.0644C7.32802 26.4564 10.318 27.6524 13.906 27.6524C17.678 27.6524 20.714 26.4564 23.014 24.0644ZM1.90002 103H26.05V35.5184H1.90002V103Z" fill="#666666"/>
</svg>
