<svg width="1162" height="155" viewBox="0 0 1162 155" fill="none" xmlns="http://www.w3.org/2000/svg">
<path d="M123.201 5.80078L91.7 5.82251L38.5614 57.9401L49.3151 5.84423L23.832 5.86596L0 121.311L25.5048 121.289L37.2144 64.501L69.3453 121.268L100.998 121.224L65.4783 60.7643L123.201 5.80078Z" fill="#EF919D"/>
<path d="M149.031 3.32227C145.143 3.32227 141.645 4.64747 138.56 7.25444C135.475 9.86141 133.52 13.1418 132.716 17.074C131.912 21.0062 132.542 24.1345 134.519 26.8067C136.518 29.4788 139.451 30.804 143.361 30.804C147.272 30.804 150.726 29.4571 153.767 26.785C156.809 24.1128 158.721 20.8758 159.503 17.0523C160.285 13.2287 159.742 9.86141 157.786 7.25444C155.831 4.64747 152.92 3.34399 149.01 3.34399L149.031 3.32227Z" fill="#EF919D"/>
<path d="M112.208 121.227L137.061 121.205L153.441 41.7363L128.61 41.7581L112.208 121.227Z" fill="#EF919D"/>
<path d="M216.465 40.0371C207.797 40.0371 200.519 42.6223 194.588 47.7494L195.826 41.6882H170.973L154.571 121.179H179.424L188.44 77.4905C189.504 72.3635 191.503 68.5182 194.479 65.9547C197.434 63.3912 200.975 62.1094 205.103 62.1094C207.167 62.1094 208.926 62.4353 210.425 63.087C211.924 63.7388 213.076 64.6729 213.901 65.8678L232.563 47.0542C230.89 44.6645 228.739 42.883 226.111 41.7534C223.482 40.6019 220.267 40.0371 216.486 40.0371H216.465Z" fill="#EF919D"/>
<path d="M303.125 45.3602C298.084 41.7756 291.806 39.9724 284.354 39.9724C279.054 39.9724 273.97 41.0152 269.104 43.1008C266.692 44.1219 264.433 45.3602 262.347 46.7723L271.515 2.38867H246.662L222.156 121.114H246.684L247.9 115.183C249.464 116.791 251.268 118.181 253.375 119.376C257.351 121.614 262 122.722 267.3 122.722C274.774 122.722 281.769 120.919 288.308 117.312C294.847 113.706 300.409 108.796 304.993 102.583C309.577 96.3698 312.683 89.2875 314.334 81.3146C315.986 73.3416 315.79 66.2811 313.77 60.0678C311.749 53.8545 308.208 48.9447 303.168 45.3602H303.125ZM284.854 90.9821C282.747 93.828 280.205 96.0439 277.229 97.695C274.231 99.3244 271.015 100.15 267.539 100.15C264.063 100.15 261.174 99.3678 258.85 97.7819C256.525 96.196 254.896 94.0018 253.961 91.1559C253.027 88.3317 252.94 85.0512 253.701 81.3363C254.461 77.6214 255.873 74.3627 257.915 71.5167C259.958 68.6925 262.499 66.4766 265.541 64.8907C268.56 63.3048 271.819 62.5227 275.295 62.5227C278.771 62.5227 281.661 63.3048 283.985 64.8907C286.31 66.4766 287.939 68.6708 288.873 71.5167C289.807 74.3409 289.894 77.6214 289.112 81.3363C288.33 85.0512 286.94 88.1579 284.854 90.9821Z" fill="#EF919D"/>
<path d="M357.48 89.8077L351.723 41.5571L324.937 41.5788L339.774 115.573L313.792 154.569L339.275 154.547L360.109 121.33L410.336 41.5137L383.55 41.5354L357.48 89.8077Z" fill="#EF919D"/>
<path d="M505.882 68.9984L478.487 5.49706H460.303L436.493 120.942L461.824 120.92L475.033 56.876L491.782 96.0457H508.684L541.575 57.0498L528.388 120.877L553.893 120.855L577.704 5.41016L559.368 5.43188L505.882 68.9984Z" fill="#EF919D"/>
<path d="M649.265 44.9033C643.508 41.3187 636.513 39.5156 628.301 39.5373C620.089 39.559 612.333 41.3839 605.099 45.0337C597.843 48.6834 591.695 53.6366 586.611 59.8499C581.527 66.0632 578.203 73.102 576.574 80.9446C574.945 88.7872 575.379 95.8695 577.878 102.191C580.354 108.513 584.504 113.488 590.304 117.138C596.105 120.788 603.057 122.613 611.182 122.591C619.307 122.569 627.149 120.744 634.405 117.095C641.661 113.445 647.831 108.448 652.915 102.126C657.998 95.8043 661.366 88.7221 662.995 80.8577C664.624 73.0151 664.168 65.9546 661.692 59.6761C659.193 53.4194 655.066 48.4879 649.308 44.8816L649.265 44.9033ZM633.384 90.7642C631.32 93.6536 628.779 95.8912 625.759 97.4771C622.717 99.063 619.415 99.8451 615.852 99.8668C612.29 99.8886 609.465 99.0848 607.097 97.4989C604.708 95.9129 603.057 93.697 602.144 90.8076C601.232 87.9182 601.145 84.6813 601.883 81.075C602.622 77.4687 604.078 74.1013 606.185 71.2554C608.292 68.4095 610.856 66.2153 613.875 64.6294C616.895 63.0434 620.154 62.2614 623.63 62.2614C627.106 62.2614 630.147 63.0434 632.472 64.6294C634.796 66.2153 636.426 68.3877 637.382 71.1685C638.316 73.9493 638.403 77.1862 637.642 80.9012C636.882 84.6161 635.47 87.8965 633.406 90.7859L633.384 90.7642Z" fill="#EF919D"/>
<path d="M721.109 87.0323C720.262 91.1817 718.502 94.4187 715.851 96.765C713.201 99.1112 710.029 100.284 706.358 100.284C703.751 100.284 701.643 99.7412 700.036 98.655C698.428 97.5688 697.364 96.048 696.842 94.0711C696.321 92.1159 696.343 89.7696 696.907 87.0323L706.358 41.2583H681.505L671.989 87.4016C670.577 94.2666 670.881 100.35 672.945 105.629C674.987 110.908 678.485 115.057 683.46 118.055C688.413 121.053 694.518 122.552 701.774 122.53C709.03 122.509 715.721 121.01 721.869 118.012C728.017 115.014 733.188 110.864 737.424 105.563C741.66 100.284 744.485 94.1363 745.94 87.1626L755.412 41.2148H730.559L721.109 87.0106V87.0323Z" fill="#EF919D"/>
<path d="M813.83 8.32031L788.977 8.34204L782.199 41.2115H764.341L759.953 62.48L777.81 62.4583L765.797 120.681L790.65 120.659L802.663 62.4366L820.521 62.4149L824.91 41.1681L807.052 41.1898L813.83 8.32031Z" fill="#EF919D"/>
<path d="M897.687 43.3194C893.56 40.7559 888.411 39.4741 882.241 39.4959C876.071 39.5176 870.553 40.7994 865.383 43.3629C863.232 44.4274 861.277 45.7091 859.409 47.1212L868.728 1.91211H843.875L819.37 120.638H844.223L853.565 75.3199C854.129 72.6043 855.216 70.1712 856.845 68.0422C858.474 65.9131 860.43 64.2838 862.732 63.1324C865.013 61.981 867.534 61.4161 870.227 61.4161C874.116 61.4161 877.071 62.6979 879.091 65.2397C881.112 67.8032 881.676 71.1488 880.829 75.2982L871.487 120.594H896.341L906.834 69.715C908.072 63.7189 907.876 58.4616 906.269 53.9428C904.661 49.4241 901.793 45.8829 897.666 43.3194H897.687Z" fill="#EF919D"/>
<path d="M964.186 33.3692C964.881 29.9801 966.402 27.308 968.77 25.3527C971.116 23.3975 973.984 22.3982 977.33 22.3982C979.176 22.3982 980.697 22.7023 981.935 23.2889C983.174 23.8972 984.216 24.7227 985.064 25.809L1003.9 10.102C1001.51 6.95191 998.49 4.47529 994.796 2.67214C991.103 0.868989 986.563 0 981.153 0C974.006 0 967.532 1.52073 961.71 4.51874C955.887 7.51675 951.021 11.6227 947.089 16.7932C943.157 21.9637 940.528 27.7859 939.203 34.2164L937.791 41.0814H920.411L916.022 62.3499H933.402L921.388 120.55H946.242L958.255 62.3282H980.979L985.368 41.0597H962.644L964.23 33.3909L964.186 33.3692Z" fill="#EF919D"/>
<path d="M1036.14 86.7666C1035.29 90.9161 1033.53 94.1531 1030.88 96.4993C1028.23 98.8456 1025.06 100.019 1021.39 100.019C1018.78 100.019 1016.67 99.4756 1015.07 98.3894C1013.46 97.3031 1012.39 95.7824 1011.87 93.8055C1011.35 91.8502 1011.37 89.504 1011.94 86.7666L1021.39 40.9927H996.534L987.019 87.136C985.607 94.001 985.911 100.084 987.975 105.363C990.017 110.642 993.515 114.792 998.49 117.79C1003.44 120.788 1009.55 122.287 1016.8 122.265C1024.06 122.243 1030.75 120.744 1036.9 117.746C1043.05 114.748 1048.22 110.599 1052.45 105.298C1056.69 100.019 1059.51 93.8706 1060.97 86.897L1070.44 40.9492H1045.59L1036.14 86.7449V86.7666Z" fill="#EF919D"/>
<path d="M1069.62 120.419L1094.47 120.397L1118.95 1.67188L1094.12 1.6936L1069.62 120.419Z" fill="#EF919D"/>
<path d="M1136.48 1.67212L1112 120.376L1136.85 120.354L1161.34 1.65039L1136.48 1.67212Z" fill="#EF919D"/>
</svg>
