<svg width="1177" height="170" viewBox="0 0 1177 170" fill="none" xmlns="http://www.w3.org/2000/svg">
<g filter="url(#filter0_f_599_1568)">
<path d="M134.063 16.6641L102.562 16.6858L49.4237 68.8034L60.1775 16.7075L34.6944 16.7292L10.8624 132.174L36.3672 132.153L48.0768 75.3643L80.2077 132.131L111.861 132.087L76.3407 71.6276L134.063 16.6641Z" fill="#EF919D" fill-opacity="0.3"/>
<path d="M159.894 14.1855C156.005 14.1855 152.508 15.5108 149.423 18.1177C146.338 20.7247 144.383 24.0051 143.579 27.9373C142.775 31.8695 143.405 34.9978 145.382 37.67C147.381 40.3421 150.313 41.6673 154.224 41.6673C158.134 41.6673 161.589 40.3204 164.63 37.6482C167.672 34.9761 169.583 31.7391 170.365 27.9156C171.147 24.092 170.604 20.7247 168.649 18.1177C166.694 15.5108 163.783 14.2073 159.872 14.2073L159.894 14.1855Z" fill="#EF919D" fill-opacity="0.3"/>
<path d="M123.07 132.09L147.923 132.069L164.304 52.5996L139.472 52.6213L123.07 132.09Z" fill="#EF919D" fill-opacity="0.3"/>
<path d="M227.327 50.9004C218.659 50.9004 211.381 53.4856 205.45 58.6127L206.689 52.5515H181.836L165.433 132.042H190.286L199.302 88.3538C200.367 83.2268 202.365 79.3815 205.342 76.818C208.296 74.2545 211.837 72.9727 215.965 72.9727C218.029 72.9727 219.789 73.2986 221.288 73.9503C222.787 74.6021 223.938 75.5362 224.764 76.7311L243.425 57.9175C241.752 55.5278 239.602 53.7463 236.973 52.6166C234.344 51.4652 231.129 50.9004 227.349 50.9004H227.327Z" fill="#EF919D" fill-opacity="0.3"/>
<path d="M313.987 56.2234C308.947 52.6389 302.668 50.8357 295.217 50.8357C289.916 50.8357 284.832 51.8785 279.966 53.9641C277.554 54.9851 275.295 56.2234 273.209 57.6356L282.377 13.252H257.524L233.019 131.978H257.546L258.763 126.047C260.327 127.654 262.13 129.045 264.237 130.24C268.213 132.477 272.862 133.585 278.163 133.585C285.636 133.585 292.631 131.782 299.171 128.176C305.71 124.569 311.271 119.66 315.855 113.446C320.439 107.233 323.546 100.151 325.197 92.1779C326.848 84.2049 326.652 77.1443 324.632 70.9311C322.611 64.7178 319.07 59.808 314.03 56.2234H313.987ZM295.716 101.845C293.609 104.691 291.067 106.907 288.091 108.558C285.093 110.188 281.878 111.013 278.402 111.013C274.926 111.013 272.036 110.231 269.712 108.645C267.387 107.059 265.758 104.865 264.824 102.019C263.89 99.1949 263.803 95.9145 264.563 92.1996C265.323 88.4846 266.736 85.2259 268.778 82.38C270.82 79.5558 273.362 77.3399 276.403 75.754C279.423 74.1681 282.681 73.386 286.157 73.386C289.633 73.386 292.523 74.1681 294.847 75.754C297.172 77.3399 298.801 79.5341 299.735 82.38C300.67 85.2042 300.756 88.4846 299.974 92.1996C299.192 95.9145 297.802 99.0211 295.716 101.845Z" fill="#EF919D" fill-opacity="0.3"/>
<path d="M368.342 100.671L362.585 52.4204L335.799 52.4421L350.637 126.437L324.654 165.432L350.137 165.411L370.971 132.194L421.199 52.377L394.412 52.3987L368.342 100.671Z" fill="#EF919D" fill-opacity="0.3"/>
<path d="M516.744 79.8617L489.349 16.3603H471.166L447.355 131.805L472.686 131.784L485.895 67.7393L502.645 106.909H519.547L552.438 67.9131L539.251 131.74L564.756 131.719L588.566 16.2734L570.23 16.2952L516.744 79.8617Z" fill="#EF919D" fill-opacity="0.3"/>
<path d="M660.127 55.7666C654.37 52.182 647.375 50.3789 639.163 50.4006C630.951 50.4223 623.195 52.2472 615.961 55.8969C608.705 59.5467 602.557 64.4999 597.473 70.7132C592.39 76.9265 589.066 83.9653 587.436 91.8079C585.807 99.6505 586.242 106.733 588.74 113.055C591.217 119.377 595.366 124.352 601.166 128.001C606.967 131.651 613.919 133.476 622.044 133.454C630.169 133.432 638.012 131.608 645.268 127.958C652.524 124.308 658.694 119.311 663.777 112.989C668.861 106.668 672.228 99.5853 673.857 91.721C675.487 83.8784 675.03 76.8178 672.554 70.5394C670.056 64.2827 665.928 59.3512 660.171 55.7449L660.127 55.7666ZM644.247 101.627C642.183 104.517 639.641 106.754 636.621 108.34C633.58 109.926 630.278 110.708 626.715 110.73C623.152 110.752 620.328 109.948 617.96 108.362C615.57 106.776 613.919 104.56 613.006 101.671C612.094 98.7815 612.007 95.5445 612.746 91.9382C613.484 88.3319 614.94 84.9646 617.047 82.1187C619.155 79.2727 621.718 77.0785 624.738 75.4926C627.758 73.9067 631.016 73.1246 634.492 73.1246C637.968 73.1246 641.01 73.9067 643.334 75.4926C645.659 77.0785 647.288 79.251 648.244 82.0318C649.178 84.8125 649.265 88.0495 648.505 91.7645C647.744 95.4794 646.332 98.7598 644.268 101.649L644.247 101.627Z" fill="#EF919D" fill-opacity="0.3"/>
<path d="M731.971 97.8956C731.124 102.045 729.364 105.282 726.714 107.628C724.063 109.975 720.892 111.148 717.22 111.148C714.613 111.148 712.506 110.605 710.898 109.518C709.291 108.432 708.226 106.911 707.705 104.934C707.183 102.979 707.205 100.633 707.77 97.8956L717.22 52.1216H692.367L682.852 98.2649C681.439 105.13 681.744 111.213 683.807 116.492C685.85 121.771 689.347 125.92 694.322 128.918C699.275 131.916 705.38 133.415 712.636 133.394C719.892 133.372 726.583 131.873 732.731 128.875C738.88 125.877 744.05 121.728 748.286 116.427C752.523 111.148 755.347 105 756.802 98.0259L766.274 52.0781H741.421L731.971 97.8738V97.8956Z" fill="#EF919D" fill-opacity="0.3"/>
<path d="M824.692 19.1836L799.839 19.2053L793.061 52.0748H775.203L770.815 73.3433L788.672 73.3216L776.659 131.544L801.512 131.522L813.526 73.2999L831.383 73.2781L835.772 52.0314L817.914 52.0531L824.692 19.1836Z" fill="#EF919D" fill-opacity="0.3"/>
<path d="M908.55 54.1827C904.422 51.6192 899.273 50.3374 893.104 50.3592C886.934 50.3809 881.416 51.6626 876.245 54.2262C874.094 55.2907 872.139 56.5724 870.271 57.9845L879.591 12.7754H854.738L830.232 131.501H855.085L864.427 86.1832C864.992 83.4676 866.078 81.0345 867.707 78.9054C869.337 76.7764 871.292 75.1471 873.595 73.9956C875.876 72.8442 878.396 72.2794 881.09 72.2794C884.978 72.2794 887.933 73.5612 889.953 76.1029C891.974 78.6665 892.539 82.0121 891.691 86.1615L882.35 131.458H907.203L917.696 80.5782C918.934 74.5822 918.739 69.3248 917.131 64.8061C915.523 60.2873 912.656 56.7462 908.528 54.1827H908.55Z" fill="#EF919D" fill-opacity="0.3"/>
<path d="M975.049 44.2324C975.744 40.8434 977.264 38.1713 979.632 36.216C981.979 34.2608 984.846 33.2615 988.192 33.2615C990.039 33.2615 991.559 33.5656 992.798 34.1522C994.036 34.7605 995.079 35.586 995.926 36.6722L1014.76 20.9653C1012.37 17.8152 1009.35 15.3386 1005.66 13.5354C1001.97 11.7323 997.425 10.8633 992.016 10.8633C984.868 10.8633 978.394 12.384 972.572 15.382C966.75 18.38 961.883 22.486 957.951 27.6565C954.019 32.827 951.39 38.6492 950.065 45.0797L948.653 51.9447H931.273L926.885 73.2132H944.265L932.251 131.414H957.104L969.118 73.1915H991.842L996.23 51.923H973.506L975.092 44.2542L975.049 44.2324Z" fill="#EF919D" fill-opacity="0.3"/>
<path d="M1047 97.6299C1046.15 101.779 1044.39 105.016 1041.74 107.363C1039.09 109.709 1035.92 110.882 1032.25 110.882C1029.64 110.882 1027.54 110.339 1025.93 109.253C1024.32 108.166 1023.26 106.646 1022.73 104.669C1022.21 102.714 1022.23 100.367 1022.8 97.6299L1032.25 51.856H1007.4L997.882 97.9993C996.469 104.864 996.774 110.947 998.837 116.226C1000.88 121.505 1004.38 125.655 1009.35 128.653C1014.31 131.651 1020.41 133.15 1027.67 133.128C1034.92 133.106 1041.61 131.607 1047.76 128.609C1053.91 125.611 1059.08 121.462 1063.32 116.161C1067.55 110.882 1070.38 104.734 1071.83 97.7603L1081.3 51.8125H1056.45L1047 97.6082V97.6299Z" fill="#EF919D" fill-opacity="0.3"/>
<path d="M1080.48 131.282L1105.33 131.261L1129.82 12.5352L1104.98 12.5569L1080.48 131.282Z" fill="#EF919D" fill-opacity="0.3"/>
<path d="M1147.35 12.5354L1122.86 131.239L1147.72 131.218L1172.2 12.5137L1147.35 12.5354Z" fill="#EF919D" fill-opacity="0.3"/>
</g>
<path d="M123.201 5.80078L91.7 5.82251L38.5614 57.9401L49.3151 5.84423L23.832 5.86596L0 121.311L25.5048 121.289L37.2144 64.501L69.3453 121.268L100.998 121.224L65.4783 60.7643L123.201 5.80078Z" fill="#EF919D"/>
<path d="M149.031 3.32227C145.143 3.32227 141.645 4.64747 138.56 7.25444C135.475 9.86141 133.52 13.1418 132.716 17.074C131.912 21.0062 132.542 24.1345 134.519 26.8067C136.518 29.4788 139.451 30.804 143.361 30.804C147.272 30.804 150.726 29.4571 153.767 26.785C156.809 24.1128 158.721 20.8758 159.503 17.0523C160.285 13.2287 159.742 9.86141 157.787 7.25444C155.831 4.64747 152.92 3.34399 149.01 3.34399L149.031 3.32227Z" fill="#EF919D"/>
<path d="M112.208 121.227L137.061 121.205L153.441 41.7363L128.61 41.7581L112.208 121.227Z" fill="#EF919D"/>
<path d="M216.465 40.0371C207.797 40.0371 200.519 42.6223 194.588 47.7494L195.826 41.6882H170.973L154.571 121.179H179.424L188.44 77.4905C189.504 72.3635 191.503 68.5182 194.479 65.9547C197.434 63.3912 200.975 62.1094 205.103 62.1094C207.167 62.1094 208.926 62.4353 210.425 63.087C211.924 63.7388 213.076 64.6729 213.901 65.8678L232.563 47.0542C230.89 44.6645 228.739 42.883 226.11 41.7534C223.482 40.6019 220.267 40.0371 216.486 40.0371H216.465Z" fill="#EF919D"/>
<path d="M303.125 45.3602C298.084 41.7756 291.806 39.9724 284.354 39.9724C279.054 39.9724 273.97 41.0152 269.104 43.1008C266.692 44.1219 264.433 45.3602 262.347 46.7723L271.515 2.38867H246.662L222.157 121.114H246.684L247.9 115.183C249.465 116.791 251.268 118.181 253.375 119.376C257.351 121.614 262 122.722 267.301 122.722C274.774 122.722 281.769 120.919 288.308 117.312C294.847 113.706 300.409 108.796 304.993 102.583C309.577 96.3698 312.683 89.2875 314.335 81.3146C315.986 73.3416 315.79 66.2811 313.77 60.0678C311.749 53.8545 308.208 48.9447 303.168 45.3602H303.125ZM284.854 90.9821C282.747 93.828 280.205 96.0439 277.229 97.695C274.231 99.3244 271.015 100.15 267.539 100.15C264.064 100.15 261.174 99.3678 258.85 97.7819C256.525 96.196 254.896 94.0018 253.962 91.1559C253.027 88.3317 252.94 85.0512 253.701 81.3363C254.461 77.6214 255.873 74.3627 257.915 71.5167C259.958 68.6925 262.499 66.4766 265.541 64.8907C268.561 63.3048 271.819 62.5227 275.295 62.5227C278.771 62.5227 281.661 63.3048 283.985 64.8907C286.31 66.4766 287.939 68.6708 288.873 71.5167C289.807 74.3409 289.894 77.6214 289.112 81.3363C288.33 85.0512 286.94 88.1579 284.854 90.9821Z" fill="#EF919D"/>
<path d="M357.48 89.8077L351.723 41.5571L324.937 41.5788L339.774 115.573L313.792 154.569L339.275 154.547L360.109 121.33L410.336 41.5137L383.55 41.5354L357.48 89.8077Z" fill="#EF919D"/>
<path d="M505.882 68.9984L478.487 5.49706H460.303L436.493 120.942L461.824 120.92L475.033 56.876L491.782 96.0457H508.684L541.575 57.0498L528.388 120.877L553.893 120.855L577.704 5.41016L559.368 5.43188L505.882 68.9984Z" fill="#EF919D"/>
<path d="M649.265 44.9033C643.508 41.3187 636.513 39.5156 628.301 39.5373C620.089 39.559 612.333 41.3839 605.099 45.0337C597.843 48.6834 591.695 53.6366 586.611 59.8499C581.527 66.0632 578.203 73.102 576.574 80.9446C574.945 88.7872 575.379 95.8695 577.878 102.191C580.354 108.513 584.504 113.488 590.304 117.138C596.105 120.788 603.057 122.613 611.182 122.591C619.307 122.569 627.149 120.744 634.405 117.095C641.661 113.445 647.831 108.448 652.915 102.126C657.998 95.8043 661.366 88.7221 662.995 80.8577C664.624 73.0151 664.168 65.9546 661.692 59.6761C659.193 53.4194 655.066 48.4879 649.308 44.8816L649.265 44.9033ZM633.384 90.7642C631.32 93.6536 628.779 95.8912 625.759 97.4771C622.717 99.063 619.415 99.8451 615.852 99.8668C612.29 99.8886 609.465 99.0848 607.097 97.4989C604.708 95.9129 603.057 93.697 602.144 90.8076C601.232 87.9182 601.145 84.6813 601.883 81.075C602.622 77.4687 604.078 74.1013 606.185 71.2554C608.292 68.4095 610.856 66.2153 613.875 64.6294C616.895 63.0434 620.154 62.2614 623.63 62.2614C627.106 62.2614 630.147 63.0434 632.472 64.6294C634.796 66.2153 636.426 68.3877 637.382 71.1685C638.316 73.9493 638.403 77.1862 637.642 80.9012C636.882 84.6161 635.47 87.8965 633.406 90.7859L633.384 90.7642Z" fill="#EF919D"/>
<path d="M721.109 87.0323C720.262 91.1817 718.502 94.4187 715.851 96.765C713.201 99.1112 710.029 100.284 706.358 100.284C703.751 100.284 701.643 99.7412 700.036 98.655C698.428 97.5688 697.364 96.048 696.842 94.0711C696.321 92.1159 696.343 89.7696 696.907 87.0323L706.358 41.2583H681.505L671.989 87.4016C670.577 94.2666 670.881 100.35 672.945 105.629C674.987 110.908 678.485 115.057 683.46 118.055C688.413 121.053 694.518 122.552 701.774 122.53C709.03 122.509 715.721 121.01 721.869 118.012C728.017 115.014 733.188 110.864 737.424 105.563C741.66 100.284 744.485 94.1363 745.94 87.1626L755.412 41.2148H730.559L721.109 87.0106V87.0323Z" fill="#EF919D"/>
<path d="M813.83 8.32031L788.977 8.34204L782.199 41.2115H764.341L759.953 62.48L777.81 62.4583L765.797 120.681L790.65 120.659L802.663 62.4366L820.521 62.4149L824.91 41.1681L807.052 41.1898L813.83 8.32031Z" fill="#EF919D"/>
<path d="M897.687 43.3194C893.56 40.7559 888.411 39.4741 882.241 39.4959C876.071 39.5176 870.553 40.7994 865.383 43.3629C863.232 44.4274 861.277 45.7091 859.409 47.1213L868.728 1.91211H843.875L819.37 120.638H844.223L853.565 75.3199C854.129 72.6043 855.216 70.1712 856.845 68.0422C858.474 65.9131 860.43 64.2838 862.732 63.1324C865.013 61.981 867.534 61.4161 870.227 61.4161C874.116 61.4161 877.071 62.6979 879.091 65.2397C881.112 67.8032 881.676 71.1488 880.829 75.2982L871.487 120.594H896.341L906.834 69.715C908.072 63.7189 907.876 58.4616 906.269 53.9428C904.661 49.4241 901.793 45.8829 897.666 43.3194H897.687Z" fill="#EF919D"/>
<path d="M964.186 33.3692C964.881 29.9801 966.402 27.308 968.77 25.3527C971.116 23.3975 973.984 22.3982 977.33 22.3982C979.176 22.3982 980.697 22.7023 981.935 23.2889C983.174 23.8972 984.216 24.7227 985.064 25.809L1003.9 10.102C1001.51 6.95191 998.49 4.47529 994.796 2.67214C991.103 0.868989 986.563 0 981.153 0C974.006 0 967.532 1.52073 961.71 4.51874C955.887 7.51675 951.021 11.6227 947.089 16.7932C943.157 21.9637 940.528 27.7859 939.203 34.2164L937.791 41.0814H920.411L916.022 62.3499H933.402L921.388 120.55H946.242L958.255 62.3282H980.979L985.368 41.0597H962.644L964.23 33.3909L964.186 33.3692Z" fill="#EF919D"/>
<path d="M1036.14 86.7667C1035.29 90.9161 1033.53 94.1531 1030.88 96.4993C1028.23 98.8456 1025.06 100.019 1021.39 100.019C1018.78 100.019 1016.67 99.4756 1015.07 98.3894C1013.46 97.3031 1012.39 95.7824 1011.87 93.8055C1011.35 91.8502 1011.37 89.504 1011.94 86.7667L1021.39 40.9927H996.534L987.019 87.136C985.607 94.001 985.911 100.084 987.975 105.363C990.017 110.642 993.515 114.792 998.49 117.79C1003.44 120.788 1009.55 122.287 1016.8 122.265C1024.06 122.243 1030.75 120.744 1036.9 117.746C1043.05 114.748 1048.22 110.599 1052.45 105.298C1056.69 100.019 1059.51 93.8706 1060.97 86.897L1070.44 40.9492H1045.59L1036.14 86.7449V86.7667Z" fill="#EF919D"/>
<path d="M1069.62 120.419L1094.47 120.397L1118.95 1.67188L1094.12 1.6936L1069.62 120.419Z" fill="#EF919D"/>
<path d="M1136.48 1.67212L1112 120.376L1136.85 120.354L1161.34 1.65039L1136.48 1.67212Z" fill="#EF919D"/>
<defs>
<filter id="filter0_f_599_1568" x="6.86237" y="6.86328" width="1169.34" height="162.568" filterUnits="userSpaceOnUse" color-interpolation-filters="sRGB">
<feFlood flood-opacity="0" result="BackgroundImageFix"/>
<feBlend mode="normal" in="SourceGraphic" in2="BackgroundImageFix" result="shape"/>
<feGaussianBlur stdDeviation="2" result="effect1_foregroundBlur_599_1568"/>
</filter>
</defs>
</svg>
