<svg width="1171" height="164" viewBox="0 0 1171 164" fill="none" xmlns="http://www.w3.org/2000/svg">
<g filter="url(#filter0_f_890_373)">
<path d="M128.063 10.6641L96.5626 10.6858L43.4239 62.8034L54.1777 10.7075L28.6946 10.7292L4.86255 126.174L30.3674 126.153L42.077 69.3643L74.2078 126.131L105.861 126.087L70.3408 65.6276L128.063 10.6641Z" fill="#EF919D" fill-opacity="0.3"/>
<path d="M153.894 8.18555C150.005 8.18555 146.508 9.51075 143.423 12.1177C140.338 14.7247 138.383 18.0051 137.579 21.9373C136.775 25.8695 137.405 28.9978 139.382 31.67C141.381 34.3421 144.314 35.6673 148.224 35.6673C152.134 35.6673 155.589 34.3204 158.63 31.6482C161.672 28.9761 163.583 25.7391 164.365 21.9156C165.148 18.092 164.604 14.7247 162.649 12.1177C160.694 9.51075 157.783 8.20727 153.872 8.20727L153.894 8.18555Z" fill="#EF919D" fill-opacity="0.3"/>
<path d="M117.07 126.09L141.923 126.069L158.304 46.5996L133.472 46.6213L117.07 126.09Z" fill="#EF919D" fill-opacity="0.3"/>
<path d="M221.327 44.9004C212.659 44.9004 205.381 47.4856 199.451 52.6127L200.689 46.5515H175.836L159.434 126.042H184.287L193.302 82.3538C194.367 77.2268 196.366 73.3815 199.342 70.818C202.296 68.2545 205.838 66.9727 209.965 66.9727C212.029 66.9727 213.789 67.2986 215.288 67.9503C216.787 68.6021 217.938 69.5362 218.764 70.7311L237.425 51.9175C235.753 49.5278 233.602 47.7463 230.973 46.6166C228.344 45.4652 225.129 44.9004 221.349 44.9004H221.327Z" fill="#EF919D" fill-opacity="0.3"/>
<path d="M307.987 50.2234C302.947 46.6389 296.668 44.8357 289.217 44.8357C283.916 44.8357 278.832 45.8785 273.966 47.9641C271.554 48.9851 269.295 50.2234 267.21 51.6356L276.377 7.25195H251.524L227.019 125.978H251.546L252.763 120.047C254.327 121.654 256.13 123.045 258.237 124.24C262.213 126.477 266.862 127.585 272.163 127.585C279.636 127.585 286.631 125.782 293.171 122.176C299.71 118.569 305.271 113.66 309.855 107.446C314.439 101.233 317.546 94.1508 319.197 86.1779C320.848 78.2049 320.652 71.1443 318.632 64.9311C316.612 58.7178 313.07 53.808 308.03 50.2234H307.987ZM289.716 95.8454C287.609 98.6913 285.067 100.907 282.091 102.558C279.093 104.188 275.878 105.013 272.402 105.013C268.926 105.013 266.036 104.231 263.712 102.645C261.387 101.059 259.758 98.8651 258.824 96.0192C257.89 93.1949 257.803 89.9145 258.563 86.1996C259.323 82.4847 260.736 79.2259 262.778 76.38C264.82 73.5558 267.362 71.3399 270.403 69.754C273.423 68.1681 276.682 67.386 280.157 67.386C283.633 67.386 286.523 68.1681 288.847 69.754C291.172 71.3399 292.801 73.5341 293.735 76.38C294.67 79.2042 294.756 82.4847 293.974 86.1996C293.192 89.9145 291.802 93.0211 289.716 95.8454Z" fill="#EF919D" fill-opacity="0.3"/>
<path d="M362.343 94.671L356.586 46.4204L329.799 46.4421L344.637 120.437L318.654 159.432L344.137 159.411L364.971 126.194L415.199 46.377L388.412 46.3987L362.343 94.671Z" fill="#EF919D" fill-opacity="0.3"/>
<path d="M510.744 73.8617L483.349 10.3603H465.166L441.355 125.805L466.687 125.784L479.895 61.7393L496.645 100.909H513.547L546.438 61.9131L533.251 125.74L558.756 125.719L582.566 10.2734L564.231 10.2952L510.744 73.8617Z" fill="#EF919D" fill-opacity="0.3"/>
<path d="M654.128 49.7666C648.371 46.182 641.375 44.3789 633.163 44.4006C624.951 44.4223 617.196 46.2472 609.961 49.8969C602.705 53.5467 596.557 58.4999 591.473 64.7132C586.39 70.9265 583.066 77.9653 581.437 85.8079C579.807 93.6505 580.242 100.733 582.74 107.055C585.217 113.377 589.366 118.352 595.167 122.001C600.967 125.651 607.919 127.476 616.044 127.454C624.169 127.432 632.012 125.608 639.268 121.958C646.524 118.308 652.694 113.311 657.777 106.989C662.861 100.668 666.228 93.5853 667.858 85.721C669.487 77.8784 669.031 70.8178 666.554 64.5394C664.056 58.2827 659.928 53.3512 654.171 49.7449L654.128 49.7666ZM638.247 95.6275C636.183 98.5169 633.641 100.754 630.621 102.34C627.58 103.926 624.278 104.708 620.715 104.73C617.152 104.752 614.328 103.948 611.96 102.362C609.57 100.776 607.919 98.5603 607.007 95.6709C606.094 92.7815 606.007 89.5445 606.746 85.9382C607.485 82.3319 608.94 78.9646 611.047 76.1187C613.155 73.2727 615.718 71.0785 618.738 69.4926C621.758 67.9067 625.016 67.1246 628.492 67.1246C631.968 67.1246 635.01 67.9067 637.334 69.4926C639.659 71.0785 641.288 73.251 642.244 76.0318C643.178 78.8125 643.265 82.0495 642.505 85.7644C641.745 89.4794 640.332 92.7598 638.269 95.6492L638.247 95.6275Z" fill="#EF919D" fill-opacity="0.3"/>
<path d="M725.971 91.8956C725.124 96.045 723.364 99.282 720.714 101.628C718.064 103.975 714.892 105.148 711.22 105.148C708.613 105.148 706.506 104.605 704.898 103.518C703.291 102.432 702.226 100.911 701.705 98.9344C701.183 96.9791 701.205 94.6329 701.77 91.8956L711.22 46.1216H686.367L676.852 92.2649C675.44 99.1299 675.744 105.213 677.808 110.492C679.85 115.771 683.347 119.92 688.322 122.918C693.276 125.916 699.38 127.415 706.636 127.394C713.892 127.372 720.584 125.873 726.732 122.875C732.88 119.877 738.05 115.728 742.287 110.427C746.523 105.148 749.347 98.9995 750.803 92.0259L760.275 46.0781H735.422L725.971 91.8738V91.8956Z" fill="#EF919D" fill-opacity="0.3"/>
<path d="M818.692 13.1836L793.839 13.2053L787.061 46.0748H769.203L764.815 67.3433L782.672 67.3216L770.659 125.544L795.512 125.522L807.526 67.2999L825.383 67.2781L829.772 46.0314L811.914 46.0531L818.692 13.1836Z" fill="#EF919D" fill-opacity="0.3"/>
<path d="M902.55 48.1827C898.422 45.6192 893.274 44.3374 887.104 44.3592C880.934 44.3809 875.416 45.6626 870.245 48.2262C868.095 49.2907 866.139 50.5724 864.271 51.9845L873.591 6.77539H848.738L824.232 125.501H849.086L858.427 80.1832C858.992 77.4676 860.078 75.0345 861.708 72.9054C863.337 70.7764 865.292 69.1471 867.595 67.9956C869.876 66.8442 872.396 66.2794 875.09 66.2794C878.979 66.2794 881.933 67.5612 883.954 70.1029C885.974 72.6665 886.539 76.0121 885.692 80.1615L876.35 125.458H901.203L911.696 74.5782C912.934 68.5822 912.739 63.3248 911.131 58.8061C909.524 54.2873 906.656 50.7462 902.528 48.1827H902.55Z" fill="#EF919D" fill-opacity="0.3"/>
<path d="M969.049 38.2324C969.744 34.8434 971.265 32.1713 973.633 30.216C975.979 28.2608 978.847 27.2615 982.192 27.2615C984.039 27.2615 985.559 27.5656 986.798 28.1522C988.036 28.7605 989.079 29.586 989.926 30.6722L1008.76 14.9653C1006.37 11.8152 1003.35 9.33857 999.659 7.53542C995.966 5.73227 991.425 4.86328 986.016 4.86328C978.868 4.86328 972.394 6.38401 966.572 9.38202C960.75 12.38 955.884 16.486 951.951 21.6565C948.019 26.827 945.391 32.6492 944.065 39.0797L942.653 45.9447H925.273L920.885 67.2132H938.265L926.251 125.414H951.104L963.118 67.1915H985.842L990.23 45.923H967.506L969.092 38.2542L969.049 38.2324Z" fill="#EF919D" fill-opacity="0.3"/>
<path d="M1041 91.6299C1040.15 95.7794 1038.39 99.0163 1035.74 101.363C1033.09 103.709 1029.92 104.882 1026.25 104.882C1023.64 104.882 1021.54 104.339 1019.93 103.253C1018.32 102.166 1017.26 100.646 1016.73 98.6687C1016.21 96.7135 1016.23 94.3672 1016.8 91.6299L1026.25 45.856H1001.4L991.882 91.9993C990.469 98.8643 990.774 104.947 992.837 110.226C994.88 115.505 998.377 119.655 1003.35 122.653C1008.31 125.651 1014.41 127.15 1021.67 127.128C1028.92 127.106 1035.61 125.607 1041.76 122.609C1047.91 119.611 1053.08 115.462 1057.32 110.161C1061.55 104.882 1064.38 98.7339 1065.83 91.7603L1075.3 45.8125H1050.45L1041 91.6082V91.6299Z" fill="#EF919D" fill-opacity="0.3"/>
<path d="M1074.48 125.282L1099.33 125.261L1123.82 6.53516L1098.98 6.55688L1074.48 125.282Z" fill="#EF919D" fill-opacity="0.3"/>
<path d="M1141.35 6.5354L1116.86 125.239L1141.72 125.218L1166.2 6.51367L1141.35 6.5354Z" fill="#EF919D" fill-opacity="0.3"/>
</g>
<defs>
<filter id="filter0_f_890_373" x="0.862549" y="0.863281" width="1169.34" height="162.568" filterUnits="userSpaceOnUse" color-interpolation-filters="sRGB">
<feFlood flood-opacity="0" result="BackgroundImageFix"/>
<feBlend mode="normal" in="SourceGraphic" in2="BackgroundImageFix" result="shape"/>
<feGaussianBlur stdDeviation="2" result="effect1_foregroundBlur_890_373"/>
</filter>
</defs>
</svg>
