<svg width="109" height="102" viewBox="0 0 109 102" fill="none" xmlns="http://www.w3.org/2000/svg">
<path d="M108.05 30.63C107.08 24.47 104.86 19.09 101.4 14.48C97.94 9.88 93.38 6.32 87.71 3.79C82.04 1.26 75.43 0 67.89 0C60.35 0 53.0601 1.27 46.0401 3.79C39.0101 6.32 32.5401 9.89 26.6101 14.48C20.6901 19.08 15.59 24.44 11.33 30.56C7.07004 36.68 3.98007 43.33 2.05007 50.5C0.120074 57.67 -0.329931 64.37 0.670069 70.58C1.67007 76.79 3.93008 82.2 7.43008 86.79C10.9301 91.39 15.5201 94.98 21.1701 97.55C26.8301 100.13 33.4301 101.41 40.9701 101.41C48.5101 101.41 55.6401 100.14 62.6201 97.62C69.6001 95.09 76.06 91.5 82 86.86C87.94 82.22 93.04 76.81 97.32 70.64C101.59 64.48 104.69 57.81 106.61 50.63C108.53 43.45 109.01 36.79 108.04 30.62L108.05 30.63ZM74.02 65.68C70.65 70.01 66.63 73.36 61.94 75.75C57.25 78.14 52.15 79.34 46.63 79.34C42.49 79.34 38.9401 78.67 35.9901 77.34C33.0401 76.01 30.7001 74.08 28.9901 71.54C27.2701 69.01 26.2701 65.97 25.9801 62.43C25.6901 58.89 26.13 54.91 27.32 50.49C28.85 44.79 31.3001 39.77 34.6601 35.45C38.0301 31.13 42.0501 27.79 46.7201 25.45C51.4001 23.1 56.5 21.93 62.02 21.93C66.16 21.93 69.7 22.62 72.64 24C75.58 25.38 77.9101 27.34 79.6201 29.87C81.3301 32.4 82.34 35.41 82.65 38.91C82.96 42.41 82.5401 46.27 81.4101 50.5C79.8601 56.3 77.4001 61.36 74.0301 65.68H74.02Z" fill="#D42D26"/>
</svg>
