<svg width="109" height="99" viewBox="0 0 109 99" fill="none" xmlns="http://www.w3.org/2000/svg">
<path d="M101.13 14.3091C97.6001 9.98906 92.9701 6.64906 87.2501 4.30906C81.5301 1.95906 74.9001 0.789062 67.3501 0.789062H27.0501L0.830078 98.6291H41.4001C48.8501 98.6291 56.0401 97.4591 62.9701 95.1091C69.9001 92.7591 76.2901 89.4291 82.1401 85.0991C87.9901 80.7791 93.0301 75.6291 97.2501 69.6391C101.47 63.6591 104.57 56.9891 106.54 49.6291C108.51 42.2691 108.95 35.7391 107.93 29.7591C106.91 23.7791 104.63 18.6291 101.1 14.2991L101.13 14.3091ZM73.9501 64.7491C70.6201 68.9391 66.6201 72.0891 61.9601 74.1991C57.3001 76.3191 52.2101 77.3691 46.6901 77.3691H31.2301L46.0601 22.0291H61.5201C67.0401 22.0291 71.5401 23.0891 75.0201 25.1991C78.5001 27.3191 80.8201 30.4191 81.9801 34.5191C83.1401 38.6091 82.9301 43.6091 81.3501 49.4891C79.7701 55.3691 77.2801 60.5491 73.9501 64.7391V64.7491Z" fill="#D42D26"/>
</svg>
