<svg width="1015" height="291" viewBox="0 0 1015 291" fill="none" xmlns="http://www.w3.org/2000/svg">
<path d="M72.45 77.4093L43.47 21.7793H26.22L0 119.629H24.71L39.27 65.2693L67.49 119.629H85.84L112.06 21.7793H87.35L72.45 77.4093Z" fill="#D42D26"/>
<path d="M103.23 119.629H127.93L154.14 21.7793H129.44L103.23 119.629Z" fill="#D42D26"/>
<path d="M217.76 77.4093L188.78 21.7793H171.53L145.31 119.629H170.02L184.58 65.2693L212.8 119.629H231.15L257.37 21.7793H232.67L217.76 77.4093Z" fill="#D42D26"/>
<path d="M262.85 43.0393H292.8L272.27 119.629H296.98L317.5 43.0393H347.44L353.14 21.7793H268.54L262.85 43.0393Z" fill="#D42D26"/>
<path d="M373.45 79.8793H416.37L421.8 59.5993H378.89L383.43 42.6193H430.49L436.07 21.7793H389.02H383.91H364.31L338.1 119.629H357.69H362.8H410.69L416.27 98.7893H368.38L373.45 79.8793Z" fill="#D42D26"/>
<path d="M497.07 77.4093L468.09 21.7793H450.84L424.62 119.629H449.33L463.89 65.2693L492.1 119.629H510.46L536.68 21.7793H511.97L497.07 77.4093Z" fill="#D42D26"/>
<path d="M628.13 35.3091C624.6 30.9891 619.97 27.6491 614.25 25.3091C608.53 22.9591 601.9 21.7891 594.35 21.7891H554.05L527.83 119.629H568.4C575.85 119.629 583.04 118.459 589.97 116.109C596.9 113.759 603.29 110.429 609.14 106.099C614.99 101.779 620.03 96.6291 624.25 90.6391C628.47 84.6591 631.57 77.9891 633.54 70.6291C635.51 63.2691 635.95 56.7391 634.93 50.7591C633.91 44.7791 631.63 39.6291 628.1 35.2991L628.13 35.3091ZM600.95 85.7491C597.62 89.9391 593.62 93.0891 588.96 95.1991C584.3 97.3191 579.21 98.3691 573.69 98.3691H558.23L573.06 43.0291H588.52C594.04 43.0291 598.54 44.0891 602.02 46.1991C605.5 48.3191 607.82 51.4191 608.98 55.5191C610.14 59.6091 609.93 64.6091 608.35 70.4891C606.77 76.3691 604.28 81.5491 600.95 85.7391V85.7491Z" fill="#D42D26"/>
<path d="M747.05 50.63C746.08 44.47 743.86 39.09 740.4 34.48C736.94 29.88 732.38 26.32 726.71 23.79C721.04 21.26 714.43 20 706.89 20C699.35 20 692.06 21.27 685.04 23.79C678.01 26.32 671.54 29.89 665.61 34.48C659.69 39.08 654.59 44.44 650.33 50.56C646.07 56.68 642.98 63.33 641.05 70.5C639.12 77.67 638.67 84.37 639.67 90.58C640.67 96.79 642.93 102.2 646.43 106.79C649.93 111.39 654.52 114.98 660.17 117.55C665.83 120.13 672.43 121.41 679.97 121.41C687.51 121.41 694.64 120.14 701.62 117.62C708.6 115.09 715.06 111.5 721 106.86C726.94 102.22 732.04 96.81 736.32 90.64C740.59 84.48 743.69 77.81 745.61 70.63C747.53 63.45 748.01 56.79 747.04 50.62L747.05 50.63ZM713.02 85.68C709.65 90.01 705.63 93.36 700.94 95.75C696.25 98.14 691.15 99.34 685.63 99.34C681.49 99.34 677.94 98.67 674.99 97.34C672.04 96.01 669.7 94.08 667.99 91.54C666.27 89.01 665.27 85.97 664.98 82.43C664.69 78.89 665.13 74.91 666.32 70.49C667.85 64.79 670.3 59.77 673.66 55.45C677.03 51.13 681.05 47.79 685.72 45.45C690.4 43.1 695.5 41.93 701.02 41.93C705.16 41.93 708.7 42.62 711.64 44C714.58 45.38 716.91 47.34 718.62 49.87C720.33 52.4 721.34 55.41 721.65 58.91C721.96 62.41 721.54 66.27 720.41 70.5C718.86 76.3 716.4 81.36 713.03 85.68H713.02Z" fill="#D42D26"/>
<path d="M291.35 232.879H334.27L339.71 212.599H296.79L301.34 195.619H348.39L353.98 174.779H306.92H301.81H282.22L256 272.629H275.6H280.7H328.59L334.17 251.789H286.29L291.35 232.879Z" fill="#D42D26"/>
<path d="M391.1 237.769L385.99 174.779H359.63L370.26 272.629H392.62L456.1 174.779H430.29L391.1 237.769Z" fill="#D42D26"/>
<path d="M475.58 232.879H518.5L523.93 212.599H481.02L485.56 195.619H532.62L538.2 174.779H491.15H486.04H466.45L440.23 272.629H459.82H464.93H512.82L518.4 251.789H470.51L475.58 232.879Z" fill="#D42D26"/>
<path d="M597.14 229.359C602.94 226.919 607.88 223.519 611.95 219.149C616.02 214.779 618.83 209.699 620.38 203.899C621.93 198.099 621.86 193.049 620.17 188.719C618.48 184.399 615.45 180.989 611.11 178.509C606.76 176.029 601.28 174.779 594.65 174.779H552.97L526.75 272.619H551.45L562.06 233.009H563.51L579.74 272.619H608.31L589.27 231.829C591.99 231.229 594.62 230.419 597.13 229.359H597.14ZM586.28 193.129C590.33 193.129 593.15 194.169 594.76 196.239C596.37 198.309 596.73 200.999 595.84 204.309C594.95 207.619 593.12 210.409 590.43 212.379C587.74 214.359 584.37 215.349 580.32 215.349H566.8L572.75 193.129H586.27H586.28Z" fill="#D42D26"/>
<path d="M724.37 174.779H696.63L669.1 207.989L659.37 174.779H631.08L650.06 232.709L639.36 272.629H664.06L675.06 231.589L724.37 174.779Z" fill="#D42D26"/>
<path d="M808.73 187.48C805.27 182.88 800.71 179.32 795.04 176.79C789.37 174.26 782.76 173 775.22 173C767.68 173 760.39 174.27 753.37 176.79C746.34 179.32 739.87 182.89 733.94 187.48C728.02 192.08 722.92 197.44 718.66 203.56C714.4 209.68 711.31 216.33 709.38 223.5C707.45 230.67 707 237.37 708 243.58C709 249.79 711.26 255.2 714.76 259.79C718.26 264.39 722.85 267.98 728.5 270.55C734.16 273.13 740.76 274.41 748.3 274.41C755.84 274.41 762.97 273.14 769.95 270.62C776.93 268.09 783.39 264.5 789.33 259.86C795.27 255.22 800.37 249.81 804.65 243.64C808.92 237.48 812.02 230.81 813.94 223.63C815.86 216.45 816.34 209.79 815.37 203.62C814.4 197.46 812.18 192.08 808.72 187.47L808.73 187.48ZM781.35 238.68C777.98 243.01 773.96 246.36 769.27 248.75C764.58 251.14 759.48 252.34 753.96 252.34C749.82 252.34 746.27 251.67 743.32 250.34C740.37 249.01 738.03 247.08 736.32 244.54C734.6 242.01 733.6 238.97 733.31 235.43C733.02 231.89 733.46 227.91 734.65 223.49C736.18 217.79 738.63 212.77 741.99 208.45C745.36 204.13 749.38 200.79 754.05 198.45C758.73 196.1 763.83 194.93 769.35 194.93C773.49 194.93 777.03 195.62 779.97 197C782.91 198.38 785.24 200.34 786.95 202.87C788.66 205.4 789.67 208.41 789.98 211.91C790.29 215.41 789.87 219.27 788.74 223.5C787.19 229.3 784.73 234.36 781.36 238.68H781.35Z" fill="#D42D26"/>
<path d="M885.69 230.409L856.71 174.779H839.46L813.24 272.629H837.94L852.51 218.269L880.72 272.629H899.08L925.29 174.779H900.59L885.69 230.409Z" fill="#D42D26"/>
<path d="M946.75 251.789L951.81 232.879H994.73L1000.17 212.599H957.25L961.8 195.619H1008.86L1014.44 174.779H967.38H962.28H942.68L916.46 272.629H936.06H941.17H989.05L994.63 251.789H946.75Z" fill="#D42D26"/>
<mask id="path-17-outside-1_617_69" maskUnits="userSpaceOnUse" x="785" y="17" width="98" height="106" fill="black">
<rect fill="white" x="785" y="17" width="98" height="106"/>
<path d="M786.9 120V52.518L811.05 52.518V120H786.9ZM798.906 44.652C795.318 44.652 792.328 43.456 789.936 41.064C787.544 38.58 786.348 35.498 786.348 31.818C786.348 28.23 787.544 25.194 789.936 22.71C792.328 20.226 795.318 18.984 798.906 18.984C802.678 18.984 805.714 20.226 808.014 22.71C810.406 25.194 811.602 28.23 811.602 31.818C811.602 35.498 810.406 38.58 808.014 41.064C805.714 43.456 802.678 44.652 798.906 44.652ZM850.71 121.932C846.57 121.932 842.476 121.38 838.428 120.276C834.472 119.172 830.746 117.7 827.25 115.86C823.846 113.928 820.948 111.72 818.556 109.236L831.666 95.85C833.874 98.15 836.496 99.944 839.532 101.232C842.66 102.52 845.972 103.164 849.468 103.164C851.492 103.164 853.01 102.888 854.022 102.336C855.126 101.784 855.678 101.002 855.678 99.99C855.678 98.518 854.896 97.414 853.332 96.678C851.86 95.85 849.882 95.16 847.398 94.608C845.006 93.964 842.476 93.228 839.808 92.4C837.14 91.48 834.564 90.284 832.08 88.812C829.596 87.34 827.572 85.27 826.008 82.602C824.536 79.934 823.8 76.53 823.8 72.39C823.8 68.066 824.95 64.294 827.25 61.074C829.642 57.762 832.954 55.186 837.186 53.346C841.418 51.414 846.386 50.448 852.09 50.448C857.886 50.448 863.406 51.46 868.65 53.484C873.894 55.416 878.126 58.36 881.346 62.316L868.098 75.702C865.89 73.218 863.452 71.516 860.784 70.596C858.116 69.584 855.678 69.078 853.47 69.078C851.354 69.078 849.836 69.4 848.916 70.044C847.996 70.596 847.536 71.378 847.536 72.39C847.536 73.586 848.272 74.552 849.744 75.288C851.308 76.024 853.286 76.714 855.678 77.358C858.162 77.91 860.692 78.646 863.268 79.566C865.936 80.486 868.466 81.774 870.858 83.43C873.342 84.994 875.32 87.11 876.792 89.778C878.356 92.446 879.138 95.896 879.138 100.128C879.138 106.844 876.562 112.18 871.41 116.136C866.258 120 859.358 121.932 850.71 121.932Z"/>
</mask>
<path d="M786.9 120H785.9V121H786.9V120ZM786.9 52.518V51.518H785.9V52.518H786.9ZM811.05 52.518H812.05V51.518H811.05V52.518ZM811.05 120V121H812.05V120H811.05ZM789.936 41.064L789.216 41.7576L789.222 41.7644L789.229 41.7711L789.936 41.064ZM808.014 22.71L807.28 23.3894L807.287 23.3966L807.294 23.4036L808.014 22.71ZM808.014 41.064L807.294 40.3704L807.293 40.3709L808.014 41.064ZM787.9 120V52.518H785.9V120H787.9ZM786.9 53.518L811.05 53.518V51.518L786.9 51.518V53.518ZM810.05 52.518V120H812.05V52.518H810.05ZM811.05 119H786.9V121H811.05V119ZM798.906 43.652C795.565 43.652 792.835 42.5491 790.643 40.3569L789.229 41.7711C791.821 44.3629 795.071 45.652 798.906 45.652V43.652ZM790.656 40.3704C788.457 38.086 787.348 35.2584 787.348 31.818H785.348C785.348 35.7375 786.631 39.074 789.216 41.7576L790.656 40.3704ZM787.348 31.818C787.348 28.4771 788.452 25.6931 790.656 23.4036L789.216 22.0164C786.636 24.6949 785.348 27.9829 785.348 31.818H787.348ZM790.656 23.4036C792.851 21.1241 795.577 19.984 798.906 19.984V17.984C795.059 17.984 791.805 19.3279 789.216 22.0164L790.656 23.4036ZM798.906 19.984C802.435 19.984 805.192 21.1343 807.28 23.3894L808.748 22.0306C806.236 19.3177 802.921 17.984 798.906 17.984V19.984ZM807.294 23.4036C809.498 25.6931 810.602 28.4771 810.602 31.818H812.602C812.602 27.9829 811.314 24.6949 808.734 22.0164L807.294 23.4036ZM810.602 31.818C810.602 35.2584 809.493 38.086 807.294 40.3704L808.734 41.7576C811.319 39.074 812.602 35.7375 812.602 31.818H810.602ZM807.293 40.3709C805.208 42.5393 802.447 43.652 798.906 43.652V45.652C802.909 45.652 806.22 44.3727 808.735 41.7571L807.293 40.3709ZM838.428 120.276L838.159 121.239L838.165 121.241L838.428 120.276ZM827.25 115.86L826.756 116.73L826.77 116.738L826.784 116.745L827.25 115.86ZM818.556 109.236L817.841 108.536L817.162 109.23L817.836 109.93L818.556 109.236ZM831.666 95.85L832.387 95.1575L831.673 94.4135L830.951 95.1503L831.666 95.85ZM839.532 101.232L839.141 102.153L839.151 102.157L839.532 101.232ZM854.022 102.336L853.575 101.442L853.559 101.45L853.543 101.458L854.022 102.336ZM853.332 96.678L852.842 97.5496L852.873 97.5674L852.906 97.5828L853.332 96.678ZM847.398 94.608L847.138 95.5736L847.159 95.5794L847.181 95.5842L847.398 94.608ZM839.808 92.4L839.482 93.3454L839.497 93.3504L839.512 93.3551L839.808 92.4ZM826.008 82.602L825.132 83.0851L825.139 83.0965L825.145 83.1077L826.008 82.602ZM827.25 61.074L826.439 60.4885L826.436 60.4928L827.25 61.074ZM837.186 53.346L837.585 54.2631L837.593 54.2595L837.601 54.2557L837.186 53.346ZM868.65 53.484L868.29 54.4169L868.297 54.4197L868.304 54.4223L868.65 53.484ZM881.346 62.316L882.057 63.0194L882.688 62.3812L882.121 61.6847L881.346 62.316ZM868.098 75.702L867.35 76.3664L868.059 77.1632L868.809 76.4054L868.098 75.702ZM860.784 70.596L860.429 71.531L860.444 71.5364L860.458 71.5414L860.784 70.596ZM848.916 70.044L849.43 70.9015L849.461 70.8834L849.489 70.8632L848.916 70.044ZM849.744 75.288L849.297 76.1824L849.307 76.1878L849.318 76.1928L849.744 75.288ZM855.678 77.358L855.418 78.3236L855.439 78.3294L855.461 78.3342L855.678 77.358ZM863.268 79.566L862.932 80.5078L862.942 80.5114L863.268 79.566ZM870.858 83.43L870.289 84.2522L870.307 84.2646L870.325 84.2762L870.858 83.43ZM876.792 89.778L875.916 90.2611L875.923 90.2725L875.929 90.2837L876.792 89.778ZM871.41 116.136L872.01 116.936L872.019 116.929L871.41 116.136ZM850.71 120.932C846.66 120.932 842.654 120.392 838.691 119.311L838.165 121.241C842.297 122.368 846.48 122.932 850.71 122.932V120.932ZM838.697 119.313C834.806 118.227 831.147 116.781 827.716 114.975L826.784 116.745C830.345 118.619 834.138 120.117 838.159 121.239L838.697 119.313ZM827.744 114.99C824.412 113.099 821.593 110.948 819.276 108.542L817.836 109.93C820.303 112.492 823.28 114.757 826.756 116.73L827.744 114.99ZM819.27 109.936L832.38 96.5497L830.951 95.1503L817.841 108.536L819.27 109.936ZM830.945 96.5425C833.249 98.9435 835.985 100.814 839.141 102.153L839.922 100.311C837.007 99.0744 834.498 97.3565 832.387 95.1575L830.945 96.5425ZM839.151 102.157C842.404 103.496 845.846 104.164 849.468 104.164V102.164C846.098 102.164 842.916 101.544 839.913 100.307L839.151 102.157ZM849.468 104.164C851.55 104.164 853.269 103.886 854.501 103.214L853.543 101.458C852.751 101.89 851.434 102.164 849.468 102.164V104.164ZM854.469 103.23C855.127 102.901 855.686 102.471 856.081 101.912C856.483 101.343 856.678 100.69 856.678 99.99H854.678C854.678 100.302 854.597 100.546 854.447 100.759C854.29 100.982 854.021 101.219 853.575 101.442L854.469 103.23ZM856.678 99.99C856.678 99.0661 856.429 98.216 855.907 97.48C855.393 96.7533 854.653 96.1947 853.758 95.7732L852.906 97.5828C853.574 97.8973 854.008 98.2587 854.275 98.636C854.536 99.004 854.678 99.4419 854.678 99.99H856.678ZM853.822 95.8064C852.233 94.9126 850.151 94.1955 847.615 93.6318L847.181 95.5842C849.613 96.1245 851.487 96.7874 852.842 97.5496L853.822 95.8064ZM847.658 93.6424C845.28 93.0021 842.762 92.2697 840.104 91.4449L839.512 93.3551C842.19 94.1863 844.732 94.9259 847.138 95.5736L847.658 93.6424ZM840.134 91.4546C837.531 90.5572 835.017 89.39 832.59 87.9517L831.57 89.6723C834.111 91.178 836.748 92.4028 839.482 93.3454L840.134 91.4546ZM832.59 87.9517C830.262 86.5722 828.355 84.6288 826.871 82.0963L825.145 83.1077C826.789 85.9112 828.93 88.1078 831.57 89.6723L832.59 87.9517ZM826.883 82.1189C825.517 79.6424 824.8 76.419 824.8 72.39L822.8 72.39C822.8 76.641 823.555 80.2256 825.132 83.0851L826.883 82.1189ZM824.8 72.39C824.8 68.2541 825.896 64.6898 828.064 61.6552L826.436 60.4928C824.004 63.8982 822.8 67.8779 822.8 72.39L824.8 72.39ZM828.061 61.6595C830.334 58.5111 833.495 56.041 837.585 54.2631L836.787 52.4289C832.412 54.331 828.949 57.0129 826.439 60.4885L828.061 61.6595ZM837.601 54.2557C841.677 52.3951 846.498 51.448 852.09 51.448V49.448C846.274 49.448 841.159 50.4329 836.771 52.4363L837.601 54.2557ZM852.09 51.448C857.767 51.448 863.164 52.4386 868.29 54.4169L869.01 52.5511C863.648 50.4814 858.005 49.448 852.09 49.448V51.448ZM868.304 54.4223C873.397 56.2985 877.474 59.1434 880.57 62.9473L882.121 61.6847C878.778 57.5766 874.391 54.5335 868.996 52.5457L868.304 54.4223ZM880.635 61.6126L867.387 74.9986L868.809 76.4054L882.057 63.0194L880.635 61.6126ZM868.845 75.0376C866.544 72.4482 863.967 70.6358 861.11 69.6506L860.458 71.5414C862.937 72.3962 865.236 73.9878 867.35 76.3664L868.845 75.0376ZM861.139 69.661C858.389 68.618 855.829 68.078 853.47 68.078V70.078C855.527 70.078 857.843 70.55 860.429 71.531L861.139 69.661ZM853.47 68.078C851.304 68.078 849.524 68.3978 848.342 69.2248L849.489 70.8632C850.148 70.4022 851.404 70.078 853.47 70.078V68.078ZM848.401 69.1865C847.202 69.906 846.536 71.0018 846.536 72.39H848.536C848.536 71.7542 848.79 71.286 849.43 70.9015L848.401 69.1865ZM846.536 72.39C846.536 74.1053 847.633 75.3507 849.297 76.1824L850.191 74.3936C848.911 73.7533 848.536 73.0667 848.536 72.39H846.536ZM849.318 76.1928C850.953 76.9621 852.991 77.6703 855.418 78.3236L855.938 76.3924C853.581 75.7577 851.663 75.0859 850.17 74.3832L849.318 76.1928ZM855.461 78.3342C857.902 78.8765 860.392 79.6007 862.932 80.5077L863.604 78.6243C860.992 77.6913 858.422 76.9434 855.895 76.3818L855.461 78.3342ZM862.942 80.5114C865.521 81.4007 867.969 82.6465 870.289 84.2522L871.427 82.6078C868.962 80.9015 866.351 79.5713 863.594 78.6206L862.942 80.5114ZM870.325 84.2762C872.66 85.7466 874.523 87.7353 875.916 90.2611L877.667 89.2949C876.117 86.4847 874.023 84.2414 871.391 82.5838L870.325 84.2762ZM875.929 90.2837C877.376 92.752 878.138 96.0109 878.138 100.128H880.138C880.138 95.781 879.336 92.14 877.655 89.2723L875.929 90.2837ZM878.138 100.128C878.138 106.546 875.697 111.584 870.801 115.343L872.019 116.929C877.427 112.776 880.138 107.142 880.138 100.128H878.138ZM870.81 115.336C865.882 119.032 859.215 120.932 850.71 120.932V122.932C859.501 122.932 866.634 120.968 872.01 116.936L870.81 115.336Z" fill="#666666" mask="url(#path-17-outside-1_617_69)"/>
<mask id="path-19-outside-2_617_69" maskUnits="userSpaceOnUse" x="22" y="169" width="205" height="107" fill="black">
<rect fill="white" x="22" y="169" width="205" height="107"/>
<path d="M38.318 273L38.318 201.24C38.318 195.536 39.56 190.43 42.044 185.922C44.528 181.322 48.07 177.642 52.67 174.882C57.362 172.122 62.974 170.742 69.506 170.742C74.382 170.742 78.66 171.57 82.34 173.226C86.02 174.79 89.194 176.906 91.862 179.574L76.82 194.616C76.084 193.788 75.164 193.19 74.06 192.822C73.048 192.362 71.852 192.132 70.472 192.132C67.988 192.132 66.01 192.868 64.538 194.34C63.066 195.812 62.33 197.79 62.33 200.274L62.33 273H38.318ZM23.966 225.528L23.966 205.518H81.374L81.374 225.528H23.966ZM123.132 274.518C115.864 274.518 109.378 273 103.674 269.964C98.0619 266.836 93.5999 262.604 90.2879 257.268C86.9759 251.84 85.3199 245.768 85.3199 239.052C85.3199 232.336 86.9299 226.356 90.1499 221.112C93.4619 215.776 97.9699 211.59 103.674 208.554C109.378 205.426 115.818 203.862 122.994 203.862C130.17 203.862 136.564 205.426 142.176 208.554C147.88 211.59 152.388 215.776 155.7 221.112C159.012 226.356 160.668 232.336 160.668 239.052C160.668 245.768 159.012 251.84 155.7 257.268C152.48 262.604 148.018 266.836 142.314 269.964C136.702 273 130.308 274.518 123.132 274.518ZM122.994 253.128C125.662 253.128 127.962 252.576 129.894 251.472C131.918 250.276 133.482 248.62 134.586 246.504C135.69 244.388 136.242 241.95 136.242 239.19C136.242 236.43 135.644 234.038 134.448 232.014C133.344 229.898 131.826 228.288 129.894 227.184C127.962 225.988 125.662 225.39 122.994 225.39C120.418 225.39 118.118 225.988 116.094 227.184C114.07 228.38 112.506 230.036 111.402 232.152C110.298 234.176 109.746 236.568 109.746 239.328C109.746 241.996 110.298 244.388 111.402 246.504C112.506 248.62 114.07 250.276 116.094 251.472C118.118 252.576 120.418 253.128 122.994 253.128ZM170.194 273L170.194 205.518H194.206L194.206 273H170.194ZM194.206 236.292L183.442 227.184C186.11 219.548 189.652 213.798 194.068 209.934C198.484 206.07 204.234 204.138 211.318 204.138C214.538 204.138 217.298 204.552 219.598 205.38C221.99 206.208 224.014 207.496 225.67 209.244L211.732 227.874C210.996 227.046 209.938 226.402 208.558 225.942C207.27 225.39 205.798 225.114 204.142 225.114C201.014 225.114 198.576 226.08 196.828 228.012C195.08 229.852 194.206 232.612 194.206 236.292Z"/>
</mask>
<path d="M38.318 273H37.318V274H38.318V273ZM42.044 185.922L42.9199 186.405L42.9239 186.397L42.044 185.922ZM52.67 174.882L52.163 174.02L52.1555 174.025L52.67 174.882ZM82.34 173.226L81.9296 174.138L81.9392 174.142L81.9489 174.146L82.34 173.226ZM91.862 179.574L92.5691 180.281L93.2762 179.574L92.5691 178.867L91.862 179.574ZM76.82 194.616L76.0726 195.28L76.7772 196.073L77.5271 195.323L76.82 194.616ZM74.06 192.822L73.6462 193.732L73.694 193.754L73.7438 193.771L74.06 192.822ZM64.538 194.34L63.8309 193.633L64.538 194.34ZM62.33 273V274H63.33V273H62.33ZM23.966 225.528H22.966V226.528H23.966V225.528ZM23.966 205.518V204.518H22.966V205.518H23.966ZM81.374 205.518H82.374V204.518H81.374V205.518ZM81.374 225.528V226.528H82.374V225.528H81.374ZM39.318 273L39.318 201.24H37.318L37.318 273H39.318ZM39.318 201.24C39.318 195.686 40.5258 190.749 42.9198 186.405L41.1682 185.439C38.5942 190.111 37.318 195.386 37.318 201.24H39.318ZM42.9239 186.397C45.3203 181.959 48.7342 178.41 53.1845 175.739L52.1555 174.025C47.4058 176.874 43.7357 180.685 41.1641 185.447L42.9239 186.397ZM53.177 175.744C57.6872 173.091 63.1166 171.742 69.506 171.742V169.742C62.8315 169.742 57.0368 171.153 52.163 174.02L53.177 175.744ZM69.506 171.742C74.2694 171.742 78.4026 172.551 81.9296 174.138L82.7504 172.314C78.9174 170.589 74.4946 169.742 69.506 169.742V171.742ZM81.9489 174.146C85.518 175.663 88.5829 177.709 91.1549 180.281L92.5691 178.867C89.8051 176.103 86.522 173.917 82.7311 172.306L81.9489 174.146ZM91.1549 178.867L76.1129 193.909L77.5271 195.323L92.5691 180.281L91.1549 178.867ZM77.5674 193.952C76.7091 192.986 75.6377 192.294 74.3762 191.873L73.7438 193.771C74.6903 194.086 75.4589 194.59 76.0726 195.28L77.5674 193.952ZM74.4738 191.912C73.3044 191.38 71.9612 191.132 70.472 191.132V193.132C71.7428 193.132 72.7916 193.344 73.6462 193.732L74.4738 191.912ZM70.472 191.132C67.7777 191.132 65.526 191.938 63.8309 193.633L65.2451 195.047C66.494 193.798 68.1983 193.132 70.472 193.132V191.132ZM63.8309 193.633C62.1358 195.328 61.33 197.58 61.33 200.274H63.33C63.33 198 63.9962 196.296 65.2451 195.047L63.8309 193.633ZM61.33 200.274L61.33 273H63.33L63.33 200.274H61.33ZM62.33 272H38.318V274H62.33V272ZM24.966 225.528L24.966 205.518H22.966L22.966 225.528H24.966ZM23.966 206.518H81.374V204.518H23.966V206.518ZM80.374 205.518L80.374 225.528H82.374L82.374 205.518H80.374ZM81.374 224.528H23.966V226.528H81.374V224.528ZM103.674 269.964L103.187 270.837L103.196 270.842L103.204 270.847L103.674 269.964ZM90.2879 257.268L89.4343 257.789L89.4383 257.795L90.2879 257.268ZM90.1499 221.112L89.3003 220.585L89.2978 220.589L90.1499 221.112ZM103.674 208.554L104.144 209.437L104.155 209.431L103.674 208.554ZM142.176 208.554L141.689 209.427L141.698 209.432L141.706 209.437L142.176 208.554ZM155.7 221.112L154.85 221.639L154.854 221.646L155.7 221.112ZM155.7 257.268L154.846 256.747L154.844 256.751L155.7 257.268ZM142.314 269.964L142.79 270.844L142.795 270.841L142.314 269.964ZM129.894 251.472L130.39 252.34L130.396 252.337L130.403 252.333L129.894 251.472ZM134.586 246.504L135.473 246.967L134.586 246.504ZM134.448 232.014L133.561 232.477L133.574 232.5L133.587 232.523L134.448 232.014ZM129.894 227.184L129.368 228.034L129.383 228.044L129.398 228.052L129.894 227.184ZM111.402 232.152L112.28 232.631L112.284 232.623L112.289 232.615L111.402 232.152ZM111.402 246.504L112.289 246.041H112.289L111.402 246.504ZM116.094 251.472L115.585 252.333L115.6 252.342L115.615 252.35L116.094 251.472ZM123.132 273.518C116.007 273.518 109.686 272.031 104.144 269.081L103.204 270.847C109.07 273.969 115.721 275.518 123.132 275.518V273.518ZM104.161 269.091C98.6936 266.043 94.3579 261.929 91.1376 256.741L89.4383 257.795C92.842 263.279 97.4303 267.629 103.187 270.837L104.161 269.091ZM91.1416 256.747C87.9308 251.485 86.3199 245.595 86.3199 239.052H84.3199C84.3199 245.941 86.0211 252.195 89.4343 257.789L91.1416 256.747ZM86.3199 239.052C86.3199 232.503 87.8875 226.708 91.0021 221.635L89.2978 220.589C85.9724 226.004 84.3199 232.169 84.3199 239.052H86.3199ZM90.9996 221.639C94.2158 216.458 98.5908 212.392 104.144 209.437L103.204 207.671C97.3491 210.788 92.7081 215.094 89.3003 220.585L90.9996 221.639ZM104.155 209.431C109.697 206.392 115.968 204.862 122.994 204.862V202.862C115.668 202.862 109.059 204.46 103.193 207.677L104.155 209.431ZM122.994 204.862C130.02 204.862 136.243 206.392 141.689 209.427L142.663 207.681C136.885 204.46 130.32 202.862 122.994 202.862V204.862ZM141.706 209.437C147.259 212.392 151.634 216.458 154.85 221.639L156.55 220.585C153.142 215.094 148.501 210.788 142.646 207.671L141.706 209.437ZM154.854 221.646C158.057 226.717 159.668 232.509 159.668 239.052H161.668C161.668 232.163 159.967 225.995 156.545 220.578L154.854 221.646ZM159.668 239.052C159.668 245.595 158.057 251.485 154.846 256.747L156.554 257.789C159.967 252.195 161.668 245.941 161.668 239.052H159.668ZM154.844 256.751C151.719 261.93 147.389 266.04 141.833 269.087L142.795 270.841C148.646 267.632 153.241 263.278 156.556 257.785L154.844 256.751ZM141.838 269.084C136.39 272.032 130.163 273.518 123.132 273.518V275.518C130.453 275.518 137.014 273.968 142.79 270.844L141.838 269.084ZM122.994 254.128C125.801 254.128 128.28 253.546 130.39 252.34L129.398 250.604C127.644 251.606 125.523 252.128 122.994 252.128V254.128ZM130.403 252.333C132.59 251.04 134.284 249.245 135.473 246.967L133.699 246.041C132.68 247.995 131.246 249.512 129.385 250.611L130.403 252.333ZM135.473 246.967C136.662 244.687 137.242 242.086 137.242 239.19H135.242C135.242 241.814 134.718 244.089 133.699 246.041L135.473 246.967ZM137.242 239.19C137.242 236.282 136.611 233.708 135.309 231.505L133.587 232.523C134.677 234.368 135.242 236.578 135.242 239.19H137.242ZM135.335 231.551C134.149 229.278 132.501 227.522 130.39 226.316L129.398 228.052C131.151 229.054 132.539 230.518 133.561 232.477L135.335 231.551ZM130.42 226.334C128.304 225.024 125.815 224.39 122.994 224.39V226.39C125.509 226.39 127.619 226.952 129.368 228.034L130.42 226.334ZM122.994 224.39C120.257 224.39 117.778 225.027 115.585 226.323L116.603 228.045C118.458 226.949 120.579 226.39 122.994 226.39V224.39ZM115.585 226.323C113.398 227.616 111.704 229.411 110.515 231.689L112.289 232.615C113.308 230.661 114.742 229.144 116.603 228.045L115.585 226.323ZM110.524 231.673C109.326 233.87 108.746 236.434 108.746 239.328H110.746C110.746 236.702 111.27 234.482 112.28 232.631L110.524 231.673ZM108.746 239.328C108.746 242.138 109.328 244.692 110.515 246.967L112.289 246.041C111.267 244.084 110.746 241.854 110.746 239.328H108.746ZM110.515 246.967C111.704 249.245 113.398 251.04 115.585 252.333L116.603 250.611C114.742 249.512 113.308 247.995 112.289 246.041L110.515 246.967ZM115.615 252.35C117.803 253.543 120.271 254.128 122.994 254.128V252.128C120.565 252.128 118.433 251.609 116.573 250.594L115.615 252.35ZM170.194 273H169.194V274H170.194V273ZM170.194 205.518V204.518H169.194V205.518H170.194ZM194.206 205.518H195.206V204.518H194.206V205.518ZM194.206 273V274H195.206V273H194.206ZM194.206 236.292L193.56 237.055L195.206 238.448V236.292H194.206ZM183.442 227.184L182.498 226.854L182.271 227.503L182.796 227.947L183.442 227.184ZM194.068 209.934L193.41 209.181L194.068 209.934ZM219.598 205.38L219.26 206.321L219.271 206.325L219.598 205.38ZM225.67 209.244L226.471 209.843L226.976 209.168L226.396 208.556L225.67 209.244ZM211.732 227.874L210.985 228.538L211.799 229.454L212.533 228.473L211.732 227.874ZM208.558 225.942L208.164 226.861L208.203 226.878L208.242 226.891L208.558 225.942ZM196.828 228.012L197.553 228.701L197.562 228.692L197.57 228.683L196.828 228.012ZM171.194 273L171.194 205.518H169.194L169.194 273H171.194ZM170.194 206.518H194.206V204.518H170.194V206.518ZM193.206 205.518L193.206 273H195.206L195.206 205.518H193.206ZM194.206 272H170.194V274H194.206V272ZM194.852 235.529L184.088 226.421L182.796 227.947L193.56 237.055L194.852 235.529ZM184.386 227.514C187.018 219.982 190.481 214.402 194.727 210.687L193.41 209.181C188.824 213.194 185.203 219.114 182.498 226.854L184.386 227.514ZM194.727 210.687C198.924 207.014 204.424 205.138 211.318 205.138V203.138C204.045 203.138 198.044 205.126 193.41 209.181L194.727 210.687ZM211.318 205.138C214.457 205.138 217.097 205.542 219.26 206.321L219.937 204.439C217.5 203.562 214.619 203.138 211.318 203.138V205.138ZM219.271 206.325C221.519 207.103 223.404 208.306 224.944 209.932L226.396 208.556C224.624 206.686 222.461 205.313 219.925 204.435L219.271 206.325ZM224.87 208.645L210.932 227.275L212.533 228.473L226.471 209.843L224.87 208.645ZM212.48 227.21C211.596 226.216 210.37 225.492 208.874 224.993L208.242 226.891C209.506 227.312 210.396 227.876 210.985 228.538L212.48 227.21ZM208.952 225.023C207.519 224.409 205.909 224.114 204.142 224.114V226.114C205.687 226.114 207.021 226.371 208.164 226.861L208.952 225.023ZM204.142 224.114C200.793 224.114 198.062 225.158 196.087 227.341L197.57 228.683C199.09 227.002 201.235 226.114 204.142 226.114V224.114ZM196.103 227.323C194.113 229.418 193.206 232.47 193.206 236.292H195.206C195.206 232.754 196.048 230.286 197.553 228.701L196.103 227.323Z" fill="#666666" mask="url(#path-19-outside-2_617_69)"/>
</svg>
