<svg width="666" height="280" viewBox="0 0 666 280" fill="none" xmlns="http://www.w3.org/2000/svg">
<path d="M85.188 229.118L137.6 229.205L142.066 208.184L89.6755 208.097L94.6423 184.853L152.021 184.94L156.64 163.265L99.2388 163.178H93.0957L73.1415 163.156L48.983 276.411L68.9589 276.433L75.102 276.455L133.331 276.542L137.971 254.715L79.7638 254.627L85.188 229.118Z" fill="#FED601" fill-opacity="0.3"/>
<path d="M201.341 254.408C198.488 255.519 195.416 256.086 192.083 256.086C188.532 256.086 185.482 255.28 182.956 253.668C180.407 252.056 178.642 249.877 177.618 247.089C176.595 244.3 176.486 241.098 177.248 237.46C178.011 233.822 179.514 230.642 181.692 227.919C183.87 225.196 186.55 223.061 189.709 221.514C192.867 219.968 196.266 219.205 199.925 219.205C203.149 219.205 205.894 219.706 208.181 220.665C210.469 221.623 212.342 223.126 213.802 225.174L233.451 209.468C230.227 205.285 226.219 202.148 221.404 200.057C216.59 197.966 211.013 196.92 204.696 196.898C196.266 196.898 188.293 198.641 180.777 202.148C173.262 205.656 166.879 210.492 161.629 216.635C156.379 222.778 152.937 229.749 151.26 237.569C149.582 245.39 150.083 252.23 152.632 258.438C155.181 264.647 159.472 269.526 165.485 273.055C171.497 276.606 178.664 278.371 186.986 278.393C193.521 278.393 199.686 277.303 205.48 275.125C211.275 272.947 216.721 269.722 221.862 265.453L209.075 249.703C206.744 251.729 204.173 253.297 201.319 254.43L201.341 254.408Z" fill="#FED601" fill-opacity="0.3"/>
<path d="M268.675 217.611C270.287 216.805 272.53 216.413 275.428 216.413C278.325 216.413 281.375 217.001 284.272 218.199C287.191 219.376 289.609 221.423 291.548 224.299L309.019 210.204C306.318 205.695 302.309 202.297 296.972 199.988C291.635 197.679 285.536 196.524 278.652 196.502C271.768 196.48 266.17 197.548 260.833 199.683C255.495 201.818 251.095 204.715 247.653 208.418C244.211 212.1 241.946 216.456 240.878 221.489C239.876 226.194 239.985 230.071 241.227 233.121C242.469 236.171 244.386 238.567 247.021 240.266C249.657 241.987 252.533 243.316 255.648 244.296C258.763 245.277 261.747 246.148 264.558 246.954C267.389 247.76 269.655 248.675 271.376 249.699C273.097 250.723 273.75 252.182 273.337 254.121C273.01 255.624 271.964 256.801 270.178 257.65C268.392 258.5 265.995 258.935 263.011 258.914C258.676 258.914 254.864 258.129 251.531 256.561C248.198 255.014 245.496 252.836 243.427 250.047L225.956 264.142C228.113 267.039 230.923 269.588 234.387 271.788C237.85 273.988 241.771 275.687 246.106 276.864C250.463 278.04 255.016 278.65 259.787 278.65C269.873 278.65 278.369 276.428 285.252 271.94C292.136 267.453 296.406 261.419 298.018 253.816C299.064 248.893 298.976 244.906 297.735 241.857C296.493 238.807 294.576 236.367 291.962 234.537C289.348 232.707 286.494 231.27 283.401 230.202C280.307 229.135 277.345 228.22 274.491 227.457C271.659 226.717 269.394 225.845 267.716 224.887C266.039 223.928 265.364 222.643 265.712 221.031C266.039 219.528 266.997 218.395 268.609 217.589L268.675 217.611Z" fill="#FED601" fill-opacity="0.3"/>
<path d="M367.401 166.641L341.935 166.598L335.074 198.86L316.775 198.816L312.331 219.685L330.63 219.707L318.452 276.825L343.896 276.868L356.073 219.751L374.372 219.773L378.816 198.925L360.517 198.882L367.401 166.641Z" fill="#FED601" fill-opacity="0.3"/>
<path d="M442.969 205.524C441.204 203.52 439.069 201.799 436.477 200.448C432.534 198.401 427.829 197.377 422.405 197.377C414.976 197.377 407.962 199.12 401.405 202.649C394.826 206.178 389.206 210.97 384.522 217.07C379.839 223.169 376.658 230.118 375.003 237.917C373.347 245.716 373.543 252.687 375.634 258.786C377.726 264.886 381.298 269.7 386.352 273.251C391.428 276.78 397.68 278.566 405.108 278.566C410.532 278.566 415.695 277.564 420.553 275.538C423.69 274.231 426.522 272.554 429.092 270.593L427.72 276.976L452.663 277.019L469.284 199.054L444.341 199.011L442.947 205.502L442.969 205.524ZM414.976 256.433C411.534 256.433 408.594 255.627 406.176 254.015C403.736 252.403 402.058 250.225 401.078 247.437C400.12 244.648 400.011 241.49 400.773 237.961C401.536 234.432 403.039 231.12 405.239 228.332C407.439 225.565 410.053 223.387 413.103 221.84C416.153 220.294 419.442 219.531 422.993 219.531C426.544 219.531 429.506 220.316 431.903 221.862C434.277 223.409 435.933 225.587 436.847 228.376C437.741 231.164 437.806 234.366 437.044 238.004C435.911 243.363 433.297 247.763 429.223 251.227C425.149 254.691 420.401 256.433 414.976 256.412V256.433Z" fill="#FED601" fill-opacity="0.3"/>
<path d="M531.064 166.901L505.62 166.857L498.737 199.098L480.438 199.076L475.994 219.923L494.293 219.967L482.115 277.063L507.581 277.106L519.736 219.989L538.035 220.032L542.479 199.163L524.18 199.141L531.064 166.901Z" fill="#FED601" fill-opacity="0.3"/>
<path d="M574.479 161.502C570.492 161.502 566.92 162.765 563.761 165.336C560.602 167.906 558.62 171.109 557.792 174.964C556.964 178.82 557.618 181.892 559.666 184.506C561.713 187.142 564.741 188.449 568.728 188.449C572.714 188.449 576.265 187.142 579.38 184.528C582.495 181.914 584.434 178.733 585.24 174.986C586.046 171.239 585.458 167.928 583.476 165.358C581.472 162.787 578.465 161.502 574.479 161.502Z" fill="#FED601" fill-opacity="0.3"/>
<path d="M537.011 277.151L562.454 277.194L579.076 199.229L553.632 199.186L537.011 277.151Z" fill="#FED601" fill-opacity="0.3"/>
<path d="M641.225 250.353C638.894 252.379 636.324 253.947 633.47 255.08C630.617 256.191 627.545 256.758 624.212 256.758C620.661 256.758 617.611 255.952 615.084 254.34C612.536 252.727 610.771 250.549 609.748 247.761C608.724 244.972 608.615 241.77 609.377 238.132C610.14 234.494 611.643 231.314 613.821 228.591C616 225.868 618.679 223.733 621.838 222.186C624.996 220.64 628.395 219.877 632.054 219.877C635.278 219.877 638.023 220.378 640.31 221.337C642.598 222.295 644.471 223.798 645.931 225.846L665.58 210.14C662.356 205.957 658.348 202.82 653.533 200.729C648.719 198.638 643.142 197.592 636.825 197.57C628.395 197.57 620.422 199.313 612.906 202.82C605.391 206.328 599.008 211.164 593.758 217.307C588.508 223.45 585.066 230.421 583.389 238.241C581.711 246.062 582.212 252.902 584.761 259.11C587.31 265.319 591.601 270.198 597.614 273.727C603.626 277.278 610.793 279.043 619.115 279.064C625.65 279.064 631.815 277.975 637.609 275.797C643.404 273.618 648.85 270.394 653.991 266.125L641.204 250.375L641.225 250.353Z" fill="#FED601" fill-opacity="0.3"/>
<path d="M78.6493 222.579L131.062 222.666L135.527 201.645L83.1368 201.558L88.1035 178.314L145.483 178.401L150.101 156.726L92.7 156.639H86.5569L66.6027 156.617L42.4442 269.872L62.4201 269.894L68.5633 269.916L126.792 270.003L131.432 248.176L73.2251 248.088L78.6493 222.579Z" fill="#FED601"/>
<path d="M194.803 247.869C191.949 248.98 188.877 249.547 185.544 249.547C181.994 249.547 178.944 248.741 176.417 247.129C173.868 245.517 172.104 243.338 171.08 240.55C170.056 237.761 169.947 234.559 170.709 230.921C171.472 227.283 172.975 224.103 175.153 221.38C177.332 218.657 180.011 216.522 183.17 214.975C186.329 213.429 189.727 212.666 193.387 212.666C196.611 212.666 199.355 213.167 201.643 214.126C203.93 215.084 205.803 216.587 207.263 218.635L226.912 202.929C223.688 198.746 219.68 195.609 214.866 193.518C210.051 191.427 204.475 190.381 198.157 190.359C189.727 190.359 181.754 192.102 174.238 195.609C166.723 199.117 160.34 203.953 155.09 210.096C149.84 216.239 146.398 223.21 144.721 231.03C143.044 238.851 143.545 245.691 146.093 251.899C148.642 258.108 152.934 262.987 158.946 266.516C164.958 270.067 172.125 271.832 180.447 271.853C186.982 271.853 193.147 270.764 198.942 268.586C204.736 266.407 210.182 263.183 215.323 258.914L202.536 243.164C200.205 245.19 197.634 246.758 194.781 247.891L194.803 247.869Z" fill="#FED601"/>
<path d="M262.136 211.072C263.748 210.266 265.992 209.874 268.889 209.874C271.786 209.874 274.836 210.462 277.733 211.66C280.652 212.836 283.07 214.884 285.009 217.76L302.48 203.665C299.779 199.156 295.771 195.758 290.433 193.449C285.096 191.14 278.997 189.985 272.113 189.963C265.229 189.941 259.631 191.009 254.294 193.144C248.957 195.279 244.556 198.176 241.114 201.879C237.672 205.561 235.407 209.917 234.34 214.95C233.337 219.655 233.446 223.532 234.688 226.582C235.93 229.632 237.847 232.028 240.483 233.727C243.119 235.448 245.994 236.777 249.109 237.757C252.224 238.738 255.209 239.609 258.019 240.415C260.851 241.221 263.116 242.136 264.837 243.16C266.558 244.184 267.212 245.643 266.798 247.582C266.471 249.085 265.425 250.261 263.639 251.111C261.853 251.961 259.457 252.396 256.472 252.375C252.137 252.375 248.325 251.59 244.992 250.022C241.659 248.475 238.958 246.297 236.888 243.508L219.417 257.603C221.574 260.5 224.384 263.049 227.848 265.249C231.312 267.449 235.233 269.148 239.568 270.325C243.925 271.501 248.477 272.111 253.248 272.111C263.334 272.111 271.83 269.889 278.714 265.401C285.597 260.914 289.867 254.88 291.479 247.277C292.525 242.354 292.438 238.367 291.196 235.318C289.954 232.268 288.037 229.828 285.423 227.998C282.809 226.168 279.955 224.731 276.862 223.663C273.769 222.596 270.806 221.681 267.952 220.918C265.12 220.178 262.855 219.306 261.178 218.348C259.5 217.389 258.825 216.104 259.173 214.492C259.5 212.989 260.459 211.856 262.071 211.05L262.136 211.072Z" fill="#FED601"/>
<path d="M360.862 160.102L335.396 160.059L328.534 192.321L310.236 192.277L305.792 213.146L324.091 213.168L311.913 270.286L337.357 270.329L349.534 213.212L367.833 213.233L372.277 192.386L353.978 192.343L360.862 160.102Z" fill="#FED601"/>
<path d="M436.43 198.985C434.666 196.981 432.531 195.26 429.938 193.909C425.996 191.862 421.29 190.838 415.866 190.838C408.438 190.838 401.423 192.581 394.866 196.11C388.287 199.639 382.667 204.431 377.983 210.531C373.3 216.63 370.119 223.579 368.464 231.378C366.808 239.177 367.004 246.148 369.096 252.247C371.187 258.347 374.759 263.161 379.813 266.712C384.889 270.241 391.141 272.027 398.569 272.027C403.994 272.027 409.156 271.025 414.014 268.999C417.151 267.692 419.983 266.015 422.554 264.054L421.181 270.437L446.124 270.48L462.745 192.515L437.802 192.472L436.408 198.963L436.43 198.985ZM408.438 249.894C404.996 249.894 402.055 249.088 399.637 247.476C397.197 245.864 395.52 243.686 394.539 240.898C393.581 238.109 393.472 234.951 394.234 231.422C394.997 227.893 396.5 224.581 398.7 221.793C400.9 219.026 403.514 216.848 406.564 215.301C409.614 213.755 412.903 212.992 416.454 212.992C420.005 212.992 422.968 213.776 425.364 215.323C427.738 216.87 429.394 219.048 430.309 221.837C431.202 224.625 431.267 227.827 430.505 231.465C429.372 236.824 426.758 241.224 422.684 244.688C418.611 248.152 413.862 249.894 408.438 249.873V249.894Z" fill="#FED601"/>
<path d="M524.526 160.362L499.082 160.318L492.198 192.559L473.9 192.537L469.456 213.384L487.754 213.428L475.577 270.524L501.043 270.567L513.198 213.45L531.497 213.493L535.941 192.624L517.642 192.602L524.526 160.362Z" fill="#FED601"/>
<path d="M567.94 154.963C563.954 154.963 560.381 156.226 557.222 158.797C554.064 161.367 552.081 164.57 551.254 168.425C550.426 172.281 551.079 175.353 553.127 177.967C555.175 180.603 558.203 181.91 562.189 181.91C566.176 181.91 569.726 180.603 572.842 177.989C575.957 175.375 577.895 172.194 578.701 168.447C579.507 164.7 578.919 161.389 576.937 158.819C574.933 156.248 571.927 154.963 567.94 154.963Z" fill="#FED601"/>
<path d="M530.472 270.612L555.916 270.655L572.537 192.69L547.094 192.646L530.472 270.612Z" fill="#FED601"/>
<path d="M634.687 243.816C632.356 245.842 629.785 247.41 626.931 248.543C624.078 249.654 621.006 250.22 617.673 250.22C614.122 250.22 611.073 249.414 608.546 247.802C605.997 246.19 604.233 244.012 603.209 241.224C602.185 238.435 602.076 235.233 602.838 231.595C603.601 227.957 605.104 224.777 607.282 222.054C609.461 219.331 612.14 217.196 615.299 215.649C618.458 214.103 621.856 213.34 625.516 213.34C628.74 213.34 631.484 213.841 633.772 214.8C636.059 215.758 637.932 217.261 639.392 219.309L659.041 203.603C655.817 199.42 651.809 196.283 646.995 194.192C642.18 192.101 636.604 191.055 630.286 191.033C621.856 191.033 613.883 192.776 606.367 196.283C598.852 199.79 592.469 204.626 587.219 210.77C581.969 216.913 578.527 223.884 576.85 231.704C575.173 239.524 575.674 246.365 578.222 252.573C580.771 258.782 585.063 263.661 591.075 267.19C597.087 270.741 604.254 272.506 612.576 272.527C619.111 272.527 625.276 271.438 631.07 269.26C636.865 267.081 642.311 263.857 647.452 259.588L634.665 243.838L634.687 243.816Z" fill="#FED601"/>
<g filter="url(#filter0_f_891_409)">
<path d="M103.3 18.3189C97.919 15.4217 91.5145 13.9621 84.0861 13.9621L61.1258 13.9186H54.9609L35.0067 13.875L10.8918 127.13L37.0108 127.174L45.7898 85.9366L68.7502 85.9802C76.1785 85.9802 83.193 84.5424 89.8153 81.6016C96.4377 78.6825 102.058 74.5 106.698 69.1193C111.338 63.7169 114.453 57.3342 116.022 49.9494C117.59 42.5646 117.198 36.1818 114.867 30.7794C112.514 25.377 108.659 21.2162 103.3 18.3189ZM85.8289 58.9026C83.7594 61.3642 81.2542 63.2376 78.3134 64.5011C75.3725 65.7863 72.301 66.4181 69.0987 66.4181H49.9723L56.9868 33.5024H76.1132C79.3372 33.546 82.1256 34.1777 84.5218 35.463C86.9181 36.7483 88.6172 38.6216 89.6411 41.0832C90.6649 43.5448 90.8174 46.4857 90.0985 49.9058C89.3797 53.3259 87.9201 56.441 85.8506 58.8808L85.8289 58.9026Z" fill="#FED601" fill-opacity="0.3"/>
<path d="M113.015 127.285L138.481 127.329L155.08 49.3639L129.637 49.3203L113.015 127.285Z" fill="#FED601" fill-opacity="0.3"/>
<path d="M150.483 11.6523C146.497 11.6523 142.924 12.9158 139.766 15.4863C136.607 18.0568 134.625 21.2591 133.797 25.1149C132.969 28.9707 133.623 32.0422 135.67 34.6563C137.718 37.2922 140.746 38.5992 144.732 38.5992C148.719 38.5992 152.27 37.2922 155.385 34.6781C158.5 32.064 160.439 28.8835 161.245 25.1367C162.051 21.3898 161.463 18.0786 159.48 15.5081C157.476 12.9376 154.47 11.6523 150.483 11.6523Z" fill="#FED601" fill-opacity="0.3"/>
<path d="M253.065 49.5137L224.615 49.4701L191.068 84.3028L206.709 10.9342L181.243 10.8906L156.431 127.348L181.875 127.392L189.891 89.8142L208.168 127.435L238.099 127.479L215.662 86.2198L253.065 49.5137Z" fill="#FED601" fill-opacity="0.3"/>
<path d="M315.041 56.1121C313.276 54.108 311.141 52.387 308.549 51.0364C304.606 48.9887 299.901 47.9648 294.476 47.9648C287.048 47.9648 280.034 49.7076 273.477 53.2366C266.898 56.7656 261.278 61.5581 256.594 67.6576C251.91 73.7572 248.73 80.7063 247.074 88.5049C245.419 96.3036 245.615 103.275 247.706 109.374C249.797 115.474 253.37 120.288 258.424 123.839C263.5 127.368 269.752 129.154 277.18 129.154C282.604 129.154 287.767 128.152 292.625 126.126C295.762 124.819 298.594 123.142 301.164 121.181L299.792 127.564L324.735 127.607L341.356 49.6422L316.413 49.5986L315.019 56.0903L315.041 56.1121ZM287.048 107.021C283.606 107.021 280.665 106.215 278.247 104.603C275.808 102.991 274.13 100.813 273.15 98.0246C272.191 95.2362 272.083 92.0775 272.845 88.5485C273.607 85.0195 275.111 81.7083 277.311 78.92C279.511 76.1534 282.125 73.975 285.175 72.4283C288.225 70.8817 291.514 70.1192 295.065 70.1192C298.615 70.1192 301.578 70.9034 303.974 72.4501C306.349 73.9968 308.004 76.1752 308.919 78.9636C309.812 81.7519 309.878 84.9542 309.115 88.5921C307.983 93.951 305.369 98.3513 301.295 101.815C297.221 105.279 292.472 107.021 287.048 107V107.021Z" fill="#FED601" fill-opacity="0.3"/>
<path d="M395.772 105.496C392.918 106.607 389.847 107.174 386.514 107.174C382.963 107.174 379.913 106.368 377.386 104.756C374.838 103.144 373.073 100.965 372.049 98.1767C371.025 95.3884 370.916 92.1861 371.679 88.5482C372.441 84.9103 373.944 81.7298 376.123 79.0068C378.301 76.2838 380.981 74.1489 384.139 72.6023C387.298 71.0556 390.696 70.2932 394.356 70.2932C397.58 70.2932 400.325 70.7942 402.612 71.7527C404.9 72.7112 406.773 74.2143 408.232 76.262L427.882 60.5557C424.658 56.3732 420.649 53.2363 415.835 51.145C411.021 49.0537 405.444 48.0081 399.127 47.9863C390.696 47.9863 382.723 49.729 375.208 53.2363C367.692 56.7435 361.31 61.5796 356.06 67.7227C350.81 73.8658 347.368 80.8367 345.691 88.6571C344.013 96.4776 344.514 103.318 347.063 109.526C349.612 115.735 353.903 120.614 359.915 124.143C365.928 127.694 373.095 129.459 381.416 129.48C387.952 129.48 394.116 128.391 399.911 126.213C405.706 124.034 411.152 120.81 416.293 116.541L403.505 100.791C401.174 102.817 398.604 104.385 395.75 105.518L395.772 105.496Z" fill="#FED601" fill-opacity="0.3"/>
<path d="M505.259 52.0626C501.033 49.5357 495.761 48.2722 489.422 48.2722C483.083 48.2722 477.462 49.5139 472.147 52.0191C469.947 53.0429 467.943 54.3064 466.048 55.7006L475.502 11.3483L450.058 11.3047L425.246 127.784L450.69 127.828L460.166 83.3881C460.732 80.7087 461.843 78.3342 463.521 76.243C465.176 74.1517 467.18 72.5614 469.533 71.4287C471.886 70.3177 474.434 69.7513 477.223 69.7513C481.209 69.7513 484.237 71.0148 486.307 73.5417C488.376 76.0687 488.986 79.3581 488.115 83.4099L478.639 127.849L504.083 127.893L514.713 78.0075C515.977 72.1258 515.759 66.9629 514.103 62.519C512.448 58.0751 509.485 54.5896 505.259 52.0844V52.0626Z" fill="#FED601" fill-opacity="0.3"/>
<path d="M575.643 94.9335C574.772 99.0072 572.985 102.188 570.284 104.475C567.583 106.762 564.337 107.917 560.569 107.917C557.911 107.917 555.754 107.372 554.099 106.305C552.443 105.237 551.354 103.734 550.809 101.796C550.265 99.8785 550.286 97.5694 550.875 94.89L560.438 49.9713L534.994 49.9277L525.344 95.1732C523.906 101.904 524.233 107.873 526.346 113.058C528.459 118.242 532.053 122.316 537.129 125.279C542.205 128.22 548.478 129.701 555.907 129.723C563.335 129.744 570.197 128.263 576.471 125.344C582.745 122.403 588.06 118.351 592.373 113.167C596.686 107.982 599.584 101.97 601.043 95.1296L610.65 50.0584L585.206 50.0149L575.643 94.9335Z" fill="#FED601" fill-opacity="0.3"/>
</g>
<path d="M92.4079 7.4283C87.0273 4.53103 80.6227 3.0715 73.1944 3.0715L50.234 3.02795H44.0691L24.1149 2.98438L0 116.24L26.1191 116.283L34.898 75.046L57.8584 75.0895C65.2868 75.0895 72.3012 73.6518 78.9236 70.711C85.5459 67.7919 91.1662 63.6094 95.8062 58.2287C100.446 52.8263 103.561 46.4435 105.13 39.0587C106.698 31.674 106.306 25.2912 103.975 19.8888C101.623 14.4863 97.7668 10.3256 92.4079 7.4283ZM74.9371 48.012C72.8676 50.4736 70.3625 52.347 67.4216 53.6105C64.4808 54.8957 61.4092 55.5275 58.207 55.5275H39.0806L46.095 22.6118H65.2214C68.4455 22.6554 71.2338 23.2871 73.6301 24.5724C76.0263 25.8576 77.7255 27.731 78.7493 30.1926C79.7732 32.6542 79.9257 35.5951 79.2068 39.0152C78.4879 42.4353 77.0284 45.5504 74.9589 47.9902L74.9371 48.012Z" fill="#FED601"/>
<path d="M102.124 116.395L127.589 116.438L144.189 38.4732L118.745 38.4297L102.124 116.395Z" fill="#FED601"/>
<path d="M139.592 0.761719C135.605 0.761719 132.033 2.02518 128.874 4.5957C125.715 7.16621 123.733 10.3685 122.905 14.2243C122.077 18.08 122.731 21.1516 124.779 23.7657C126.826 26.4015 129.854 27.7086 133.841 27.7086C137.827 27.7086 141.378 26.4016 144.493 23.7875C147.608 21.1734 149.547 17.9929 150.353 14.246C151.159 10.4992 150.571 7.18802 148.588 4.6175C146.584 2.04699 143.578 0.761719 139.592 0.761719Z" fill="#FED601"/>
<path d="M242.173 38.6231L213.723 38.5795L180.176 73.4122L195.817 0.0435442L170.351 0L145.539 116.457L170.983 116.501L178.999 78.9236L197.276 116.545L227.208 116.588L204.77 75.3292L242.173 38.6231Z" fill="#FED601"/>
<path d="M304.149 45.2215C302.384 43.2173 300.25 41.4964 297.657 40.1458C293.714 38.0981 289.009 37.0742 283.585 37.0742C276.156 37.0742 269.142 38.8169 262.585 42.346C256.006 45.875 250.386 50.6675 245.702 56.767C241.019 62.8665 237.838 69.8156 236.183 77.6143C234.527 85.413 234.723 92.3839 236.814 98.4834C238.906 104.583 242.478 109.397 247.532 112.948C252.608 116.477 258.86 118.263 266.288 118.263C271.712 118.263 276.875 117.261 281.733 115.235C284.87 113.928 287.702 112.251 290.272 110.29L288.9 116.673L313.843 116.717L330.464 38.7516L305.521 38.708L304.127 45.1997L304.149 45.2215ZM276.156 96.1307C272.714 96.1307 269.774 95.3247 267.356 93.7127C264.916 92.1007 263.238 89.9223 262.258 87.134C261.3 84.3456 261.191 81.1869 261.953 77.6579C262.716 74.1289 264.219 70.8177 266.419 68.0294C268.619 65.2628 271.233 63.0844 274.283 61.5377C277.333 59.9911 280.622 59.2286 284.173 59.2286C287.724 59.2286 290.686 60.0128 293.083 61.5595C295.457 63.1062 297.113 65.2846 298.028 68.0729C298.921 70.8613 298.986 74.0635 298.224 77.7015C297.091 83.0603 294.477 87.4607 290.403 90.9244C286.33 94.388 281.581 96.1308 276.156 96.109V96.1307Z" fill="#FED601"/>
<path d="M384.88 94.6056C382.027 95.7165 378.955 96.2829 375.622 96.2829C372.071 96.2829 369.022 95.4769 366.495 93.8649C363.946 92.2529 362.181 90.0745 361.157 87.2861C360.134 84.4978 360.025 81.2955 360.787 77.6576C361.55 74.0196 363.053 70.8392 365.231 68.1162C367.409 65.3932 370.089 63.2583 373.248 61.7116C376.406 60.165 379.805 59.4025 383.464 59.4025C386.688 59.4025 389.433 59.9036 391.72 60.8621C394.008 61.8206 395.881 63.3237 397.341 65.3714L416.99 49.6651C413.766 45.4825 409.758 42.3457 404.943 40.2544C400.129 38.1631 394.552 37.1175 388.235 37.0957C379.805 37.0957 371.832 38.8384 364.316 42.3456C356.801 45.8529 350.418 50.6889 345.168 56.832C339.918 62.9751 336.476 69.946 334.799 77.7665C333.121 85.587 333.622 92.4272 336.171 98.6356C338.72 104.844 343.011 109.724 349.024 113.253C355.036 116.803 362.203 118.568 370.525 118.59C377.06 118.59 383.225 117.501 389.019 115.322C394.814 113.144 400.26 109.92 405.401 105.65L392.614 89.9002C390.283 91.9261 387.712 93.4946 384.858 94.6273L384.88 94.6056Z" fill="#FED601"/>
<path d="M494.367 41.1701C490.141 38.6431 484.869 37.3796 478.53 37.3796C472.191 37.3796 466.571 38.6213 461.255 41.1265C459.055 42.1503 457.051 43.4138 455.156 44.808L464.61 0.455687L439.166 0.412109L414.354 116.891L439.798 116.935L449.274 72.4955C449.841 69.8161 450.952 67.4416 452.629 65.3504C454.285 63.2591 456.289 61.6689 458.641 60.5361C460.994 59.4251 463.543 58.8587 466.331 58.8587C470.318 58.8587 473.346 60.1222 475.415 62.6491C477.485 65.1761 478.094 68.4655 477.223 72.5173L467.747 116.957L493.191 117L503.821 67.1149C505.085 61.2332 504.867 56.0704 503.211 51.6264C501.556 47.1825 498.593 43.697 494.367 41.1918V41.1701Z" fill="#FED601"/>
<path d="M564.751 84.0429C563.88 88.1165 562.094 91.297 559.392 93.5843C556.691 95.8717 553.445 97.0262 549.677 97.0262C547.019 97.0262 544.862 96.4816 543.207 95.4142C541.551 94.3468 540.462 92.8437 539.917 90.9049C539.373 88.9879 539.395 86.6788 539.983 83.9994L549.546 39.0807L524.102 39.0371L514.452 84.2825C513.014 91.0138 513.341 96.9827 515.454 102.167C517.567 107.352 521.161 111.425 526.237 114.388C531.313 117.329 537.587 118.81 545.015 118.832C552.443 118.854 559.305 117.373 565.579 114.453C571.853 111.513 577.168 107.461 581.481 102.276C585.795 97.0916 588.692 91.0792 590.151 84.239L599.758 39.1678L574.314 39.1242L564.751 84.0429Z" fill="#FED601"/>
<defs>
<filter id="filter0_f_891_409" x="6.89175" y="6.89062" width="607.758" height="126.832" filterUnits="userSpaceOnUse" color-interpolation-filters="sRGB">
<feFlood flood-opacity="0" result="BackgroundImageFix"/>
<feBlend mode="normal" in="SourceGraphic" in2="BackgroundImageFix" result="shape"/>
<feGaussianBlur stdDeviation="2" result="effect1_foregroundBlur_891_409"/>
</filter>
</defs>
</svg>
