<svg width="113" height="113" viewBox="0 0 113 113" fill="none" xmlns="http://www.w3.org/2000/svg">
<path fill-rule="evenodd" clip-rule="evenodd" d="M19.0109 74.7173C15.104 106.813 19.966 110.119 22.0497 111.597C23.5257 112.641 25.349 113.076 27.1722 112.989C34.4653 112.989 50.0064 106.118 56.5181 103.16C63.0297 106.205 78.5709 112.989 85.8639 112.989C87.6872 113.076 89.4236 112.554 90.9864 111.597C93.0702 110.119 97.9322 106.727 94.0252 74.7173C115.383 50.3624 113.387 44.9695 112.518 42.3601C111.65 40.0116 109.74 34.6187 79.6996 28.704C64.2452 0 58.9491 0 56.4313 0C53.9134 0 48.6173 0 33.3366 28.617C3.29616 34.6187 1.38607 40.0116 0.517849 42.3601C-0.437193 44.9695 -2.34728 50.3624 19.0109 74.7173Z" fill="#FFFF00"/>
</svg>
