<svg width="83" height="81" viewBox="0 0 83 81" fill="none" xmlns="http://www.w3.org/2000/svg">
<path fill-rule="evenodd" clip-rule="evenodd" d="M13.9615 53.252C11.1061 75.94 14.6418 78.3229 16.1787 79.3623C17.2971 80.0725 18.6028 80.4259 19.9244 80.3763C25.291 80.3763 36.7213 75.526 41.5 73.3882C46.2787 75.526 57.709 80.3763 63.0756 80.3763C64.3972 80.4259 65.7029 80.0725 66.8213 79.3623C68.3582 78.3229 71.8603 75.9823 69.0385 53.252C84.7435 36.0395 83.3158 32.2117 82.6187 30.3443C81.9888 28.6543 80.5695 24.8518 58.4984 20.6522C47.2193 0.380859 43.3729 0.380859 41.5 0.380859C39.6272 0.380859 35.7807 0.380859 24.5016 20.6607C2.4305 24.8856 1.00276 28.6796 0.381279 30.3443C-0.315791 32.2117 -1.74352 36.0395 13.9615 53.252Z" fill="#0C636D"/>
</svg>
