<svg width="63" height="61" viewBox="0 0 63 61" fill="none" xmlns="http://www.w3.org/2000/svg">
<path fill-rule="evenodd" clip-rule="evenodd" d="M10.5109 39.9489C8.36675 56.9074 11.0217 58.6885 12.1757 59.4653C13.0155 59.9962 13.996 60.2604 14.9883 60.2232C19.0181 60.2232 27.6009 56.5979 31.1892 54.9999C34.7774 56.5979 43.3603 60.2232 47.39 60.2232C48.3824 60.2604 49.3628 59.9962 50.2026 59.4653C51.3566 58.6885 53.9863 56.9389 51.8674 39.9489C63.6602 27.0832 62.5881 24.2221 62.0647 22.8262C61.5917 21.563 60.526 18.7208 43.9531 15.5818C35.4837 0.429688 32.5955 0.429688 31.1892 0.429688C29.7829 0.429688 26.8946 0.429688 18.4253 15.5881C1.85237 18.7461 0.780306 21.582 0.313641 22.8262C-0.20978 24.2221 -1.28185 27.0832 10.5109 39.9489Z" fill="#D84058"/>
</svg>
