<svg width="1019" height="294" viewBox="0 0 1019 294" fill="none" xmlns="http://www.w3.org/2000/svg">
<g filter="url(#filter0_f_896_7)">
<path d="M91.9981 68.6217C89.4544 65.972 86.5503 63.7674 83.2434 62.0292C79.9578 60.291 76.5874 58.7647 73.1533 57.4717C69.7193 56.1574 66.6032 54.8643 63.8051 53.5713C61.007 52.2782 58.8449 50.7308 57.3186 48.929C55.8136 47.1484 55.3261 44.7954 55.9196 41.8701C56.5343 38.7329 58.2725 36.3375 61.0918 34.6629C63.9111 32.9883 67.4511 32.1616 71.7119 32.1616C75.9726 32.1616 79.6186 33.0519 82.6499 34.7689C85.6812 36.5071 88.5005 39.1568 91.129 42.7393L110.271 26.3958C107.091 21.5203 102.576 17.6836 96.7464 14.8643C90.9382 12.045 84.1761 10.6035 76.4814 10.6035C68.7866 10.6035 61.9397 11.8966 55.5804 14.5463C49.2423 17.1748 43.9217 21.0328 39.6397 26.1202C35.3578 31.1865 32.5173 37.249 31.1183 44.2655C29.9524 50.0949 29.9312 54.9491 31.0335 58.7859C32.1358 62.6227 33.98 65.8236 36.5449 68.3673C39.1098 70.911 42.0351 73.0308 45.3419 74.7054C48.6488 76.38 52.0192 77.8851 55.4532 79.1781C58.8873 80.4712 61.9821 81.849 64.7802 83.2481C67.5571 84.6683 69.6981 86.343 71.1819 88.2932C72.6658 90.2433 73.0897 92.7871 72.475 95.9243C71.7967 99.3796 69.8253 102.072 66.582 104.022C63.3388 105.972 59.1204 106.926 53.927 106.926C48.2036 106.926 43.4341 105.739 39.5762 103.407C35.7182 101.075 32.4537 97.7897 29.7616 93.5714L10.5989 109.894C14.7536 116.168 19.7775 120.853 25.6493 123.948C31.521 127.043 38.9826 128.59 48.034 128.611C61.219 128.632 72.1782 125.559 80.9117 119.348C89.624 113.158 95.0718 104.594 97.2339 93.6774C98.421 87.742 98.4634 82.7393 97.4035 78.6694C96.3436 74.6206 94.5418 71.2502 91.9981 68.6005V68.6217Z" fill="#D42D26" fill-opacity="0.3"/>
<path d="M155.867 93.639C155.04 97.7514 153.366 100.952 150.843 103.284C148.299 105.595 145.268 106.76 141.728 106.76C139.227 106.76 137.213 106.209 135.666 105.128C134.118 104.047 133.079 102.521 132.592 100.571C132.083 98.6205 132.125 96.3099 132.655 93.5966L141.686 48.2123L117.838 48.1699L108.744 93.8934C107.388 100.698 107.706 106.739 109.677 111.975C111.649 117.232 115.019 121.344 119.767 124.312C124.537 127.301 130.387 128.785 137.34 128.806C144.293 128.827 150.737 127.343 156.609 124.376C162.502 121.408 167.462 117.317 171.532 112.081C175.581 106.845 178.294 100.761 179.672 93.851L188.723 48.2971L164.876 48.2547L155.846 93.639H155.867Z" fill="#D42D26" fill-opacity="0.3"/>
<path d="M265.692 52.1733C260.838 48.5909 254.839 46.8103 247.653 46.7891C242.565 46.7891 237.669 47.8489 232.984 50.0111C230.652 51.071 228.49 52.3429 226.455 53.8267L227.536 48.3789L203.689 48.3365L181.431 160.366L204.961 160.409L212.634 121.808C214.139 123.334 215.899 124.648 217.934 125.729C221.792 127.786 226.264 128.824 231.352 128.845C238.517 128.845 245.236 127.086 251.511 123.525C257.785 119.964 263.106 115.109 267.494 108.962C271.882 102.815 274.871 95.777 276.439 87.8914C278.008 80.0059 277.817 72.9682 275.867 66.7997C273.917 60.6312 270.525 55.7557 265.671 52.1945L265.692 52.1733ZM248.204 97.388C246.19 100.207 243.753 102.412 240.891 104.023C238.029 105.634 234.871 106.439 231.437 106.439C228.215 106.439 225.459 105.613 223.191 103.98C220.923 102.348 219.354 100.144 218.506 97.3244C217.658 94.5051 217.595 91.3255 218.294 87.7642C218.994 84.203 220.393 80.8538 222.406 78.0345C224.42 75.2364 226.858 73.053 229.72 71.4844C232.581 69.9158 235.676 69.1526 239.004 69.1526C242.332 69.1526 245.109 69.9582 247.335 71.5268C249.561 73.0954 251.129 75.3 252.041 78.0981C252.931 80.9174 253.016 84.1606 252.295 87.8278C251.575 91.495 250.218 94.5899 248.204 97.388Z" fill="#D42D26" fill-opacity="0.3"/>
<path d="M351.267 51.8555C346.222 48.5063 339.948 46.8104 332.465 46.7892C324.982 46.7681 317.521 48.5487 310.674 52.0887C303.827 55.6499 297.997 60.5254 293.186 66.7363C288.374 72.9472 285.173 79.9849 283.604 87.8916C282.036 95.7984 282.438 102.857 284.834 109.132C287.229 115.406 291.257 120.303 296.959 123.843C302.661 127.362 309.593 129.142 317.817 129.164C324.155 129.164 330.197 128.061 335.941 125.793C341.686 123.525 346.879 120.133 351.522 115.597L341.135 101.946C338.315 104.638 335.263 106.673 331.977 108.008C328.692 109.365 325.194 110.022 321.442 110.022C317.393 110.022 314.065 109.111 311.458 107.33C308.851 105.549 307.07 103.006 306.116 99.6987C305.798 98.6177 305.629 97.4094 305.523 96.1799H359.768C360.594 94.1025 361.23 92.2795 361.697 90.7321C362.163 89.1635 362.544 87.6796 362.82 86.2806C364.346 78.607 364.071 71.8026 361.972 65.846C359.874 59.8894 356.312 55.2471 351.267 51.8767V51.8555ZM318.58 68.4109C321.696 66.6303 325.109 65.74 328.861 65.7612C332.401 65.7612 335.221 66.5667 337.362 68.1353C339.481 69.704 340.88 71.9721 341.538 74.961C341.813 76.2117 341.919 77.6107 341.94 79.137L308.914 79.1794C309.465 78.0559 310.038 76.9748 310.695 75.9785C312.836 72.7353 315.486 70.2339 318.58 68.4533V68.4109Z" fill="#D42D26" fill-opacity="0.3"/>
<path d="M425.481 47.1289C417.171 47.1289 410.176 49.6514 404.495 54.7177L405.682 48.7187L381.835 48.6763L366.169 127.468L390.017 127.511L398.623 84.2249C399.641 79.1375 401.548 75.3431 404.41 72.7993C407.251 70.2556 410.642 69.0049 414.606 69.0049C416.578 69.0049 418.273 69.3441 419.715 69.98C421.156 70.616 422.259 71.5487 423.064 72.7357L440.955 54.1242C439.344 51.75 437.288 49.9906 434.765 48.8459C432.243 47.7012 429.148 47.1289 425.523 47.1289H425.481Z" fill="#D42D26" fill-opacity="0.3"/>
<path d="M533.716 76.295L507.367 13.2318L489.9 13.1895L467.155 127.636L491.469 127.699L504.103 64.1912L520.213 103.089L536.429 103.131L567.95 64.5303L555.38 127.827L579.842 127.869L602.587 13.4226L584.972 13.3802L533.716 76.295Z" fill="#D42D26" fill-opacity="0.3"/>
<path d="M665.566 55.7791C663.913 53.7441 661.92 52.0059 659.482 50.6493C655.794 48.5931 651.385 47.5544 646.297 47.5332C639.344 47.5332 632.773 49.2926 626.605 52.8538C620.436 56.415 615.158 61.2693 610.77 67.4167C606.382 73.564 603.393 80.6016 601.824 88.4872C600.256 96.3727 600.447 103.41 602.397 109.579C604.347 115.747 607.696 120.623 612.423 124.184C617.15 127.745 623.022 129.547 629.975 129.568C635.063 129.568 639.896 128.551 644.453 126.516C647.4 125.202 650.049 123.506 652.466 121.534L651.173 128L674.554 128.042L690.219 49.2502L666.838 49.2078L665.524 55.7791H665.566ZM639.281 107.226C636.059 107.226 633.303 106.399 631.035 104.767C628.767 103.135 627.177 100.93 626.265 98.1109C625.375 95.2916 625.269 92.112 625.99 88.5508C626.711 84.9896 628.11 81.6403 630.187 78.821C632.243 76.0229 634.702 73.8396 637.564 72.2709C640.425 70.7023 643.52 69.9392 646.827 69.9392C650.134 69.9392 652.932 70.7447 655.158 72.3133C657.384 73.882 658.931 76.0865 659.779 78.8846C660.627 81.7039 660.691 84.9472 659.949 88.6144C658.868 94.0198 656.43 98.4713 652.614 101.99C648.799 105.488 644.347 107.247 639.26 107.226H639.281Z" fill="#D42D26" fill-opacity="0.3"/>
<path d="M750.738 47.7598C742.429 47.7598 735.434 50.2823 729.753 55.3485L730.94 49.3496L707.092 49.3072L691.427 128.099L715.275 128.141L723.881 84.8558C724.898 79.7683 726.806 75.9739 729.668 73.4302C732.508 70.8865 735.9 69.6358 739.864 69.6358C741.835 69.6358 743.531 69.975 744.973 70.6109C746.414 71.2468 747.516 72.1795 748.322 73.3666L766.213 54.755C764.602 52.3809 762.546 50.6215 760.023 49.4768C757.501 48.3321 754.406 47.7598 750.781 47.7598H750.738Z" fill="#D42D26" fill-opacity="0.3"/>
<path d="M793.049 11.3438C789.318 11.3438 785.969 12.6368 783.001 15.2229C780.055 17.8091 778.168 21.0523 777.405 24.9527C776.642 28.8531 777.235 31.9479 779.143 34.5976C781.051 37.2474 783.891 38.5828 787.622 38.5828C791.353 38.5828 794.681 37.2685 797.606 34.6188C800.51 31.9691 802.355 28.7683 803.118 24.9739C803.881 21.1795 803.33 17.8302 801.464 15.2441C799.599 12.6368 796.78 11.3438 793.049 11.3438Z" fill="#D42D26" fill-opacity="0.3"/>
<path d="M757.818 128.212L781.666 128.254L797.331 49.4835L773.484 49.4199L757.818 128.212Z" fill="#D42D26" fill-opacity="0.3"/>
<path d="M871.12 53.1928C865.588 49.6104 858.889 47.8086 850.982 47.8086C843.076 47.8086 835.656 49.5892 828.704 53.1928C821.751 56.7964 815.837 61.6719 810.982 67.8404C806.128 73.9878 802.927 80.9618 801.38 88.7414C799.832 96.5209 800.256 103.559 802.652 109.833C805.047 116.108 809.011 121.068 814.586 124.693C820.161 128.318 826.838 130.141 834.618 130.162C842.397 130.183 849.944 128.381 856.897 124.777C863.849 121.174 869.764 116.235 874.66 109.981C879.536 103.728 882.758 96.6905 884.305 88.911C885.853 81.1314 885.429 74.1362 883.033 67.904C880.638 61.6931 876.674 56.7752 871.141 53.214L871.12 53.1928ZM855.921 98.6619C853.95 101.524 851.512 103.728 848.608 105.297C845.704 106.865 842.525 107.629 839.09 107.629C835.656 107.629 832.964 106.844 830.675 105.254C828.386 103.686 826.796 101.46 825.927 98.5983C825.036 95.7366 824.952 92.5146 825.651 88.9534C826.351 85.3921 827.75 82.0429 829.764 79.2236C831.777 76.4255 834.236 74.2421 837.14 72.6735C840.044 71.1049 843.16 70.3418 846.488 70.3418C849.817 70.3418 852.742 71.1473 854.989 72.7159C857.215 74.2845 858.783 76.4467 859.695 79.2024C860.606 81.9581 860.691 85.1802 859.949 88.8474C859.207 92.5146 857.872 95.8002 855.9 98.6407L855.921 98.6619Z" fill="#D42D26" fill-opacity="0.3"/>
<path d="M903.044 30.5541L920.341 30.5753L911.163 76.7863L923.479 76.8075L932.657 30.5965L949.806 30.6389L951.99 19.616L905.249 19.5312L903.044 30.5541Z" fill="#D42D26" fill-opacity="0.3"/>
<path d="M977.469 51.0534L964.157 19.6384L955.423 19.6172L944.061 76.851L956.208 76.8722L962.546 44.9908L970.665 64.5775L978.91 64.5987L994.597 45.3088L988.322 76.9358L1000.64 76.957L1012 19.7232H1003.27L977.469 51.0534Z" fill="#D42D26" fill-opacity="0.3"/>
</g>
<path d="M81.3992 58.0182C78.8555 55.3684 75.9514 53.1639 72.6446 51.4257C69.3589 49.6875 65.9885 48.1612 62.5545 46.8682C59.1204 45.5539 56.0044 44.2608 53.2063 42.9678C50.4082 41.6747 48.246 40.1273 46.7198 38.3255C45.2147 36.5449 44.7272 34.1919 45.3207 31.2666C45.9354 28.1294 47.6737 25.734 50.493 24.0594C53.3123 22.3848 56.8523 21.5581 61.113 21.5581C65.3737 21.5581 69.0198 22.4484 72.051 24.1654C75.0823 25.9036 77.9016 28.5533 80.5301 32.1357L99.6717 15.7923C96.492 10.9168 91.9769 7.08004 86.1475 4.26074C80.3393 1.44144 73.5773 0 65.8825 0C58.1877 0 51.3409 1.29306 44.9815 3.94278C38.6434 6.57129 33.3228 10.4293 29.0409 15.5167C24.7589 20.583 21.9184 26.6455 20.5194 33.662C19.3535 39.4913 19.3323 44.3456 20.4346 48.1824C21.5369 52.0192 23.3811 55.2201 25.946 57.7638C28.5109 60.3075 31.4362 62.4273 34.7431 64.1019C38.0499 65.7765 41.4203 67.2815 44.8544 68.5746C48.2884 69.8677 51.3833 71.2455 54.1814 72.6446C56.9583 74.0648 59.0992 75.7394 60.5831 77.6896C62.0669 79.6398 62.4909 82.1835 61.8761 85.3208C61.1978 88.776 59.2264 91.4681 55.9832 93.4183C52.7399 95.3685 48.5216 96.3224 43.3281 96.3224C37.6047 96.3224 32.8353 95.1354 28.9773 92.8036C25.1193 90.4719 21.8548 87.1862 19.1627 82.9679L0 99.2901C4.15475 105.565 9.17861 110.249 15.0504 113.344C20.9221 116.439 28.3837 117.986 37.4352 118.008C50.6201 118.029 61.5794 114.955 70.3128 108.744C79.0251 102.555 84.4729 93.9907 86.6351 83.0739C87.8221 77.1385 87.8645 72.1358 86.8046 68.0659C85.7448 64.0171 83.943 60.6467 81.3992 57.997V58.0182Z" fill="#D42D26"/>
<path d="M145.268 83.0355C144.441 87.1479 142.767 90.3487 140.244 92.6805C137.7 94.991 134.669 96.1569 131.129 96.1569C128.628 96.1569 126.614 95.6058 125.066 94.5247C123.519 93.4436 122.48 91.9174 121.993 89.9672C121.484 88.017 121.526 85.7064 122.056 82.9931L131.087 37.6088L107.239 37.5664L98.1454 83.2899C96.7887 90.0944 97.1067 96.1357 99.0781 101.372C101.049 106.629 104.42 110.741 109.168 113.709C113.938 116.697 119.788 118.181 126.741 118.203C133.694 118.224 140.138 116.74 146.01 113.772C151.903 110.805 156.863 106.713 160.933 101.478C164.982 96.2417 167.695 90.1579 169.073 83.2475L178.124 37.6936L154.277 37.6512L145.247 83.0355H145.268Z" fill="#D42D26"/>
<path d="M255.093 41.5698C250.239 37.9874 244.24 36.2067 237.054 36.1855C231.967 36.1855 227.07 37.2454 222.385 39.4076C220.054 40.4675 217.891 41.7393 215.856 43.2232L216.938 37.7754L193.09 37.733L170.833 149.763L194.362 149.805L202.036 111.204C203.541 112.73 205.3 114.045 207.335 115.126C211.193 117.182 215.666 118.221 220.753 118.242C227.918 118.242 234.638 116.482 240.912 112.921C247.187 109.36 252.507 104.506 256.895 98.3584C261.283 92.2111 264.272 85.1734 265.841 77.2879C267.409 69.4024 267.219 62.3647 265.268 56.1962C263.318 50.0277 259.927 45.1522 255.072 41.591L255.093 41.5698ZM237.605 86.7845C235.592 89.6038 233.154 91.8083 230.292 93.4194C227.43 95.0304 224.272 95.8359 220.838 95.8359C217.616 95.8359 214.86 95.0092 212.592 93.377C210.324 91.7447 208.755 89.5402 207.907 86.7209C207.059 83.9016 206.996 80.7219 207.695 77.1607C208.395 73.5995 209.794 70.2503 211.808 67.431C213.821 64.6329 216.259 62.4495 219.121 60.8809C221.983 59.3122 225.077 58.5491 228.406 58.5491C231.734 58.5491 234.51 59.3546 236.736 60.9233C238.962 62.4919 240.531 64.6965 241.442 67.4946C242.332 70.3139 242.417 73.5571 241.696 77.2243C240.976 80.8915 239.619 83.9864 237.605 86.7845Z" fill="#D42D26"/>
<path d="M340.669 41.252C335.624 37.9027 329.349 36.2069 321.866 36.1857C314.383 36.1645 306.922 37.9451 300.075 41.4852C293.228 45.0464 287.399 49.9219 282.587 56.1328C277.775 62.3437 274.574 69.3813 273.005 77.2881C271.437 85.1948 271.84 92.2537 274.235 98.5282C276.63 104.803 280.658 109.699 286.36 113.239C292.062 116.758 298.994 118.539 307.219 118.56C313.557 118.56 319.598 117.458 325.343 115.19C331.087 112.921 336.281 109.53 340.923 104.994L330.536 91.3422C327.717 94.0343 324.664 96.0693 321.379 97.4047C318.093 98.7614 314.595 99.4185 310.843 99.4185C306.795 99.4185 303.467 98.507 300.859 96.7264C298.252 94.9458 296.471 92.4021 295.517 89.0952C295.199 88.0141 295.03 86.8059 294.924 85.5764H349.169C349.996 83.499 350.632 81.676 351.098 80.1286C351.564 78.56 351.946 77.0761 352.221 75.6771C353.748 68.0035 353.472 61.199 351.373 55.2425C349.275 49.2859 345.714 44.6436 340.669 41.2732V41.252ZM307.982 57.8074C311.098 56.0268 314.511 55.1365 318.263 55.1577C321.803 55.1577 324.622 55.9632 326.763 57.5318C328.883 59.1005 330.282 61.3686 330.939 64.3575C331.214 65.6082 331.32 67.0072 331.342 68.5334L298.316 68.5758C298.867 67.4524 299.439 66.3713 300.096 65.375C302.237 62.1317 304.887 59.6304 307.982 57.8498V57.8074Z" fill="#D42D26"/>
<path d="M414.882 36.5254C406.572 36.5254 399.577 39.0479 393.896 44.1142L395.083 38.1152L371.236 38.0728L355.57 116.865L379.418 116.907L388.024 73.6214C389.042 68.5339 390.949 64.7395 393.811 62.1958C396.652 59.6521 400.043 58.4014 404.007 58.4014C405.979 58.4014 407.674 58.7406 409.116 59.3765C410.557 60.0125 411.66 60.9452 412.465 62.1322L430.356 43.5206C428.745 41.1465 426.689 39.3871 424.166 38.2424C421.644 37.0977 418.549 36.5254 414.924 36.5254H414.882Z" fill="#D42D26"/>
<path d="M523.117 65.6915L496.769 2.62833L479.302 2.58594L456.557 117.032L480.87 117.096L493.504 53.5876L509.614 92.4854L525.831 92.5278L557.352 53.9268L544.781 117.223L569.244 117.266L591.989 2.81911L574.373 2.77672L523.117 65.6915Z" fill="#D42D26"/>
<path d="M654.967 45.1756C653.313 43.1406 651.321 41.4024 648.883 40.0457C645.195 37.9896 640.786 36.9509 635.698 36.9297C628.745 36.9297 622.174 38.6891 616.005 42.2503C609.837 45.8115 604.559 50.6658 600.171 56.8131C595.783 62.9605 592.794 69.9981 591.225 77.8837C589.657 85.7692 589.847 92.8068 591.798 98.9754C593.748 105.144 597.097 110.019 601.824 113.581C606.551 117.142 612.423 118.944 619.376 118.965C624.463 118.965 629.296 117.947 633.854 115.912C636.8 114.598 639.45 112.902 641.867 110.931L640.574 117.396L663.955 117.439L679.62 38.6467L656.239 38.6043L654.924 45.1756H654.967ZM628.682 96.6224C625.46 96.6224 622.704 95.7957 620.436 94.1635C618.168 92.5313 616.578 90.3267 615.666 87.5074C614.776 84.6881 614.67 81.5085 615.391 77.9473C616.111 74.386 617.51 71.0368 619.588 68.2175C621.644 65.4194 624.103 63.236 626.965 61.6674C629.826 60.0988 632.921 59.3357 636.228 59.3357C639.535 59.3357 642.333 60.1412 644.559 61.7098C646.785 63.2784 648.332 65.483 649.18 68.2811C650.028 71.1004 650.091 74.3436 649.349 78.0108C648.268 83.4163 645.831 87.8678 642.015 91.3866C638.199 94.8842 633.748 96.6436 628.66 96.6224H628.682Z" fill="#D42D26"/>
<path d="M740.139 37.1543C731.83 37.1543 724.835 39.6768 719.154 44.7431L720.341 38.7441L696.493 38.7017L680.828 117.494L704.676 117.536L713.282 74.2503C714.299 69.1628 716.207 65.3685 719.069 62.8247C721.909 60.281 725.301 59.0303 729.265 59.0303C731.236 59.0303 732.932 59.3695 734.374 60.0054C735.815 60.6414 736.917 61.5741 737.723 62.7611L755.614 44.1495C754.003 41.7754 751.947 40.016 749.424 38.8713C746.901 37.7266 743.807 37.1543 740.182 37.1543H740.139Z" fill="#D42D26"/>
<path d="M782.45 0.740234C778.719 0.740234 775.37 2.03329 772.403 4.61942C769.456 7.20554 767.569 10.4488 766.806 14.3492C766.043 18.2495 766.637 21.3444 768.545 23.9941C770.452 26.6438 773.293 27.9793 777.024 27.9793C780.754 27.9793 784.082 26.665 787.008 24.0153C789.912 21.3656 791.756 18.1648 792.519 14.3704C793.282 10.576 792.731 7.22673 790.866 4.64061C789 2.03329 786.181 0.740234 782.45 0.740234Z" fill="#D42D26"/>
<path d="M747.219 117.608L771.066 117.651L786.732 38.88L762.884 38.8164L747.219 117.608Z" fill="#D42D26"/>
<path d="M860.522 42.5893C854.989 39.0069 848.291 37.2051 840.384 37.2051C832.477 37.2051 825.058 38.9857 818.105 42.5893C811.152 46.1929 805.238 51.0684 800.384 57.2369C795.529 63.3843 792.329 70.3583 790.781 78.1379C789.234 85.9174 789.658 92.9551 792.053 99.2296C794.448 105.504 798.412 110.464 803.987 114.089C809.562 117.714 816.24 119.537 824.019 119.558C831.799 119.579 839.345 117.778 846.298 114.174C853.251 110.57 859.165 105.631 864.062 99.378C868.937 93.1246 872.159 86.087 873.707 78.3074C875.254 70.5279 874.83 63.5326 872.435 57.3005C870.039 51.0896 866.075 46.1717 860.543 42.6105L860.522 42.5893ZM845.323 88.0584C843.351 90.9201 840.914 93.1246 838.01 94.6933C835.106 96.2619 831.926 97.025 828.492 97.025C825.058 97.025 822.366 96.2407 820.076 94.6509C817.787 93.0823 816.197 90.8565 815.328 87.9948C814.438 85.1331 814.353 81.9111 815.053 78.3498C815.752 74.7886 817.151 71.4394 819.165 68.6201C821.179 65.822 823.638 63.6386 826.542 62.07C829.446 60.5014 832.562 59.7382 835.89 59.7382C839.218 59.7382 842.143 60.5438 844.39 62.1124C846.616 63.681 848.185 65.8432 849.096 68.5989C850.008 71.3546 850.092 74.5766 849.35 78.2439C848.608 81.9111 847.273 85.1967 845.302 88.0372L845.323 88.0584Z" fill="#D42D26"/>
<path d="M892.445 19.9505L909.742 19.9717L900.564 66.1828L912.88 66.204L922.058 19.9929L939.207 20.0353L941.391 9.01253L894.65 8.92773L892.445 19.9505Z" fill="#D42D26"/>
<path d="M966.87 40.4499L953.558 9.03487L944.825 9.01367L933.463 66.2475L945.609 66.2687L951.947 34.3873L960.066 53.974L968.312 53.9952L983.998 34.7053L977.723 66.3323L990.039 66.3535L1001.4 9.11966H992.668L966.87 40.4499Z" fill="#D42D26"/>
<g filter="url(#filter1_f_896_7)">
<path d="M549.599 285.071L574.061 285.114L596.806 170.667L572.344 170.604L549.599 285.071Z" fill="#D42D26" fill-opacity="0.3"/>
</g>
<g filter="url(#filter2_f_896_7)">
<path d="M642.826 262.798C640.155 263.921 637.272 264.494 634.156 264.494C630.828 264.494 627.988 263.667 625.593 262.035C623.218 260.403 621.544 258.198 620.611 255.379C619.657 252.559 619.551 249.316 620.293 245.649C621.035 241.982 622.413 238.76 624.469 236.004C626.525 233.248 629.027 231.086 631.994 229.539C634.962 227.97 638.142 227.207 641.576 227.207C644.586 227.207 647.172 227.695 649.313 228.691C651.454 229.666 653.213 231.192 654.57 233.248L672.991 217.392C669.981 213.174 666.229 209.994 661.713 207.875C657.198 205.755 651.984 204.695 646.048 204.674C638.142 204.674 630.68 206.433 623.642 209.973C616.605 213.534 610.606 218.41 605.688 224.621C600.77 230.832 597.527 237.869 595.958 245.776C594.389 253.683 594.835 260.593 597.23 266.868C599.625 273.142 603.632 278.082 609.249 281.643C614.867 285.204 621.586 287.027 629.387 287.027C635.513 287.027 641.3 285.946 646.727 283.741C652.153 281.537 657.262 278.272 662.074 273.969L650.118 258.05C647.935 260.106 645.518 261.696 642.847 262.819L642.826 262.798Z" fill="#D42D26" fill-opacity="0.3"/>
</g>
<g filter="url(#filter3_f_896_7)">
<path d="M741.121 210.179C735.588 206.597 728.889 204.795 720.983 204.795C713.076 204.795 705.657 206.576 698.704 210.179C691.751 213.783 685.837 218.658 680.983 224.827C676.128 230.974 672.927 237.948 671.38 245.728C669.833 253.507 670.257 260.545 672.652 266.819C675.047 273.094 679.011 278.054 684.586 281.679C690.161 285.304 696.838 287.127 704.618 287.148C712.398 287.169 719.944 285.367 726.897 281.764C733.85 278.16 739.764 273.221 744.661 266.968C749.536 260.714 752.758 253.677 754.305 245.897C755.853 238.118 755.429 231.122 753.034 224.89C750.638 218.679 746.674 213.762 741.142 210.2L741.121 210.179ZM725.922 255.648C723.95 258.51 721.513 260.714 718.608 262.283C715.704 263.852 712.525 264.615 709.091 264.615C705.657 264.615 702.965 263.831 700.675 262.241C698.386 260.672 696.796 258.446 695.927 255.585C695.037 252.723 694.952 249.501 695.651 245.94C696.351 242.378 697.75 239.029 699.764 236.21C701.778 233.412 704.236 231.228 707.141 229.66C710.045 228.091 713.161 227.328 716.489 227.328C719.817 227.328 722.742 228.134 724.989 229.702C727.215 231.271 728.783 233.433 729.695 236.189C730.606 238.944 730.691 242.166 729.949 245.834C729.207 249.501 727.872 252.787 725.901 255.627L725.922 255.648Z" fill="#D42D26" fill-opacity="0.3"/>
</g>
<g filter="url(#filter4_f_896_7)">
<path d="M841.407 220.268C839.817 215.732 837.146 212.065 833.373 209.309C829.599 206.553 824.915 205.154 819.318 205.154C813.722 205.154 808.02 206.405 802.89 208.927C800.601 210.051 798.523 211.429 796.552 212.955L797.782 206.723L773.934 206.681L758.269 285.472L782.116 285.515L791.041 240.618C791.571 237.926 792.631 235.509 794.178 233.411C795.747 231.312 797.612 229.68 799.817 228.557C802.021 227.433 804.416 226.861 807.024 226.861C810.755 226.861 813.595 228.154 815.545 230.698C817.474 233.241 818.047 236.569 817.22 240.682L808.296 285.578L832.143 285.621L842.17 235.213C843.251 229.807 842.975 224.826 841.385 220.289L841.407 220.268Z" fill="#D42D26" fill-opacity="0.3"/>
</g>
<path d="M539 274.468L563.462 274.51L586.207 160.064L561.745 160L539 274.468Z" fill="#D42D26"/>
<path d="M632.228 252.194C629.557 253.318 626.674 253.89 623.558 253.89C620.23 253.89 617.389 253.064 614.994 251.431C612.62 249.799 610.945 247.595 610.013 244.775C609.059 241.956 608.953 238.713 609.695 235.045C610.437 231.378 611.814 228.156 613.871 225.401C615.927 222.645 618.428 220.483 621.396 218.935C624.363 217.367 627.543 216.603 630.977 216.603C633.987 216.603 636.573 217.091 638.714 218.087C640.855 219.062 642.615 220.589 643.971 222.645L662.392 206.789C659.382 202.571 655.63 199.391 651.115 197.271C646.6 195.151 641.385 194.092 635.45 194.07C627.543 194.07 620.081 195.83 613.044 199.37C606.006 202.931 600.007 207.806 595.089 214.017C590.172 220.228 586.928 227.266 585.36 235.173C583.791 243.079 584.236 249.99 586.631 256.264C589.027 262.539 593.033 267.478 598.651 271.039C604.268 274.6 610.988 276.423 618.788 276.423C624.915 276.423 630.702 275.342 636.128 273.138C641.555 270.933 646.663 267.669 651.475 263.366L639.52 247.446C637.336 249.502 634.92 251.092 632.249 252.216L632.228 252.194Z" fill="#D42D26"/>
<path d="M730.522 199.574C724.989 195.991 718.291 194.189 710.384 194.189C702.477 194.189 695.058 195.97 688.105 199.574C681.152 203.177 675.238 208.053 670.384 214.221C665.529 220.369 662.328 227.343 660.781 235.122C659.234 242.902 659.658 249.939 662.053 256.214C664.448 262.488 668.412 267.449 673.987 271.074C679.562 274.698 686.239 276.521 694.019 276.543C701.799 276.564 709.345 274.762 716.298 271.158C723.251 267.555 729.165 262.616 734.062 256.362C738.937 250.109 742.159 243.071 743.706 235.292C745.254 227.512 744.83 220.517 742.435 214.285C740.039 208.074 736.075 203.156 730.543 199.595L730.522 199.574ZM715.323 245.043C713.351 247.904 710.914 250.109 708.009 251.678C705.105 253.246 701.926 254.009 698.492 254.009C695.058 254.009 692.366 253.225 690.076 251.635C687.787 250.067 686.197 247.841 685.328 244.979C684.438 242.117 684.353 238.895 685.052 235.334C685.752 231.773 687.151 228.424 689.165 225.604C691.179 222.806 693.638 220.623 696.542 219.054C699.446 217.486 702.562 216.723 705.89 216.723C709.218 216.723 712.143 217.528 714.39 219.097C716.616 220.665 718.184 222.828 719.096 225.583C720.007 228.339 720.092 231.561 719.35 235.228C718.608 238.895 717.273 242.181 715.302 245.022L715.323 245.043Z" fill="#D42D26"/>
<path d="M830.808 209.665C829.218 205.128 826.547 201.461 822.774 198.706C819.001 195.95 814.316 194.551 808.72 194.551C803.124 194.551 797.421 195.801 792.292 198.324C790.002 199.447 787.925 200.825 785.953 202.352L787.183 196.119L763.336 196.077L747.67 274.869L771.518 274.911L780.442 230.015C780.972 227.322 782.032 224.906 783.579 222.807C785.148 220.709 787.013 219.077 789.218 217.953C791.422 216.83 793.818 216.257 796.425 216.257C800.156 216.257 802.996 217.55 804.947 220.094C806.876 222.638 807.448 225.966 806.621 230.078L797.697 274.975L821.544 275.017L831.571 224.609C832.652 219.204 832.377 214.222 830.787 209.686L830.808 209.665Z" fill="#D42D26"/>
<defs>
<filter id="filter0_f_896_7" x="3.77987" y="3.78451" width="1015.04" height="163.443" filterUnits="userSpaceOnUse" color-interpolation-filters="sRGB">
<feFlood flood-opacity="0" result="BackgroundImageFix"/>
<feBlend mode="normal" in="SourceGraphic" in2="BackgroundImageFix" result="shape"/>
<feGaussianBlur stdDeviation="3.4095" result="effect1_foregroundBlur_896_7"/>
</filter>
<filter id="filter1_f_896_7" x="542.78" y="163.785" width="60.8454" height="128.148" filterUnits="userSpaceOnUse" color-interpolation-filters="sRGB">
<feFlood flood-opacity="0" result="BackgroundImageFix"/>
<feBlend mode="normal" in="SourceGraphic" in2="BackgroundImageFix" result="shape"/>
<feGaussianBlur stdDeviation="3.4095" result="effect1_foregroundBlur_896_7"/>
</filter>
<filter id="filter2_f_896_7" x="588.219" y="197.855" width="91.5908" height="95.9915" filterUnits="userSpaceOnUse" color-interpolation-filters="sRGB">
<feFlood flood-opacity="0" result="BackgroundImageFix"/>
<feBlend mode="normal" in="SourceGraphic" in2="BackgroundImageFix" result="shape"/>
<feGaussianBlur stdDeviation="3.4095" result="effect1_foregroundBlur_896_7"/>
</filter>
<filter id="filter3_f_896_7" x="663.65" y="197.976" width="98.3855" height="95.9915" filterUnits="userSpaceOnUse" color-interpolation-filters="sRGB">
<feFlood flood-opacity="0" result="BackgroundImageFix"/>
<feBlend mode="normal" in="SourceGraphic" in2="BackgroundImageFix" result="shape"/>
<feGaussianBlur stdDeviation="3.4095" result="effect1_foregroundBlur_896_7"/>
</filter>
<filter id="filter4_f_896_7" x="751.45" y="198.335" width="98.1875" height="94.1048" filterUnits="userSpaceOnUse" color-interpolation-filters="sRGB">
<feFlood flood-opacity="0" result="BackgroundImageFix"/>
<feBlend mode="normal" in="SourceGraphic" in2="BackgroundImageFix" result="shape"/>
<feGaussianBlur stdDeviation="3.4095" result="effect1_foregroundBlur_896_7"/>
</filter>
</defs>
</svg>
