<svg width="631" height="120" viewBox="0 0 631 120" fill="none" xmlns="http://www.w3.org/2000/svg">
<path fill-rule="evenodd" clip-rule="evenodd" d="M0 120L79.635 0.0108015L79.6458 0H112.904L125.842 120H90.5303L90.0159 112.475H39.3306L34.6021 120H0ZM85.0521 39.6893L56.4775 85.1841H88.1491L85.0521 39.6893Z" fill="#D42D26"/>
<path d="M194.97 0L234.735 77.4901L256.112 0H290.525L257.428 119.989H219.016L188.647 60.5806L172.256 119.989H137.842L170.939 0H194.97Z" fill="#D42D26"/>
<path d="M355.131 46.261L393.849 0H432.491L363.181 79.1412L351.914 119.989H317.493L328.337 80.6951L302.525 0H341.944L355.131 46.261Z" fill="#D42D26"/>
<path d="M549.124 0L550.506 80.1987L596.411 0H630.251L558.909 119.989H521.23L520.075 55.1743L483.288 119.989H445.479L440.491 0H474.526L476.199 79.8642L521.629 0H549.124Z" fill="#D42D26"/>
</svg>
