<svg width="372" height="120" viewBox="0 0 372 120" fill="none" xmlns="http://www.w3.org/2000/svg">
<path d="M125.817 29.0278H60.2614L53.7436 52.6708H113.537L105.735 80.9325H45.9418L38.6794 107.273H105.389L101.882 119.989H0.759277L33.8558 0H133.824L125.817 29.0278Z" fill="#D42D26"/>
<path fill-rule="evenodd" clip-rule="evenodd" d="M233.861 5.19047C239.893 8.64358 244.069 13.3916 246.378 19.413C248.688 25.4452 248.731 32.4917 246.508 40.5633C244.285 48.6458 240.314 55.7247 234.595 61.8108C228.875 67.8969 221.958 72.6342 213.843 76.0333C210.326 77.5117 206.657 78.6448 202.858 79.4757L221.45 119.989H182.583L166.967 81.1375H164.949L154.235 119.989H119.824L152.918 0H210.973C220.199 0 227.829 1.72656 233.861 5.19047ZM204.704 52.3795C208.47 49.6278 211.016 45.8833 212.322 41.1353C213.595 36.5275 213.12 32.7723 210.908 29.8911C208.685 27.0099 204.757 25.5639 199.125 25.5639H180.283L171.748 56.5124H190.589C196.222 56.5124 200.927 55.142 204.704 52.3795Z" fill="#D42D26"/>
<path d="M363.201 29.0278H297.645L291.128 52.6708H350.921L343.119 80.9325H283.326L276.063 107.273H342.773L339.266 119.989H238.143L271.24 0H371.208L363.201 29.0278Z" fill="#D42D26"/>
</svg>
