<svg width="130" height="120" viewBox="0 0 130 120" fill="none" xmlns="http://www.w3.org/2000/svg">
<path fill-rule="evenodd" clip-rule="evenodd" d="M114.861 5.19047C120.893 8.64358 125.069 13.3916 127.378 19.413C129.688 25.4452 129.731 32.4917 127.508 40.5633C125.285 48.6458 121.314 55.7247 115.595 61.8108C109.875 67.8969 102.958 72.6342 94.8435 76.0333C91.3256 77.5117 87.6567 78.6448 83.8582 79.4757L102.45 119.989H63.5825L47.9674 81.1375H45.9495L35.2354 119.989H0.823608L33.9175 0H91.9731C101.199 0 108.829 1.72656 114.861 5.19047ZM85.7035 52.3795C89.4696 49.6278 92.0162 45.8833 93.322 41.1353C94.5953 36.5275 94.1205 32.7723 91.9083 29.8911C89.6854 27.0099 85.7574 25.5639 80.1245 25.5639H61.2835L52.7478 56.5124H71.5889C77.2218 56.5124 81.9267 55.142 85.7035 52.3795Z" fill="#D42D26"/>
</svg>
