<svg width="1027" height="574" viewBox="0 0 1027 574" fill="none" xmlns="http://www.w3.org/2000/svg">
<circle cx="740" cy="287" r="287" fill="#C4CFEF"/>
<mask id="mask0_933_188" style="mask-type:alpha" maskUnits="userSpaceOnUse" x="2" y="57" width="944" height="139">
<path d="M52.725 195.035C41.7483 195.035 32.19 193.37 24.05 190.04C16.0333 186.71 8.695 181.468 2.035 174.315L22.94 153.225C27.5033 158.035 32.375 161.735 37.555 164.325C42.735 166.792 48.5933 168.025 55.13 168.025C60.68 168.025 64.935 167.1 67.895 165.25C70.9783 163.277 72.52 160.625 72.52 157.295C72.52 154.212 71.41 151.683 69.19 149.71C66.97 147.613 64.01 145.825 60.31 144.345C56.7333 142.742 52.725 141.262 48.285 139.905C43.9683 138.425 39.59 136.698 35.15 134.725C30.8333 132.628 26.825 130.1 23.125 127.14C19.5483 124.18 16.65 120.48 14.43 116.04C12.21 111.6 11.1 106.112 11.1 99.575C11.1 91.1883 13.0733 84.035 17.02 78.115C21.09 72.195 26.7017 67.6317 33.855 64.425C41.0083 61.2183 49.3333 59.615 58.83 59.615C68.3267 59.615 77.0833 61.2183 85.1 64.425C93.1167 67.6317 99.715 72.0717 104.895 77.745L83.805 98.65C79.8583 94.7033 75.85 91.7433 71.78 89.77C67.71 87.7967 63.27 86.81 58.46 86.81C53.8967 86.81 50.32 87.6117 47.73 89.215C45.14 90.8183 43.845 93.1 43.845 96.06C43.845 99.02 44.955 101.425 47.175 103.275C49.395 105.125 52.2933 106.79 55.87 108.27C59.57 109.627 63.5783 111.045 67.895 112.525C72.335 114.005 76.7133 115.732 81.03 117.705C85.3467 119.678 89.2933 122.207 92.87 125.29C96.57 128.373 99.53 132.258 101.75 136.945C103.97 141.632 105.08 147.305 105.08 153.965C105.08 167.038 100.455 177.152 91.205 184.305C82.0783 191.458 69.2517 195.035 52.725 195.035ZM138.17 193L109.495 102.535H140.575L157.595 168.395L148.345 168.58L168.51 102.535H197.185L217.35 168.58L208.1 168.395L225.305 102.535H256.385L227.71 193H198.665L179.425 130.47H186.64L166.845 193H138.17ZM264.709 193V102.535H297.084V193H264.709ZM280.804 91.99C275.994 91.99 271.986 90.3867 268.779 87.18C265.572 83.85 263.969 79.7183 263.969 74.785C263.969 69.975 265.572 65.905 268.779 62.575C271.986 59.245 275.994 57.58 280.804 57.58C285.861 57.58 289.931 59.245 293.014 62.575C296.221 65.905 297.824 69.975 297.824 74.785C297.824 79.7183 296.221 83.85 293.014 87.18C289.931 90.3867 285.861 91.99 280.804 91.99ZM328.236 193V65.165H360.426V193H328.236ZM308.256 129.36V102.535H380.406V129.36H308.256ZM435.045 195.035C425.425 195.035 416.73 193 408.96 188.93C401.313 184.86 395.27 179.248 390.83 172.095C386.39 164.942 384.17 156.863 384.17 147.86C384.17 138.733 386.39 130.593 390.83 123.44C395.393 116.287 401.498 110.675 409.145 106.605C416.915 102.412 425.672 100.315 435.415 100.315C442.445 100.315 448.858 101.487 454.655 103.83C460.452 106.173 465.755 109.688 470.565 114.375L450.215 134.725C448.365 132.875 446.207 131.518 443.74 130.655C441.397 129.668 438.622 129.175 435.415 129.175C431.962 129.175 428.817 129.977 425.98 131.58C423.267 133.06 421.047 135.157 419.32 137.87C417.717 140.583 416.915 143.852 416.915 147.675C416.915 151.375 417.717 154.643 419.32 157.48C421.047 160.193 423.267 162.352 425.98 163.955C428.817 165.558 431.962 166.36 435.415 166.36C438.868 166.36 441.828 165.805 444.295 164.695C446.762 163.585 448.92 161.982 450.77 159.885L471.305 180.235C466.248 185.168 460.76 188.868 454.84 191.335C449.043 193.802 442.445 195.035 435.045 195.035ZM541.601 193V141.94C541.601 137.747 540.367 134.478 537.901 132.135C535.434 129.668 532.289 128.435 528.466 128.435C525.876 128.435 523.532 128.99 521.436 130.1C519.462 131.21 517.921 132.752 516.811 134.725C515.701 136.698 515.146 139.103 515.146 141.94L502.566 136.02C502.566 128.743 504.046 122.515 507.006 117.335C510.089 112.032 514.282 107.962 519.586 105.125C524.889 102.165 531.056 100.685 538.086 100.685C545.362 100.685 551.652 102.165 556.956 105.125C562.382 107.962 566.514 111.908 569.351 116.965C572.311 122.022 573.791 127.88 573.791 134.54V193H541.601ZM482.956 193V58.135H515.146V193H482.956ZM627.177 193V61.835H660.292V193H627.177ZM653.447 193V164.51H716.717V193H653.447ZM729.738 193V102.535H762.113V193H729.738ZM745.833 91.99C741.023 91.99 737.015 90.3867 733.808 87.18C730.602 83.85 728.998 79.7183 728.998 74.785C728.998 69.975 730.602 65.905 733.808 62.575C737.015 59.245 741.023 57.58 745.833 57.58C750.89 57.58 754.96 59.245 758.043 62.575C761.25 65.905 762.853 69.975 762.853 74.785C762.853 79.7183 761.25 83.85 758.043 87.18C754.96 90.3867 750.89 91.99 745.833 91.99ZM793.266 193V65.165H825.456V193H793.266ZM773.286 129.36V102.535H845.436V129.36H773.286ZM900.999 195.035C890.886 195.035 881.944 193.062 874.174 189.115C866.404 185.045 860.299 179.433 855.859 172.28C851.419 165.127 849.199 156.925 849.199 147.675C849.199 138.548 851.357 130.47 855.674 123.44C859.991 116.287 865.849 110.675 873.249 106.605C880.772 102.412 889.221 100.315 898.594 100.315C907.721 100.315 915.799 102.288 922.829 106.235C929.982 110.058 935.532 115.423 939.479 122.33C943.549 129.113 945.584 136.883 945.584 145.64C945.584 147.49 945.461 149.402 945.214 151.375C945.091 153.225 944.721 155.383 944.104 157.85L864.369 158.22V137.5L931.339 136.945L916.909 146.01C916.786 140.953 916.046 136.822 914.689 133.615C913.332 130.285 911.359 127.757 908.769 126.03C906.179 124.303 902.911 123.44 898.964 123.44C894.894 123.44 891.379 124.427 888.419 126.4C885.459 128.373 883.177 131.148 881.574 134.725C879.971 138.302 879.169 142.618 879.169 147.675C879.169 152.855 880.032 157.295 881.759 160.995C883.486 164.572 885.952 167.285 889.159 169.135C892.366 170.985 896.312 171.91 900.999 171.91C905.439 171.91 909.324 171.17 912.654 169.69C916.107 168.21 919.191 165.928 921.904 162.845L938.739 179.68C934.299 184.737 928.872 188.56 922.459 191.15C916.169 193.74 909.016 195.035 900.999 195.035Z" fill="white"/>
</mask>
<g mask="url(#mask0_933_188)">
<circle cx="740" cy="287" r="287" fill="white"/>
</g>
</svg>
