<svg width="1920" height="504" viewBox="0 0 1920 504" fill="none" xmlns="http://www.w3.org/2000/svg">
<g opacity="0.06">
<path d="M1742.32 527C1708.25 527 1678.39 519.3 1652.72 503.9C1627.52 488.5 1607.69 467.5 1593.22 440.9C1579.22 413.833 1572.22 382.8 1572.22 347.8C1572.22 312.8 1579.22 281.766 1593.22 254.7C1607.69 227.633 1627.52 206.633 1652.72 191.7C1678.39 176.3 1708.25 168.6 1742.32 168.6C1762.85 168.6 1782.22 172.1 1800.42 179.1C1818.62 185.633 1834.02 194.966 1846.62 207.1C1859.69 219.233 1867.85 233.233 1871.12 249.1V439.5C1867.85 455.366 1859.69 470.066 1846.62 483.6C1834.02 496.666 1818.62 507.166 1800.42 515.1C1782.22 523.033 1762.85 527 1742.32 527ZM1767.52 406.6C1779.19 406.6 1789.22 404.266 1797.62 399.6C1806.02 394.466 1812.55 387.466 1817.22 378.6C1822.35 369.733 1824.92 359.466 1824.92 347.8C1824.92 336.133 1822.59 326.1 1817.92 317.7C1813.25 308.833 1806.49 301.833 1797.62 296.7C1789.22 291.566 1779.42 289 1768.22 289C1757.02 289 1746.99 291.566 1738.12 296.7C1729.72 301.833 1722.95 308.833 1717.82 317.7C1712.69 326.566 1710.12 336.6 1710.12 347.8C1710.12 359 1712.45 369.033 1717.12 377.9C1722.25 386.766 1729.25 393.766 1738.12 398.9C1746.99 404.033 1756.79 406.6 1767.52 406.6ZM1954.42 520H1820.72V427.6L1839.62 343.6L1817.22 260.3V7.59961H1954.42V520Z" fill="#666666"/>
<path d="M1364.64 528.4C1331.04 528.4 1301.17 521.866 1275.04 508.8C1249.37 495.733 1229.07 477.533 1214.14 454.2C1199.2 430.866 1191.74 404.266 1191.74 374.4V175.6H1328.94V375.8C1328.94 382.8 1330.34 389.1 1333.14 394.7C1336.4 400.3 1340.6 404.733 1345.74 408C1351.34 410.8 1357.64 412.2 1364.64 412.2C1374.44 412.2 1382.6 408.933 1389.14 402.4C1396.14 395.4 1399.64 386.533 1399.64 375.8V175.6H1536.84V374.4C1536.84 404.733 1529.37 431.566 1514.44 454.9C1499.97 477.766 1479.67 495.733 1453.54 508.8C1427.87 521.866 1398.24 528.4 1364.64 528.4Z" fill="#666666"/>
<path d="M962.914 528.4C925.114 528.4 891.281 520.7 861.414 505.3C832.014 489.433 808.681 467.733 791.414 440.2C774.614 412.666 766.214 381.633 766.214 347.1C766.214 312.566 774.614 281.766 791.414 254.7C808.214 227.633 831.314 206.4 860.714 191C890.581 175.133 924.414 167.2 962.214 167.2C1000.01 167.2 1033.61 175.133 1063.01 191C1092.41 206.4 1115.51 227.633 1132.31 254.7C1149.58 281.766 1158.21 312.566 1158.21 347.1C1158.21 381.633 1149.81 412.666 1133.01 440.2C1116.21 467.733 1093.11 489.433 1063.71 505.3C1034.31 520.7 1000.71 528.4 962.914 528.4ZM962.214 408C973.881 408 983.914 405.666 992.314 401C1001.18 395.866 1007.95 388.866 1012.61 380C1017.28 370.666 1019.61 359.933 1019.61 347.8C1019.61 335.666 1017.05 325.166 1011.91 316.3C1007.25 306.966 1000.71 299.966 992.314 295.3C983.914 290.166 973.881 287.6 962.214 287.6C951.014 287.6 940.981 290.166 932.114 295.3C923.714 300.433 916.947 307.666 911.814 317C907.147 325.866 904.814 336.366 904.814 348.5C904.814 360.166 907.147 370.666 911.814 380C916.947 388.866 923.714 395.866 932.114 401C940.981 405.666 951.014 408 962.214 408Z" fill="#666666"/>
<path d="M586.287 520V7.59961H723.487V520H586.287Z" fill="#666666"/>
<path d="M212.06 520V34.1996H349.26V520H212.06ZM138.56 287.6V175.6H422.76V287.6H138.56Z" fill="#666666"/>
<path d="M-35.8 520V175.6H101.4V520H-35.8ZM32.8 143.4C12.7333 143.4 -4.06667 136.633 -17.6 123.1C-30.6667 109.1 -37.2 92.0663 -37.2 71.9996C-37.2 51.9329 -30.6667 35.133 -17.6 21.5996C-4.06667 7.59963 12.7333 0.599609 32.8 0.599609C53.3333 0.599609 70.1333 7.59963 83.2 21.5996C96.2667 35.133 102.8 51.9329 102.8 71.9996C102.8 92.0663 96.2667 109.1 83.2 123.1C70.1333 136.633 53.3333 143.4 32.8 143.4Z" fill="#666666"/>
</g>
</svg>
