<svg width="26" height="26" viewBox="0 0 26 26" fill="none" xmlns="http://www.w3.org/2000/svg">
<g clip-path="url(#clip0_900_54)">
<mask id="mask0_900_54" style="mask-type:luminance" maskUnits="userSpaceOnUse" x="0" y="0" width="26" height="26">
<path d="M26 0H0V26H26V0Z" fill="white"/>
</mask>
<g mask="url(#mask0_900_54)">
<path fill-rule="evenodd" clip-rule="evenodd" d="M13 2.86C13 1.28047 11.7195 0 10.14 0H2.86C1.28047 0 0 1.28046 0 2.86V10.2335C0 11.8131 1.28047 13.0935 2.86 13.0935H10.14C11.7195 13.0935 13 14.374 13 15.9535V23.14C13 24.7195 14.2805 26 15.86 26H23.14C24.7195 26 26 24.7195 26 23.14V15.7664C26 14.1869 24.7195 12.9065 23.14 12.9065H15.86C14.2805 12.9065 13 11.626 13 10.0465V2.86Z" fill="#D42D26"/>
</g>
</g>
<defs>
<clipPath id="clip0_900_54">
<rect width="26" height="26" fill="white"/>
</clipPath>
</defs>
</svg>
