<svg width="122" height="116" viewBox="0 0 122 116" fill="none" xmlns="http://www.w3.org/2000/svg">
<path fill-rule="evenodd" clip-rule="evenodd" d="M108.12 5.03125C113.77 8.30078 117.69 12.9316 119.88 18.9316L119.87 18.9199C122.06 24.9199 122 32.2012 119.7 40.75C117.46 49.0703 113.62 56.2812 108.17 62.4004C102.72 68.5215 96.3 73.1816 88.91 76.3906C81.51 79.6016 73.78 81.2012 65.7 81.2012H41.83L32.4632 116H0.573029L31.76 0.130859H87.52C95.6 0.130859 102.47 1.77148 108.12 5.03125ZM75.52 55.6309C78.41 54.3809 80.96 52.5117 83.18 50.0215L83.17 50.0117C85.38 47.5215 86.99 44.4316 87.98 40.75C88.97 37.0703 89.03 33.9609 88.18 31.4004C87.32 28.8516 85.79 26.9512 83.57 25.7012C81.35 24.4512 78.7 23.8301 75.61 23.8301H57.26L48.2 57.5H66.55C69.64 57.5 72.63 56.8809 75.52 55.6309Z" fill="#D42D26"/>
</svg>
