<svg width="1412" height="484" viewBox="0 0 1412 484" fill="none" xmlns="http://www.w3.org/2000/svg">
<g opacity="0.06">
<path d="M1159.22 337L1023.42 -7.40039H1169.02L1248.82 285.9H1188.62L1267.02 -7.40039H1411.92L1276.82 337H1159.22ZM1084.32 484L1184.42 257.9L1276.82 337L1218.72 484H1084.32Z" fill="#666666"/>
<path d="M774.673 344C742.473 344 714.007 336.3 689.273 320.9C664.54 305.5 645.173 284.5 631.173 257.9C617.173 230.833 610.173 199.8 610.173 164.8C610.173 129.8 617.173 98.7663 631.173 71.6996C645.173 44.633 664.54 23.633 689.273 8.69965C714.007 -6.70036 742.473 -14.4004 774.673 -14.4004C794.74 -14.4004 813.173 -10.9004 829.973 -3.90039C847.24 2.63294 861.473 11.9663 872.673 24.0996C884.34 36.2329 891.807 50.2329 895.073 66.0996V263.5C891.807 279.366 884.34 293.366 872.673 305.5C861.473 317.633 847.24 327.2 829.973 334.2C813.173 340.733 794.74 344 774.673 344ZM805.473 223.6C822.74 223.6 836.507 218.233 846.773 207.5C857.507 196.3 862.873 182.066 862.873 164.8C862.873 153.133 860.54 143.1 855.873 134.7C851.207 125.833 844.44 118.833 835.573 113.7C827.173 108.566 817.373 106 806.173 106C794.973 106 784.94 108.566 776.073 113.7C767.673 118.833 760.907 125.833 755.773 134.7C750.64 143.566 748.073 153.6 748.073 164.8C748.073 176 750.407 186.033 755.073 194.9C760.207 203.766 767.207 210.766 776.073 215.9C784.94 221.033 794.74 223.6 805.473 223.6ZM858.673 337V244.6L877.573 160.6L858.673 77.2996V-7.40039H992.373V337H858.673Z" fill="#666666"/>
<path d="M428.146 337V-175.4H565.346V337H428.146Z" fill="#666666"/>
<path d="M213 344C192.467 344 173.1 340.733 154.9 334.2C136.7 327.2 121.3 317.633 108.7 305.5C96.1 293.366 87.9333 279.366 84.2 263.5V73.0996C87.9333 57.2329 96.1 42.7663 108.7 29.6996C121.3 16.1663 136.7 5.43296 154.9 -2.50037C173.1 -10.4337 192.467 -14.4004 213 -14.4004C247.067 -14.4004 276.7 -6.70036 301.9 8.69965C327.567 23.633 347.4 44.633 361.4 71.6996C375.867 98.7663 383.1 129.8 383.1 164.8C383.1 199.8 375.867 230.833 361.4 257.9C347.4 284.5 327.567 305.5 301.9 320.9C276.7 336.3 247.067 344 213 344ZM0.899994 484V-7.40039H138.1V77.2996L115.7 160.6L134.6 244.6V484H0.899994ZM187.1 223.6C198.3 223.6 208.333 221.033 217.2 215.9C226.067 210.766 232.833 203.766 237.5 194.9C242.633 186.033 245.2 176 245.2 164.8C245.2 153.133 242.633 143.1 237.5 134.7C232.833 125.833 226.067 118.833 217.2 113.7C208.8 108.566 199 106 187.8 106C176.6 106 166.567 108.566 157.7 113.7C149.3 118.366 142.533 125.133 137.4 134C132.733 142.866 130.4 153.133 130.4 164.8C130.4 176 132.733 186.033 137.4 194.9C142.067 203.766 148.6 210.766 157 215.9C165.867 221.033 175.9 223.6 187.1 223.6Z" fill="#666666"/>
</g>
</svg>
