<svg width="594" height="120" viewBox="0 0 594 120" fill="none" xmlns="http://www.w3.org/2000/svg">
<path fill-rule="evenodd" clip-rule="evenodd" d="M538.44 99.3301C543.46 97.4902 548.05 94.8496 552.21 91.3984V91.4395L567.69 112.818C563.984 115.5 560.169 117.895 556.248 120H479.714C476.587 117.637 473.844 114.912 471.49 111.83C467 105.949 464.16 99.0293 462.97 91.0684C461.78 83.1191 462.43 74.6191 465.02 65.2402C467.61 55.8594 471.68 47.2188 477.25 39.3184C482.81 31.4199 489.45 24.5586 497.18 18.7402C504.91 12.9199 513.29 8.34961 522.35 5.01953C531.4 1.69922 540.2 0.0292969 550.18 0.0292969C560.16 0.0292969 568.69 1.59961 575.78 4.75C582.87 7.88867 588.67 12.2598 593.19 17.8398L565.91 39.2188C563.86 35.8984 560.9 33.2793 557.03 31.3789C553.16 29.4785 548.26 28.5293 542.32 28.5293C537.22 28.5293 532.32 29.3594 527.65 31.0195C522.97 32.6797 518.64 35.1387 514.65 38.4102C510.66 41.6797 507.18 45.5684 504.21 50.0801C501.24 54.5898 498.99 59.6387 497.45 65.2188C495.91 70.7988 495.37 75.8496 495.85 80.3594C496.32 84.8789 497.65 88.7598 499.84 92.0293C502.02 95.2988 504.99 97.7891 508.73 99.5098C512.47 101.229 516.89 102.09 522 102.09C527.94 102.09 533.42 101.17 538.44 99.3301Z" fill="#D42D26"/>
<path fill-rule="evenodd" clip-rule="evenodd" d="M401.81 29.5801H363.15L370.72 2.14062H479.94L472.36 29.5801H433.7L408.734 120H376.844L401.81 29.5801Z" fill="#D42D26"/>
<path fill-rule="evenodd" clip-rule="evenodd" d="M291.863 120H323.753L356.29 2.14062H324.4L291.863 120Z" fill="#D42D26"/>
<path fill-rule="evenodd" clip-rule="evenodd" d="M235.86 2.14062L237.12 76.4512L279.68 2.14062H311.04L240.937 120H210.102L208.93 53.2715L171.048 120H140.061L135.2 2.14062H166.73L168.26 76.1504L210.38 2.14062H235.86Z" fill="#D42D26"/>
<path fill-rule="evenodd" clip-rule="evenodd" d="M91.12 55.9492C94.76 57.8496 97.91 60.2793 100.6 63.25H100.61C103.29 66.2207 105.08 69.9609 105.97 74.4707C106.86 78.9805 106.42 84.4492 104.65 90.8594C101.183 103.4 94.115 113.113 83.4346 120H8.3362C5.21034 117.355 2.43213 114.176 0 110.461L25.74 90.1602C28.86 94.7891 32.57 98.3301 36.89 100.76C41.21 103.189 46.51 104.41 52.81 104.41C58.16 104.41 62.54 103.49 65.96 101.65C69.37 99.8105 71.52 97.2891 72.41 94.0801C73.23 91.1191 72.84 88.6504 71.24 86.6895C69.64 84.7305 67.29 83.0098 64.2 81.5195C61.11 80.0293 57.64 78.6094 53.8 77.2402C49.96 75.8691 46.2 74.2109 42.53 72.25C38.85 70.2891 35.66 67.8809 32.94 65.0293C30.22 62.1797 28.39 58.6191 27.43 54.3398C26.47 50.0605 26.86 44.7793 28.6 38.4805C30.82 30.4004 34.66 23.5098 40.09 17.8105C45.52 12.1094 52.11 7.7207 59.85 4.63086C67.59 1.53906 76.04 0 85.18 0C94.32 0 102.33 1.53906 109.2 4.63086C116.06 7.7207 121.24 12 124.72 17.4609L98.85 37.5898C96.1 33.7891 93.02 30.9395 89.63 29.0391C86.24 27.1406 82.22 26.1895 77.59 26.1895C73.2 26.1895 69.54 26.9707 66.62 28.5098C63.7 30.0508 61.84 32.25 61.06 35.0996C60.28 37.9492 60.7 40.2695 62.35 42.0508C64 43.8301 66.38 45.4102 69.51 46.7695C72.64 48.1406 76.12 49.5293 79.94 50.9609C83.76 52.3906 87.49 54.0508 91.12 55.9492Z" fill="#D42D26"/>
</svg>
