<svg width="1920" height="508" viewBox="0 0 1920 508" fill="none" xmlns="http://www.w3.org/2000/svg">
<path opacity="0.03" d="M-1833.33 50.335C-1847.49 50.335 -1858.84 52.166 -1867.39 55.8281C-1875.69 59.2461 -1883.38 65.8379 -1890.46 75.6035C-1904.38 94.8906 -1911.33 120.159 -1911.33 151.409C-1911.33 158.733 -1909.87 176.067 -1906.94 203.411C-1881.55 145.306 -1849.81 116.253 -1811.72 116.253C-1784.87 116.253 -1764.12 124.065 -1749.47 139.69C-1734.82 155.315 -1727.5 176.312 -1727.5 202.679C-1727.5 214.886 -1730.67 227.093 -1737.02 239.3C-1743.36 251.507 -1751.91 261.639 -1762.65 269.695C-1773.15 277.508 -1784.26 281.414 -1795.98 281.414C-1803.06 281.414 -1808.18 280.438 -1811.36 278.484C-1814.53 276.287 -1816.12 272.259 -1816.12 266.399C-1816.12 266.399 -1814.78 263.714 -1812.09 258.343C-1809.16 252.972 -1807.7 248.333 -1807.7 244.427C-1807.7 236.126 -1810.75 228.68 -1816.85 222.088C-1822.71 215.496 -1830.4 212.2 -1839.92 212.2C-1851.4 212.2 -1862.38 215.618 -1872.88 222.454C-1883.38 229.29 -1891.92 239.788 -1898.52 253.948C-1905.11 268.108 -1908.4 284.954 -1908.4 304.485C-1908.4 312.542 -1908.04 321.331 -1907.3 330.853C-1906.57 340.374 -1905.84 351.482 -1905.11 364.178C-1904.38 376.873 -1904.01 389.935 -1904.01 403.362C-1904.01 418.011 -1901.69 431.316 -1897.05 443.279C-1892.17 454.998 -1885.21 465.008 -1876.18 473.309C-1872.03 477.215 -1869.95 482.952 -1869.95 490.521C-1869.95 496.136 -1872.51 499.92 -1877.64 501.873C-1882.77 503.826 -1890.46 504.803 -1900.71 504.803H-1919.76C-1925.62 504.559 -1930.99 504.437 -1935.87 504.437C-1940.75 504.192 -1947.34 504.07 -1955.64 504.07C-1959.31 504.07 -1969.19 504.559 -1985.31 505.535C-2001.42 506.512 -2015.21 507 -2026.69 507C-2042.8 507 -2054.28 506.268 -2061.11 504.803C-2067.71 503.094 -2071 499.065 -2071 492.718C-2071 485.394 -2069.29 479.412 -2065.87 474.773C-2056.6 463.055 -2050.49 454.998 -2047.56 450.604C-2044.39 445.965 -2042.31 440.838 -2041.34 435.223C-2040.12 429.363 -2039.51 420.818 -2039.51 409.588V368.938L-2041.7 156.902C-2041.7 145.184 -2042.31 134.075 -2043.54 123.577C-2044.51 112.835 -2045.73 104.046 -2047.2 97.21C-2048.66 90.374 -2050.37 83.6602 -2052.32 77.0684C-2054.28 70.4766 -2055.99 64.9834 -2057.45 60.5889C-2058.92 55.7061 -2062.58 50.5791 -2068.44 45.208C-2074.3 39.8369 -2077.23 33.001 -2077.23 24.7002C-2077.23 16.6436 -2074.3 11.6387 -2068.44 9.68555C-2062.33 7.73242 -2049.76 6.75586 -2030.72 6.75586H-2002.89C-1977.98 6.75586 -1948.44 7.24414 -1914.26 8.2207C-1880.08 9.19727 -1858.35 9.68555 -1849.08 9.68555C-1827.1 9.68555 -1801.47 8.09863 -1772.17 4.9248C-1742.63 1.75098 -1723.47 0.164062 -1714.68 0.164062C-1708.33 0.164062 -1702.23 8.09863 -1696.37 23.9678C-1690.26 39.5928 -1687.21 60.5889 -1687.21 86.9561C-1687.21 94.0361 -1688.92 100.018 -1692.34 104.9C-1695.51 109.539 -1699.05 111.858 -1702.96 111.858C-1707.35 111.858 -1710.53 111.126 -1712.48 109.661C-1729.08 93.0596 -1741.41 81.4629 -1749.47 74.8711C-1757.28 68.2793 -1768.02 62.542 -1781.69 57.6592C-1795.37 52.7764 -1812.58 50.335 -1833.33 50.335ZM-1198.32 208.538V257.977C-1198.32 298.016 -1198.44 329.998 -1198.69 353.924C-1198.69 377.85 -1198.81 404.095 -1199.05 432.659C-1199.05 448.284 -1193.32 461.59 -1181.84 472.576C-1175.74 478.436 -1172.69 484.905 -1172.69 491.985C-1172.69 498.577 -1175 502.728 -1179.64 504.437C-1184.04 506.146 -1197.47 507 -1219.93 507C-1228.23 506.756 -1237.14 506.512 -1246.66 506.268C-1255.94 506.023 -1264.48 505.779 -1272.29 505.535C-1279.86 505.291 -1286.21 505.169 -1291.34 505.169C-1296.46 504.925 -1303.91 504.803 -1313.68 504.803C-1323.69 504.803 -1331.38 504.925 -1336.75 505.169C-1341.88 505.169 -1348.83 505.291 -1357.62 505.535C-1366.17 505.779 -1375.93 506.023 -1386.92 506.268C-1397.91 506.512 -1408.53 506.756 -1418.78 507C-1438.31 507 -1454.42 506.756 -1467.12 506.268C-1479.57 505.535 -1492.75 503.704 -1506.67 500.774C-1520.59 497.845 -1534.75 492.962 -1549.15 486.126C-1580.64 470.501 -1605.06 447.186 -1622.39 416.18C-1639.48 384.93 -1648.03 348.675 -1648.03 307.415C-1648.03 280.804 -1645.83 255.657 -1641.44 231.976C-1636.8 208.294 -1630.94 185.345 -1623.86 163.128C-1616.53 140.667 -1610.19 120.892 -1604.81 103.802C-1599.2 86.4678 -1596.39 73.6504 -1596.39 65.3496C-1596.39 56.0723 -1601.15 47.5273 -1610.67 39.7148C-1614.58 36.2969 -1616.53 29.583 -1616.53 19.5732C-1616.53 15.9111 -1615.19 12.8594 -1612.5 10.418C-1609.82 7.97656 -1606.4 6.75586 -1602.25 6.75586C-1592.49 6.75586 -1585.53 6.87793 -1581.38 7.12207C-1576.98 7.12207 -1571.98 7.24414 -1566.36 7.48828C-1560.5 7.73242 -1553.79 7.97656 -1546.22 8.2207C-1538.65 8.46484 -1531.08 8.70898 -1523.52 8.95312C-1518.14 8.95312 -1511.8 8.83105 -1504.47 8.58691C-1497.15 8.09863 -1489.95 7.73242 -1482.87 7.48828C-1475.54 7 -1469.19 6.75586 -1463.82 6.75586C-1459.18 6.75586 -1455.16 8.58691 -1451.74 12.249C-1448.32 15.9111 -1446.61 20.0615 -1446.61 24.7002C-1446.61 32.0244 -1448.81 42.5225 -1453.2 56.1943C-1457.6 69.8662 -1463.7 89.0313 -1471.51 113.689C-1479.08 138.348 -1485.19 164.593 -1489.82 192.425C-1494.46 220.013 -1496.78 248.333 -1496.78 277.386C-1496.78 308.147 -1495.2 333.538 -1492.02 353.558C-1488.85 373.577 -1482.13 391.766 -1471.88 408.123C-1460.41 426.189 -1446.25 440.472 -1429.4 450.97C-1412.31 461.224 -1394.98 466.351 -1377.4 466.351C-1364.46 466.351 -1355.18 463.787 -1349.57 458.66C-1343.95 453.533 -1340.78 445.11 -1340.04 433.392C-1337.85 393.841 -1335.65 350.14 -1333.45 302.288C-1331.25 254.437 -1330.16 218.67 -1330.16 194.988V164.227C-1330.16 128.338 -1331.74 101.727 -1334.92 84.3926C-1338.09 67.0586 -1345.29 54.7295 -1356.52 47.4053C-1365.56 41.0576 -1370.07 33.001 -1370.07 23.2354C-1370.07 18.1084 -1368 13.958 -1363.85 10.7842C-1359.7 7.61035 -1354.69 6.02344 -1348.83 6.02344C-1335.89 6.02344 -1321.12 6.63379 -1304.52 7.85449C-1287.92 9.0752 -1276.69 9.68555 -1270.83 9.68555C-1266.92 9.68555 -1262.41 9.56348 -1257.28 9.31934C-1252.15 8.83105 -1247.03 8.46484 -1241.9 8.2207C-1236.77 7.73242 -1232.26 7.48828 -1228.35 7.48828C-1213.95 7.48828 -1204.79 10.9062 -1200.88 17.7422C-1196.98 24.5781 -1195.02 35.6865 -1195.02 51.0674V69.7441C-1194.54 79.7539 -1194.29 93.792 -1194.29 111.858C-1194.29 131.39 -1194.66 147.137 -1195.39 159.1C-1195.88 171.062 -1196.49 181.805 -1197.22 191.326C-1197.95 200.848 -1198.32 206.585 -1198.32 208.538ZM-1061.72 338.177V156.902C-1061.72 132.977 -1063.92 111.736 -1068.32 93.1816C-1072.71 74.3828 -1078.08 60.833 -1084.43 52.5322C-1087.36 48.8701 -1089.92 45.6963 -1092.12 43.0107C-1094.07 40.3252 -1095.54 37.6396 -1096.51 34.9541C-1097.49 32.2686 -1097.98 28.8506 -1097.98 24.7002C-1097.98 20.5498 -1097.12 16.8877 -1095.42 13.7139C-1093.71 10.54 -1091.26 8.95312 -1088.09 8.95312C-1076.62 8.95312 -1067.71 9.0752 -1061.36 9.31934C-1054.77 9.31934 -1045.98 9.44141 -1034.99 9.68555C-1023.76 9.92969 -1010.58 10.1738 -995.439 10.418C-980.059 10.6621 -965.166 10.9062 -950.762 11.1504C-894.365 11.1504 -837.358 9.68555 -779.741 6.75586C-775.347 6.51172 -770.098 5.7793 -763.994 4.55859C-757.646 3.09375 -751.665 2.36133 -746.05 2.36133C-735.308 2.36133 -728.105 2.84961 -724.443 3.82617C-720.781 4.80273 -718.218 7.48828 -716.753 11.8828C-708.696 39.959 -704.668 64.9834 -704.668 86.9561C-704.668 102.093 -710.771 109.661 -722.979 109.661C-727.861 109.661 -731.035 108.807 -732.5 107.098C-744.463 93.1816 -755.693 82.1953 -766.191 74.1387C-776.445 65.8379 -788.774 59.4902 -803.179 55.0957C-817.583 50.457 -834.307 48.1377 -853.35 48.1377C-879.961 48.1377 -900.103 57.293 -913.774 75.6035C-927.446 93.6699 -934.282 118.45 -934.282 149.944C-934.282 158.001 -932.817 174.969 -929.888 200.848C-898.882 144.451 -866.411 116.253 -832.476 116.253C-805.864 116.253 -785.356 124.065 -770.952 139.69C-756.304 155.071 -748.979 176.067 -748.979 202.679C-748.979 219.036 -756.182 236.248 -770.586 254.314C-784.99 272.381 -801.104 281.414 -818.926 281.414C-825.029 281.414 -829.424 280.438 -832.109 278.484C-834.795 276.287 -836.138 272.503 -836.138 267.132C-836.138 267.62 -835.039 265.057 -832.842 259.441C-830.4 253.582 -829.18 249.065 -829.18 245.892C-829.18 237.103 -832.354 229.534 -838.701 223.187C-845.049 216.839 -853.228 213.665 -863.237 213.665C-872.271 213.665 -880.693 215.252 -888.506 218.426C-896.074 221.355 -900.591 225.262 -902.056 230.145C-911.333 263.836 -917.803 287.396 -921.465 300.823C-924.883 314.007 -928.057 327.679 -930.986 341.839C-933.672 355.999 -935.015 368.328 -935.015 378.826C-935.015 401.531 -929.033 419.598 -917.07 433.025C-905.107 446.453 -890.337 453.167 -872.759 453.167C-857.866 453.167 -846.514 452.557 -838.701 451.336C-830.645 450.115 -821.489 446.697 -811.235 441.082C-773.149 417.889 -742.632 388.348 -719.683 352.459C-718.706 350.994 -713.701 350.262 -704.668 350.262C-699.297 350.262 -694.902 353.069 -691.484 358.685C-687.822 364.3 -685.991 371.746 -685.991 381.023C-685.991 390.057 -688.311 400.921 -692.949 413.616C-697.588 426.067 -704.302 442.181 -713.091 461.956C-715.532 468.304 -718.096 474.896 -720.781 481.731C-723.467 488.567 -726.519 493.816 -729.937 497.479C-733.11 500.896 -737.627 503.46 -743.486 505.169C-749.102 506.878 -757.524 507.732 -768.755 507.732C-772.173 507.732 -789.873 506.756 -821.855 504.803C-853.838 502.85 -883.867 501.873 -911.943 501.873C-927.568 501.873 -955.034 502.361 -994.341 503.338C-1033.65 504.314 -1064.9 504.803 -1088.09 504.803C-1094.68 504.803 -1097.98 501.019 -1097.98 493.45C-1097.98 484.905 -1096.39 478.68 -1093.22 474.773C-1088.33 468.914 -1083.45 462.688 -1078.57 456.097C-1073.44 449.505 -1069.9 442.669 -1067.95 435.589C-1066 428.509 -1064.53 417.645 -1063.55 402.996C-1062.33 388.104 -1061.72 366.497 -1061.72 338.177ZM-299.639 5.29102C-280.596 5.29102 -264.238 8.09863 -250.566 13.7139C-236.895 19.085 -226.763 26.8975 -220.171 37.1514C-213.579 47.4053 -210.283 59.7344 -210.283 74.1387C-210.283 90.4961 -216.753 107.342 -229.692 124.676C-242.632 142.01 -259.478 156.17 -280.229 167.156C-300.981 178.143 -322.466 183.636 -344.683 183.636C-361.528 183.636 -374.956 180.95 -384.966 175.579C-394.731 169.964 -399.614 162.396 -399.614 152.874C-399.614 150.188 -393.755 146.038 -382.036 140.423C-368.853 133.099 -358.843 125.774 -352.007 118.45C-345.171 110.882 -341.753 101.116 -341.753 89.1533C-341.753 77.1904 -347.49 66.9365 -358.965 58.3916C-370.439 49.8467 -385.454 45.5742 -404.009 45.5742C-416.704 45.5742 -428.911 50.2129 -440.63 59.4902C-452.104 68.5234 -461.992 81.3408 -470.293 97.9424C-478.594 114.544 -484.209 134.686 -487.139 158.367C-490.557 185.223 -492.266 217.938 -492.266 256.512C-492.266 298.748 -485.308 335.369 -471.392 366.375C-457.231 397.381 -437.7 421.062 -412.798 437.42C-387.651 453.777 -359.209 461.956 -327.471 461.956C-307.939 461.956 -285.479 457.928 -260.088 449.871C-234.453 441.57 -218.462 437.42 -212.114 437.42C-208.696 437.42 -205.767 438.396 -203.325 440.35C-200.64 442.303 -199.297 444.988 -199.297 448.406C-199.297 453.289 -210.039 460.735 -231.523 470.745C-253.008 480.511 -279.497 489.178 -310.991 496.746C-342.241 504.07 -372.271 507.732 -401.079 507.732C-425.005 507.732 -447.954 505.901 -469.927 502.239C-491.899 498.333 -510.698 492.962 -526.323 486.126C-544.878 477.825 -561.479 467.205 -576.128 454.266C-590.776 441.326 -603.594 426.067 -614.58 408.489C-625.322 390.667 -633.501 371.99 -639.116 352.459C-644.731 332.928 -647.539 312.42 -647.539 290.936C-647.539 267.742 -645.586 245.892 -641.68 225.384C-637.773 204.876 -631.792 181.927 -623.735 156.536C-615.679 130.901 -610.308 113.445 -607.622 104.168C-604.937 94.6465 -603.594 82.9277 -603.594 69.0117C-603.594 60.9551 -606.768 54.2412 -613.115 48.8701C-619.219 42.7666 -622.271 34.9541 -622.271 25.4326C-622.271 22.5029 -620.562 19.5732 -617.144 16.6436C-613.481 13.7139 -609.453 11.3945 -605.059 9.68555C-598.467 8.2207 -589.678 7.48828 -578.691 7.48828C-574.541 7.48828 -566.24 7.85449 -553.789 8.58691C-541.338 9.31934 -533.403 9.68555 -529.985 9.68555C-474.321 9.68555 -420.732 8.95312 -369.219 7.48828C-317.705 6.02344 -294.512 5.29102 -299.639 5.29102ZM111.982 507C58.2715 507 12.7393 498.089 -24.6143 480.267C-61.9678 462.2 -90.166 436.565 -109.209 403.362C-128.252 369.915 -137.773 330.73 -137.773 285.809C-137.773 257.732 -135.21 232.708 -130.083 210.735C-124.956 188.763 -117.51 160.931 -107.744 127.239C-97.7344 93.3037 -92.7295 70.1104 -92.7295 57.6592C-92.7295 50.335 -95.415 44.3535 -100.786 39.7148C-105.425 36.0527 -107.744 30.3154 -107.744 22.5029C-107.744 18.1084 -105.181 14.4463 -100.054 11.5166C-94.6826 8.34277 -87.2363 6.75586 -77.7148 6.75586C-60.3809 6.75586 -40.2393 7.24414 -17.29 8.2207C5.90332 8.95312 28.9746 9.80762 51.9238 10.7842C74.873 11.5166 94.8926 11.8828 111.982 11.8828C128.096 11.8828 146.772 11.5166 168.013 10.7842C189.253 9.80762 210.493 8.95312 231.733 8.2207C252.974 7.24414 271.65 6.75586 287.764 6.75586C311.201 6.75586 322.92 14.2021 322.92 29.0947C322.92 34.9541 320.112 39.959 314.497 44.1094C312.544 45.8184 311.201 48.1377 310.469 51.0674C309.736 53.9971 309.37 58.2695 309.37 63.8848C309.37 73.4062 311.567 86.3457 315.962 102.703C320.601 119.061 326.216 138.226 332.808 160.198C339.644 182.171 345.015 204.754 348.921 227.947C353.071 250.896 355.146 275.433 355.146 301.556C355.146 323.772 351.484 346.233 344.16 368.938C336.836 391.399 326.948 410.687 314.497 426.8C293.745 453.899 266.401 474.041 232.466 487.225C198.774 500.408 158.613 507 111.982 507ZM111.982 458.294C125.898 458.294 139.692 452.19 153.364 439.983C167.036 427.532 176.802 410.931 182.661 390.179C184.614 383.831 186.812 372.601 189.253 356.487C191.694 340.374 193.647 323.04 195.112 304.485C196.821 285.931 197.676 268.23 197.676 251.385C197.676 192.303 194.868 150.555 189.253 126.141C184.858 103.191 175.581 84.8809 161.421 71.209C147.261 57.293 130.781 50.335 111.982 50.335C87.8125 50.335 68.6475 58.2695 54.4873 74.1387C40.3271 89.7637 30.1953 113.079 24.0918 144.085C18.2324 175.091 15.3027 214.52 15.3027 262.371C15.3027 281.658 17.2559 304.607 21.1621 331.219C25.3125 357.586 29.585 377.972 33.9795 392.376C41.0596 412.884 51.4355 428.997 65.1074 440.716C78.7793 452.435 94.4043 458.294 111.982 458.294ZM765.303 5.29102C784.346 5.29102 800.703 8.09863 814.375 13.7139C828.047 19.085 838.179 26.8975 844.771 37.1514C851.362 47.4053 854.658 59.7344 854.658 74.1387C854.658 90.4961 848.188 107.342 835.249 124.676C822.31 142.01 805.464 156.17 784.712 167.156C763.96 178.143 742.476 183.636 720.259 183.636C703.413 183.636 689.985 180.95 679.976 175.579C670.21 169.964 665.327 162.396 665.327 152.874C665.327 150.188 671.187 146.038 682.905 140.423C696.089 133.099 706.099 125.774 712.935 118.45C719.771 110.882 723.188 101.116 723.188 89.1533C723.188 77.1904 717.451 66.9365 705.977 58.3916C694.502 49.8467 679.487 45.5742 660.933 45.5742C648.237 45.5742 636.03 50.2129 624.312 59.4902C612.837 68.5234 602.949 81.3408 594.648 97.9424C586.348 114.544 580.732 134.686 577.803 158.367C574.385 185.223 572.676 217.938 572.676 256.512C572.676 298.748 579.634 335.369 593.55 366.375C607.71 397.381 627.241 421.062 652.144 437.42C677.29 453.777 705.732 461.956 737.471 461.956C757.002 461.956 779.463 457.928 804.854 449.871C830.488 441.57 846.479 437.42 852.827 437.42C856.245 437.42 859.175 438.396 861.616 440.35C864.302 442.303 865.645 444.988 865.645 448.406C865.645 453.289 854.902 460.735 833.418 470.745C811.934 480.511 785.444 489.178 753.95 496.746C722.7 504.07 692.671 507.732 663.862 507.732C639.937 507.732 616.987 505.901 595.015 502.239C573.042 498.333 554.243 492.962 538.618 486.126C520.063 477.825 503.462 467.205 488.813 454.266C474.165 441.326 461.348 426.067 450.361 408.489C439.619 390.667 431.44 371.99 425.825 352.459C420.21 332.928 417.402 312.42 417.402 290.936C417.402 267.742 419.355 245.892 423.262 225.384C427.168 204.876 433.149 181.927 441.206 156.536C449.263 130.901 454.634 113.445 457.319 104.168C460.005 94.6465 461.348 82.9277 461.348 69.0117C461.348 60.9551 458.174 54.2412 451.826 48.8701C445.723 42.7666 442.671 34.9541 442.671 25.4326C442.671 22.5029 444.38 19.5732 447.798 16.6436C451.46 13.7139 455.488 11.3945 459.883 9.68555C466.475 8.2207 475.264 7.48828 486.25 7.48828C490.4 7.48828 498.701 7.85449 511.152 8.58691C523.604 9.31934 531.538 9.68555 534.956 9.68555C590.62 9.68555 644.209 8.95312 695.723 7.48828C747.236 6.02344 770.43 5.29102 765.303 5.29102ZM1176.92 507C1123.21 507 1077.68 498.089 1040.33 480.267C1002.97 462.2 974.775 436.565 955.732 403.362C936.689 369.915 927.168 330.73 927.168 285.809C927.168 257.732 929.731 232.708 934.858 210.735C939.985 188.763 947.432 160.931 957.197 127.239C967.207 93.3037 972.212 70.1104 972.212 57.6592C972.212 50.335 969.526 44.3535 964.155 39.7148C959.517 36.0527 957.197 30.3154 957.197 22.5029C957.197 18.1084 959.761 14.4463 964.888 11.5166C970.259 8.34277 977.705 6.75586 987.227 6.75586C1004.56 6.75586 1024.7 7.24414 1047.65 8.2207C1070.84 8.95312 1093.92 9.80762 1116.87 10.7842C1139.81 11.5166 1159.83 11.8828 1176.92 11.8828C1193.04 11.8828 1211.71 11.5166 1232.95 10.7842C1254.19 9.80762 1275.43 8.95312 1296.67 8.2207C1317.92 7.24414 1336.59 6.75586 1352.71 6.75586C1376.14 6.75586 1387.86 14.2021 1387.86 29.0947C1387.86 34.9541 1385.05 39.959 1379.44 44.1094C1377.49 45.8184 1376.14 48.1377 1375.41 51.0674C1374.68 53.9971 1374.31 58.2695 1374.31 63.8848C1374.31 73.4062 1376.51 86.3457 1380.9 102.703C1385.54 119.061 1391.16 138.226 1397.75 160.198C1404.58 182.171 1409.96 204.754 1413.86 227.947C1418.01 250.896 1420.09 275.433 1420.09 301.556C1420.09 323.772 1416.43 346.233 1409.1 368.938C1401.78 391.399 1391.89 410.687 1379.44 426.8C1358.69 453.899 1331.34 474.041 1297.41 487.225C1263.72 500.408 1223.55 507 1176.92 507ZM1176.92 458.294C1190.84 458.294 1204.63 452.19 1218.31 439.983C1231.98 427.532 1241.74 410.931 1247.6 390.179C1249.56 383.831 1251.75 372.601 1254.19 356.487C1256.64 340.374 1258.59 323.04 1260.05 304.485C1261.76 285.931 1262.62 268.23 1262.62 251.385C1262.62 192.303 1259.81 150.555 1254.19 126.141C1249.8 103.191 1240.52 84.8809 1226.36 71.209C1212.2 57.293 1195.72 50.335 1176.92 50.335C1152.75 50.335 1133.59 58.2695 1119.43 74.1387C1105.27 89.7637 1095.14 113.079 1089.03 144.085C1083.17 175.091 1080.24 214.52 1080.24 262.371C1080.24 281.658 1082.2 304.607 1086.1 331.219C1090.25 357.586 1094.53 377.972 1098.92 392.376C1106 412.884 1116.38 428.997 1130.05 440.716C1143.72 452.435 1159.35 458.294 1176.92 458.294ZM1738.69 50.335C1724.53 50.335 1713.18 52.166 1704.63 55.8281C1696.33 59.2461 1688.64 65.8379 1681.56 75.6035C1667.65 94.8906 1660.69 120.159 1660.69 151.409C1660.69 158.733 1662.15 176.067 1665.08 203.411C1690.47 145.306 1722.21 116.253 1760.3 116.253C1787.15 116.253 1807.91 124.065 1822.55 139.69C1837.2 155.315 1844.53 176.312 1844.53 202.679C1844.53 214.886 1841.35 227.093 1835 239.3C1828.66 251.507 1820.11 261.639 1809.37 269.695C1798.87 277.508 1787.76 281.414 1776.04 281.414C1768.96 281.414 1763.84 280.438 1760.66 278.484C1757.49 276.287 1755.9 272.259 1755.9 266.399C1755.9 266.399 1757.25 263.714 1759.93 258.343C1762.86 252.972 1764.33 248.333 1764.33 244.427C1764.33 236.126 1761.27 228.68 1755.17 222.088C1749.31 215.496 1741.62 212.2 1732.1 212.2C1720.62 212.2 1709.64 215.618 1699.14 222.454C1688.64 229.29 1680.1 239.788 1673.51 253.948C1666.91 268.108 1663.62 284.954 1663.62 304.485C1663.62 312.542 1663.98 321.331 1664.72 330.853C1665.45 340.374 1666.18 351.482 1666.91 364.178C1667.65 376.873 1668.01 389.935 1668.01 403.362C1668.01 418.011 1670.33 431.316 1674.97 443.279C1679.85 454.998 1686.81 465.008 1695.84 473.309C1700 477.215 1702.07 482.952 1702.07 490.521C1702.07 496.136 1699.51 499.92 1694.38 501.873C1689.25 503.826 1681.56 504.803 1671.31 504.803H1652.27C1646.41 504.559 1641.04 504.437 1636.15 504.437C1631.27 504.192 1624.68 504.07 1616.38 504.07C1612.71 504.07 1602.83 504.559 1586.71 505.535C1570.6 506.512 1556.81 507 1545.33 507C1529.22 507 1517.74 506.268 1510.91 504.803C1504.32 503.094 1501.02 499.065 1501.02 492.718C1501.02 485.394 1502.73 479.412 1506.15 474.773C1515.42 463.055 1521.53 454.998 1524.46 450.604C1527.63 445.965 1529.71 440.838 1530.68 435.223C1531.9 429.363 1532.51 420.818 1532.51 409.588V368.938L1530.32 156.902C1530.32 145.184 1529.71 134.075 1528.49 123.577C1527.51 112.835 1526.29 104.046 1524.82 97.21C1523.36 90.374 1521.65 83.6602 1519.7 77.0684C1517.74 70.4766 1516.04 64.9834 1514.57 60.5889C1513.11 55.7061 1509.44 50.5791 1503.58 45.208C1497.72 39.8369 1494.79 33.001 1494.79 24.7002C1494.79 16.6436 1497.72 11.6387 1503.58 9.68555C1509.69 7.73242 1522.26 6.75586 1541.3 6.75586H1569.14C1594.04 6.75586 1623.58 7.24414 1657.76 8.2207C1691.94 9.19727 1713.67 9.68555 1722.94 9.68555C1744.92 9.68555 1770.55 8.09863 1799.85 4.9248C1829.39 1.75098 1848.55 0.164062 1857.34 0.164062C1863.69 0.164062 1869.79 8.09863 1875.65 23.9678C1881.76 39.5928 1884.81 60.5889 1884.81 86.9561C1884.81 94.0361 1883.1 100.018 1879.68 104.9C1876.51 109.539 1872.97 111.858 1869.06 111.858C1864.67 111.858 1861.49 111.126 1859.54 109.661C1842.94 93.0596 1830.61 81.4629 1822.55 74.8711C1814.74 68.2793 1804 62.542 1790.33 57.6592C1776.66 52.7764 1759.44 50.335 1738.69 50.335ZM2373.7 208.538V257.977C2373.7 298.016 2373.58 329.998 2373.33 353.924C2373.33 377.85 2373.21 404.095 2372.97 432.659C2372.97 448.284 2378.71 461.59 2390.18 472.576C2396.28 478.436 2399.34 484.905 2399.34 491.985C2399.34 498.577 2397.02 502.728 2392.38 504.437C2387.98 506.146 2374.56 507 2352.09 507C2343.79 506.756 2334.88 506.512 2325.36 506.268C2316.08 506.023 2307.54 505.779 2299.73 505.535C2292.16 505.291 2285.81 505.169 2280.68 505.169C2275.56 504.925 2268.11 504.803 2258.34 504.803C2248.33 504.803 2240.64 504.925 2235.27 505.169C2230.15 505.169 2223.19 505.291 2214.4 505.535C2205.85 505.779 2196.09 506.023 2185.1 506.268C2174.12 506.512 2163.5 506.756 2153.24 507C2133.71 507 2117.6 506.756 2104.9 506.268C2092.45 505.535 2079.27 503.704 2065.35 500.774C2051.44 497.845 2037.28 492.962 2022.87 486.126C1991.38 470.501 1966.96 447.186 1949.63 416.18C1932.54 384.93 1923.99 348.675 1923.99 307.415C1923.99 280.804 1926.19 255.657 1930.59 231.976C1935.22 208.294 1941.08 185.345 1948.16 163.128C1955.49 140.667 1961.84 120.892 1967.21 103.802C1972.82 86.4678 1975.63 73.6504 1975.63 65.3496C1975.63 56.0723 1970.87 47.5273 1961.35 39.7148C1957.44 36.2969 1955.49 29.583 1955.49 19.5732C1955.49 15.9111 1956.83 12.8594 1959.52 10.418C1962.2 7.97656 1965.62 6.75586 1969.77 6.75586C1979.54 6.75586 1986.49 6.87793 1990.64 7.12207C1995.04 7.12207 2000.04 7.24414 2005.66 7.48828C2011.52 7.73242 2018.23 7.97656 2025.8 8.2207C2033.37 8.46484 2040.94 8.70898 2048.51 8.95312C2053.88 8.95312 2060.22 8.83105 2067.55 8.58691C2074.87 8.09863 2082.08 7.73242 2089.16 7.48828C2096.48 7 2102.83 6.75586 2108.2 6.75586C2112.84 6.75586 2116.87 8.58691 2120.28 12.249C2123.7 15.9111 2125.41 20.0615 2125.41 24.7002C2125.41 32.0244 2123.21 42.5225 2118.82 56.1943C2114.42 69.8662 2108.32 89.0313 2100.51 113.689C2092.94 138.348 2086.84 164.593 2082.2 192.425C2077.56 220.013 2075.24 248.333 2075.24 277.386C2075.24 308.147 2076.83 333.538 2080 353.558C2083.17 373.577 2089.89 391.766 2100.14 408.123C2111.62 426.189 2125.78 440.472 2142.62 450.97C2159.71 461.224 2177.05 466.351 2194.62 466.351C2207.56 466.351 2216.84 463.787 2222.46 458.66C2228.07 453.533 2231.25 445.11 2231.98 433.392C2234.17 393.841 2236.37 350.14 2238.57 302.288C2240.77 254.437 2241.87 218.67 2241.87 194.988V164.227C2241.87 128.338 2240.28 101.727 2237.1 84.3926C2233.93 67.0586 2226.73 54.7295 2215.5 47.4053C2206.46 41.0576 2201.95 33.001 2201.95 23.2354C2201.95 18.1084 2204.02 13.958 2208.17 10.7842C2212.32 7.61035 2217.33 6.02344 2223.19 6.02344C2236.13 6.02344 2250.9 6.63379 2267.5 7.85449C2284.1 9.0752 2295.33 9.68555 2301.19 9.68555C2305.1 9.68555 2309.61 9.56348 2314.74 9.31934C2319.87 8.83105 2325 8.46484 2330.12 8.2207C2335.25 7.73242 2339.77 7.48828 2343.67 7.48828C2358.08 7.48828 2367.23 10.9062 2371.14 17.7422C2375.04 24.5781 2377 35.6865 2377 51.0674V69.7441C2377.49 79.7539 2377.73 93.792 2377.73 111.858C2377.73 131.39 2377.36 147.137 2376.63 159.1C2376.14 171.062 2375.53 181.805 2374.8 191.326C2374.07 200.848 2373.7 206.585 2373.7 208.538ZM2510.3 338.177V156.902C2510.3 132.977 2508.1 111.736 2503.71 93.1816C2499.31 74.3828 2493.94 60.833 2487.59 52.5322C2484.66 48.8701 2482.1 45.6963 2479.9 43.0107C2477.95 40.3252 2476.48 37.6396 2475.51 34.9541C2474.53 32.2686 2474.04 28.8506 2474.04 24.7002C2474.04 20.5498 2474.9 16.8877 2476.61 13.7139C2478.32 10.54 2480.76 8.95312 2483.93 8.95312C2495.41 8.95312 2504.32 9.0752 2510.66 9.31934C2517.26 9.31934 2526.04 9.44141 2537.03 9.68555C2548.26 9.92969 2561.45 10.1738 2576.58 10.418C2591.96 10.6621 2606.86 10.9062 2621.26 11.1504C2677.66 11.1504 2734.66 9.68555 2792.28 6.75586C2796.67 6.51172 2801.92 5.7793 2808.03 4.55859C2814.38 3.09375 2820.36 2.36133 2825.97 2.36133C2836.71 2.36133 2843.92 2.84961 2847.58 3.82617C2851.24 4.80273 2853.8 7.48828 2855.27 11.8828C2863.33 39.959 2867.35 64.9834 2867.35 86.9561C2867.35 102.093 2861.25 109.661 2849.04 109.661C2844.16 109.661 2840.99 108.807 2839.52 107.098C2827.56 93.1816 2816.33 82.1953 2805.83 74.1387C2795.58 65.8379 2783.25 59.4902 2768.84 55.0957C2754.44 50.457 2737.71 48.1377 2718.67 48.1377C2692.06 48.1377 2671.92 57.293 2658.25 75.6035C2644.58 93.6699 2637.74 118.45 2637.74 149.944C2637.74 158.001 2639.2 174.969 2642.13 200.848C2673.14 144.451 2705.61 116.253 2739.55 116.253C2766.16 116.253 2786.67 124.065 2801.07 139.69C2815.72 155.071 2823.04 176.067 2823.04 202.679C2823.04 219.036 2815.84 236.248 2801.44 254.314C2787.03 272.381 2770.92 281.414 2753.1 281.414C2746.99 281.414 2742.6 280.438 2739.91 278.484C2737.23 276.287 2735.88 272.503 2735.88 267.132C2735.88 267.62 2736.98 265.057 2739.18 259.441C2741.62 253.582 2742.84 249.065 2742.84 245.892C2742.84 237.103 2739.67 229.534 2733.32 223.187C2726.97 216.839 2718.79 213.665 2708.78 213.665C2699.75 213.665 2691.33 215.252 2683.52 218.426C2675.95 221.355 2671.43 225.262 2669.97 230.145C2660.69 263.836 2654.22 287.396 2650.56 300.823C2647.14 314.007 2643.96 327.679 2641.04 341.839C2638.35 355.999 2637.01 368.328 2637.01 378.826C2637.01 401.531 2642.99 419.598 2654.95 433.025C2666.91 446.453 2681.68 453.167 2699.26 453.167C2714.16 453.167 2725.51 452.557 2733.32 451.336C2741.38 450.115 2750.53 446.697 2760.79 441.082C2798.87 417.889 2829.39 388.348 2852.34 352.459C2853.32 350.994 2858.32 350.262 2867.35 350.262C2872.72 350.262 2877.12 353.069 2880.54 358.685C2884.2 364.3 2886.03 371.746 2886.03 381.023C2886.03 390.057 2883.71 400.921 2879.07 413.616C2874.43 426.067 2867.72 442.181 2858.93 461.956C2856.49 468.304 2853.93 474.896 2851.24 481.731C2848.55 488.567 2845.5 493.816 2842.08 497.479C2838.91 500.896 2834.39 503.46 2828.54 505.169C2822.92 506.878 2814.5 507.732 2803.27 507.732C2799.85 507.732 2782.15 506.756 2750.17 504.803C2718.18 502.85 2688.15 501.873 2660.08 501.873C2644.45 501.873 2616.99 502.361 2577.68 503.338C2538.37 504.314 2507.12 504.803 2483.93 504.803C2477.34 504.803 2474.04 501.019 2474.04 493.45C2474.04 484.905 2475.63 478.68 2478.8 474.773C2483.69 468.914 2488.57 462.688 2493.45 456.097C2498.58 449.505 2502.12 442.669 2504.07 435.589C2506.03 428.509 2507.49 417.645 2508.47 402.996C2509.69 388.104 2510.3 366.497 2510.3 338.177Z" fill="#003250"/>
</svg>
