<svg width="1920" height="509" viewBox="0 0 1920 509" fill="none" xmlns="http://www.w3.org/2000/svg">
<path opacity="0.03" d="M-1680.53 38.5176C-1694.93 38.5176 -1707.87 40.3486 -1719.34 44.0107C-1730.58 47.6729 -1739.61 52.6777 -1746.44 59.0254C-1753.04 65.373 -1756.33 72.8193 -1756.33 81.3643C-1756.33 92.5947 -1749.37 104.802 -1735.46 117.985C-1721.3 131.169 -1700.06 146.672 -1671.74 164.494C-1644.88 181.096 -1622.79 195.866 -1605.45 208.806C-1588.12 221.501 -1572.01 237.492 -1557.11 256.779C-1542.46 275.334 -1532.09 291.813 -1525.99 306.218C-1519.64 320.378 -1516.46 337.346 -1516.46 357.121C-1516.46 388.859 -1524.15 416.081 -1539.54 438.786C-1554.92 461.491 -1577.62 478.703 -1607.65 490.422C-1637.44 502.141 -1673.57 508 -1716.05 508C-1781.23 508 -1830.31 498.601 -1863.27 479.802C-1895.98 460.759 -1912.34 432.194 -1912.34 394.108C-1912.34 380.925 -1908.07 367.863 -1899.52 354.924C-1890.73 341.74 -1878.4 330.998 -1862.53 322.697C-1846.42 314.152 -1828.6 309.88 -1809.07 309.88C-1799.54 309.88 -1790.51 311.345 -1781.97 314.274C-1773.42 316.96 -1766.83 320.256 -1762.19 324.162C-1757.31 328.068 -1754.87 331.608 -1754.87 334.782C-1754.87 338.688 -1762.19 345.158 -1776.84 354.191C-1795.15 365.666 -1804.31 380.192 -1804.31 397.771C-1804.31 415.837 -1798.32 430.241 -1786.36 440.983C-1774.4 451.726 -1759.14 457.097 -1740.58 457.097C-1716.17 457.097 -1697.37 450.627 -1684.19 437.688C-1670.76 424.504 -1664.05 407.658 -1664.05 387.15C-1664.05 367.375 -1669.54 349.797 -1680.53 334.416C-1691.51 318.791 -1706.28 304.387 -1724.84 291.203C-1743.15 278.02 -1768.17 261.784 -1799.91 242.497C-1827.25 225.651 -1849.23 210.515 -1865.83 197.087C-1882.19 183.415 -1895 168.645 -1904.28 152.775C-1913.31 136.906 -1917.83 120.061 -1917.83 102.238C-1917.83 85.3926 -1911.97 70.0117 -1900.25 56.0957C-1888.53 41.9355 -1871.32 30.583 -1848.62 22.0381C-1825.67 13.4932 -1798.45 9.2207 -1766.95 9.2207C-1763.05 9.2207 -1750.47 9.46484 -1729.23 9.95312C-1707.99 10.4414 -1688.83 10.6855 -1671.74 10.6855C-1657.09 10.6855 -1643.91 9.95312 -1632.19 8.48828C-1620.22 6.7793 -1610.21 5.07031 -1602.16 3.36133C-1594.1 1.4082 -1589.34 0.431641 -1587.88 0.431641C-1580.55 0.431641 -1575.3 3.23926 -1572.13 8.85449C-1568.95 14.2256 -1565.66 23.8691 -1562.24 37.7852C-1557.11 57.8047 -1554.55 70.5 -1554.55 75.8711C-1554.55 82.4629 -1556.38 88.2002 -1560.04 93.083C-1563.46 97.7217 -1567.49 100.041 -1572.13 100.041C-1580.18 100.041 -1590.07 92.4727 -1601.79 77.3359C-1623.03 51.457 -1649.28 38.5176 -1680.53 38.5176ZM-1425.28 331.12V122.38C-1425.28 108.708 -1426.13 96.3789 -1427.84 85.3926C-1429.31 74.1621 -1431.38 64.5186 -1434.07 56.4619C-1436.51 48.4053 -1439.07 43.4004 -1441.76 41.4473C-1445.91 38.0293 -1448.71 35.3437 -1450.18 33.3906C-1451.64 31.4375 -1452.38 27.165 -1452.38 20.5732C-1452.38 15.6904 -1448.1 12.7607 -1439.56 11.7842C-1431.01 10.5635 -1417.95 9.95312 -1400.38 9.95312C-1388.41 9.95312 -1372.91 10.1973 -1353.87 10.6855C-1334.82 11.1738 -1319.32 11.418 -1307.36 11.418C-1298.32 11.418 -1273.67 10.6855 -1233.38 9.2207C-1193.1 7.75586 -1157.33 7.02344 -1126.08 7.02344C-1107.28 7.02344 -1090.8 9.83105 -1076.64 15.4463C-1062.48 20.8174 -1050.64 28.2637 -1041.12 37.7852C-1031.6 47.0625 -1024.52 57.8047 -1019.88 70.0117C-1015 81.9746 -1012.56 94.6699 -1012.56 108.098C-1012.56 123.234 -1015.37 138.615 -1020.98 154.24C-1026.6 169.621 -1034.41 183.903 -1044.42 197.087C-1054.43 210.271 -1065.9 221.623 -1078.84 231.145C-1097.88 244.816 -1116.68 253.605 -1135.24 257.512C-1153.79 261.418 -1177.47 263.371 -1206.28 263.371C-1230.45 263.371 -1247.79 261.662 -1258.29 258.244C-1268.54 254.582 -1273.67 246.525 -1273.67 234.074C-1273.67 228.215 -1267.68 225.285 -1255.72 225.285C-1254.26 225.285 -1249.98 225.529 -1242.9 226.018C-1235.82 226.506 -1230.33 226.75 -1226.42 226.75C-1209.58 226.75 -1195.66 219.67 -1184.68 205.51C-1173.45 191.35 -1167.83 170.72 -1167.83 143.62C-1167.83 125.798 -1170.39 110.173 -1175.52 96.7451C-1180.65 83.0732 -1187.85 72.5752 -1197.13 65.251C-1206.41 57.9268 -1217.15 54.2646 -1229.35 54.2646C-1250.11 54.2646 -1266.34 60.3682 -1278.06 72.5752C-1289.78 84.7822 -1295.64 101.384 -1295.64 122.38V328.923C-1295.64 353.581 -1295.03 373.601 -1293.81 388.981C-1292.34 404.362 -1289.41 417.668 -1285.02 428.898C-1280.38 440.129 -1273.42 448.796 -1264.14 454.899C-1259.26 458.073 -1254.99 462.712 -1251.33 468.815C-1247.67 474.919 -1245.83 480.778 -1245.83 486.394C-1245.83 496.403 -1249.13 502.629 -1255.72 505.07C-1262.31 507.512 -1271.59 508.732 -1283.55 508.732C-1285.75 508.732 -1290.63 508.488 -1298.2 508C-1305.53 507.512 -1314.56 507.023 -1325.3 506.535C-1335.31 506.535 -1348.01 506.779 -1363.39 507.268C-1378.77 507.756 -1391.59 508 -1401.84 508C-1418.44 508 -1426.74 497.99 -1426.74 477.971C-1426.74 458.684 -1426.5 434.147 -1426.01 404.362C-1425.52 374.577 -1425.28 350.163 -1425.28 331.12ZM-705.673 211.003C-693.71 211.003 -683.212 204.655 -674.179 191.96C-665.146 179.021 -660.629 162.663 -660.629 142.888C-660.629 123.845 -663.437 107.609 -669.052 94.1816C-674.423 80.7539 -682.602 70.3779 -693.588 63.0537C-704.574 55.7295 -717.636 52.0674 -732.772 52.0674C-746.688 52.0674 -759.506 57.3164 -771.225 67.8145C-782.699 78.0684 -789.657 91.4961 -792.099 108.098C-796.005 133.977 -797.958 158.757 -797.958 182.438V307.683C-797.958 338.688 -797.592 364.812 -796.859 386.052C-796.127 407.292 -794.784 422.185 -792.831 430.729C-790.39 440.007 -788.07 446.721 -785.873 450.871C-783.676 454.777 -780.258 460.148 -775.619 466.984C-770.736 473.576 -767.318 478.459 -765.365 481.633C-763.168 484.562 -762.069 487.614 -762.069 490.788C-762.069 498.356 -765.731 503.239 -773.056 505.437C-780.136 507.634 -792.953 508.732 -811.508 508.732C-820.053 508.488 -828.231 508.244 -836.044 508C-843.612 508 -854.965 508 -870.102 508C-889.389 508 -903.061 507.512 -911.117 506.535C-919.174 505.314 -925.155 502.507 -929.062 498.112C-932.724 493.718 -934.555 486.76 -934.555 477.238C-934.555 457.463 -934.311 432.316 -933.822 401.799C-933.334 371.281 -933.09 346.379 -933.09 327.092V122.38C-933.09 103.825 -934.555 87.834 -937.484 74.4062C-940.17 60.7344 -943.71 52.3115 -948.104 49.1377C-949.813 47.6729 -951.645 46.208 -953.598 44.7432C-955.551 43.2783 -957.138 41.0811 -958.358 38.1514C-959.579 34.9775 -960.189 30.8271 -960.189 25.7002C-960.189 21.7939 -956.771 17.7656 -949.936 13.6152C-943.1 9.2207 -934.433 7.02344 -923.935 7.02344C-920.272 7.02344 -902.816 8.36621 -871.566 11.0518C-840.072 13.7373 -811.02 15.0801 -784.408 15.0801C-752.182 15.0801 -716.659 13.7373 -677.841 11.0518C-638.778 8.36621 -616.806 7.02344 -611.923 7.02344C-590.194 7.02344 -570.419 11.418 -552.597 20.207C-534.774 28.9961 -520.98 40.5928 -511.215 54.9971C-501.449 69.1572 -496.566 84.416 -496.566 100.773C-496.566 124.455 -505.6 147.526 -523.666 169.987C-541.732 192.204 -567.733 212.346 -601.669 230.412C-608.261 234.074 -612.289 237.492 -613.754 240.666C-615.219 243.84 -615.951 249.455 -615.951 257.512C-615.951 270.451 -612.777 284.611 -606.43 299.992C-600.082 315.129 -590.683 332.585 -578.231 352.36C-565.78 371.892 -552.597 390.935 -538.681 409.489C-524.765 428.044 -503.158 456.12 -473.861 493.718C-472.396 495.671 -471.664 498.723 -471.664 502.873C-471.664 506.291 -476.913 508 -487.411 508C-513.29 508 -542.831 498.845 -576.034 480.534C-608.993 461.979 -640.854 438.176 -671.615 409.123C-702.377 380.07 -727.279 350.163 -746.322 319.401C-765.365 288.396 -774.887 261.296 -774.887 238.103C-774.887 226.872 -772.812 217.961 -768.661 211.369C-764.511 204.533 -758.773 201.115 -751.449 201.115C-750.473 201.115 -743.759 202.824 -731.308 206.242C-718.856 209.416 -710.312 211.003 -705.673 211.003ZM-262.558 157.902V340.642C-262.558 370.671 -262.191 393.254 -261.459 408.391C-260.482 423.283 -258.163 436.467 -254.501 447.941C-250.595 459.416 -244.613 468.938 -236.557 476.506C-234.115 478.459 -232.895 482.243 -232.895 487.858C-232.895 496.647 -236.19 502.263 -242.782 504.704C-249.13 506.901 -259.506 508 -273.91 508C-285.141 508 -303.207 507.268 -328.109 505.803C-343.979 505.803 -356.552 505.925 -365.829 506.169C-375.106 506.169 -385.482 506.291 -396.957 506.535C-413.07 506.535 -421.127 500.798 -421.127 489.323C-421.127 484.929 -419.54 479.924 -416.366 474.309C-406.356 458.439 -400.253 446.354 -398.056 438.054C-395.858 429.753 -394.76 412.541 -394.76 386.418V337.712V157.17C-394.76 148.381 -395.248 137.517 -396.225 124.577C-397.201 111.638 -398.788 97.2334 -400.985 81.3643C-402.938 65.4951 -404.037 55.9736 -404.281 52.7998C-405.746 45.9639 -410.019 38.1514 -417.099 29.3623C-420.272 25.9443 -421.859 21.1836 -421.859 15.0801C-421.859 13.127 -421.005 11.54 -419.296 10.3193C-417.587 9.09863 -415.878 8.48828 -414.169 8.48828C-405.136 8.48828 -398.178 8.61035 -393.295 8.85449C-388.168 8.85449 -381.698 8.97656 -373.886 9.2207C-366.073 9.46484 -357.528 9.83105 -348.251 10.3193C-338.729 10.5635 -329.696 10.6855 -321.151 10.6855C-315.78 10.6855 -309.677 10.5635 -302.841 10.3193C-296.005 9.83105 -289.291 9.46484 -282.699 9.2207C-276.107 8.97656 -270.614 8.85449 -266.22 8.85449C-261.581 8.61035 -254.623 8.48828 -245.346 8.48828C-237.533 8.48828 -233.627 11.54 -233.627 17.6436C-233.627 23.0146 -234.604 27.165 -236.557 30.0947C-256.088 56.4619 -265.854 85.0264 -265.854 115.788C-265.854 122.136 -265.365 129.704 -264.389 138.493C-263.168 147.282 -262.558 153.752 -262.558 157.902ZM120.865 49.1377C105.973 49.1377 91.4463 51.7012 77.2861 56.8281C63.126 61.7109 50.0645 68.791 38.1016 78.0684C26.1387 87.1016 16.4951 97.3555 9.1709 108.83C-0.594727 124.211 -6.94238 139.226 -9.87207 153.874C-12.5576 168.278 -13.9004 186.589 -13.9004 208.806V228.947C-13.9004 259.221 -13.7783 282.78 -13.5342 299.626C-13.0459 316.472 -12.4355 328.923 -11.7031 336.979C-7.79688 372.624 2.94531 401.799 20.5234 424.504C38.3457 447.209 57.2666 458.562 77.2861 458.562C116.837 458.562 136.612 433.781 136.612 384.221C136.612 343.693 136.124 313.908 135.147 294.865C134.171 275.822 131.852 260.441 128.189 248.723C124.771 236.76 118.912 227.727 110.611 221.623C107.193 219.182 103.775 216.74 100.357 214.299C96.9395 211.857 94.2539 209.416 92.3008 206.975C90.3477 204.533 89.3711 201.604 89.3711 198.186C89.3711 189.152 92.7891 182.683 99.625 178.776C106.461 174.87 118.546 172.917 135.88 172.917C135.88 172.917 143.082 173.161 157.486 173.649C171.891 174.138 186.173 174.382 200.333 174.382C220.108 174.382 234.269 177.067 242.813 182.438C251.603 187.81 257.096 196.599 259.293 208.806C261.49 220.769 262.589 240.056 262.589 266.667V282.414C262.589 296.33 262.101 312.443 261.124 330.754C260.392 348.82 259.537 364.445 258.561 377.629C257.828 390.568 257.462 398.747 257.462 402.165C257.462 418.278 258.927 431.828 261.856 442.814C265.03 453.557 268.57 463.2 272.477 471.745C276.383 480.29 278.336 486.149 278.336 489.323C278.336 496.403 275.528 501.286 269.913 503.972C264.298 506.657 255.875 508 244.645 508C239.273 508 227.433 507.512 209.122 506.535C190.812 505.559 175.187 505.07 162.247 505.07C154.435 505.07 145.035 505.314 134.049 505.803C123.062 506.047 112.076 506.413 101.09 506.901C90.1035 507.146 80.7041 507.268 72.8916 507.268C19.9131 507.268 -22.0791 500.554 -53.085 487.126C-77.2549 476.384 -98.251 461.613 -116.073 442.814C-133.896 423.771 -147.567 401.188 -157.089 375.065C-166.61 348.942 -171.371 321.232 -171.371 291.936C-171.371 264.836 -168.319 240.422 -162.216 218.693C-155.868 196.721 -146.591 168.645 -134.384 134.465C-122.177 100.285 -116.073 77.0918 -116.073 64.8848C-116.073 56.584 -119.613 48.5273 -126.693 40.7148C-130.111 36.0762 -131.82 31.5596 -131.82 27.165C-131.82 14.2256 -122.543 7.75586 -103.988 7.75586C-93.7344 7.75586 -72.4941 8.97656 -40.2676 11.418C-8.04102 13.8594 18.9365 15.0801 40.665 15.0801C86.0752 15.0801 129.654 13.9814 171.402 11.7842C213.15 9.58691 231.339 8.48828 225.968 8.48828C238.419 8.48828 246.354 12.2725 249.771 19.8408C253.189 27.4092 255.997 39.6162 258.194 56.4619C258.683 60.6123 259.171 64.6406 259.659 68.5469C260.392 72.4531 260.88 75.8711 261.124 78.8008C261.612 81.7305 261.856 84.5381 261.856 87.2236C261.856 95.2803 259.903 102.116 255.997 107.731C252.335 113.103 248.551 115.788 244.645 115.788C240.25 115.788 236.1 114.323 232.193 111.394C228.531 108.464 223.16 103.215 216.08 95.6465C202.896 79.2891 189.347 67.4482 175.431 60.124C161.759 52.7998 143.57 49.1377 120.865 49.1377ZM747.086 508H652.604C648.697 508 644.669 506.291 640.519 502.873C636.612 499.211 634.659 495.427 634.659 491.521C634.659 485.417 635.147 481.389 636.124 479.436C647.599 469.182 655.411 461.003 659.562 454.899C663.956 448.796 666.153 438.786 666.153 424.87C666.153 412.907 662.613 392.033 655.533 362.248C648.697 332.463 638.565 295.354 625.138 250.92C618.302 275.09 607.926 292.668 594.01 303.654C580.094 314.396 566.91 319.768 554.459 319.768C550.797 319.768 547.013 318.913 543.106 317.204C539.2 315.495 537.247 313.298 537.247 310.612C537.247 309.88 538.102 306.828 539.811 301.457C541.52 295.842 542.374 292.18 542.374 290.471C542.374 284.855 540.421 279.362 536.515 273.991C532.853 268.62 527.848 264.348 521.5 261.174C515.396 257.756 508.194 256.047 499.894 256.047C484.269 256.047 469.132 261.54 454.483 272.526C440.079 283.269 428.36 298.039 419.327 316.838C411.759 333.684 405.289 354.191 399.918 378.361C394.547 402.287 391.861 424.016 391.861 443.547C391.861 447.941 392.594 451.97 394.059 455.632C395.523 459.05 397.477 462.468 399.918 465.886C402.604 469.06 407.608 474.797 414.933 483.098C415.909 485.539 416.397 486.882 416.397 487.126C416.397 493.962 412.491 499.211 404.679 502.873C397.11 506.291 386.734 508 373.551 508H358.902C347.916 508 338.517 504.582 330.704 497.746C322.892 490.666 318.985 482.854 318.985 474.309C318.985 469.914 319.718 464.421 321.183 457.829C331.681 410.954 344.132 365.666 358.536 321.965C373.185 278.264 389.42 234.44 407.242 190.495C425.309 146.55 437.149 117.009 442.765 101.872C448.624 86.4912 451.554 73.6738 451.554 63.4199C451.554 60.002 449.601 55.4854 445.694 49.8701C441.788 44.0107 438.98 39.7383 437.271 37.0527C435.807 34.123 435.074 29.6064 435.074 23.5029C435.074 20.8174 437.516 17.5215 442.398 13.6152C447.281 9.70898 452.408 7.75586 457.779 7.75586C466.324 7.75586 473.038 7.87793 477.921 8.12207C483.048 8.12207 490.25 8.24414 499.527 8.48828C509.049 8.73242 520.523 8.97656 533.951 9.2207C547.379 9.46484 560.685 9.70898 573.868 9.95312C582.901 9.95312 595.23 9.83105 610.855 9.58691C626.48 9.09863 642.228 8.73242 658.097 8.48828C673.966 8 686.417 7.75586 695.45 7.75586C703.751 7.75586 710.221 8.73242 714.859 10.6855C719.498 12.3945 721.817 16.9111 721.817 24.2354C721.817 28.1416 720.475 31.4375 717.789 34.123C709 42.9121 704.605 52.3115 704.605 62.3213C704.605 69.1572 706.559 76.2373 710.465 83.5615C719.254 99.6748 727.311 118.107 734.635 138.859C741.959 159.611 747.94 178.654 752.579 195.988C757.218 213.078 762.711 235.783 769.059 264.104C775.65 292.18 782.12 319.768 788.468 346.867C792.862 363.225 797.501 381.535 802.384 401.799C807.511 421.818 810.074 443.181 810.074 465.886C810.074 484.44 804.581 496.159 793.595 501.042C782.608 505.681 767.105 508 747.086 508ZM474.991 157.902L450.089 217.595C467.179 197.575 483.292 182.316 498.429 171.818C513.565 161.32 530.533 156.071 549.332 156.071C563.004 156.071 579.972 162.907 600.235 176.579L573.868 108.098C570.206 98.332 565.079 90.5195 558.487 84.6602C551.896 78.8008 545.06 75.8711 537.979 75.8711C528.946 75.8711 518.814 83.1953 507.584 97.8438C496.598 112.492 485.733 132.512 474.991 157.902ZM1126.85 63.4199V380.559C1126.85 422.062 1136.61 453.068 1156.14 473.576C1161.76 479.68 1164.57 485.661 1164.57 491.521C1164.57 499.333 1161.39 504.094 1155.04 505.803C1148.7 507.268 1135.03 508 1114.03 508C1105.97 508 1089 507.512 1063.13 506.535C1044.33 506.535 1029.43 506.657 1018.45 506.901C1007.71 506.901 995.621 507.023 982.193 507.268C975.846 507.268 970.719 505.559 966.812 502.141C963.15 498.723 961.319 494.938 961.319 490.788C961.319 483.952 963.272 477.971 967.179 472.844C979.874 455.021 987.32 444.279 989.518 440.617C991.959 436.955 993.668 432.561 994.645 427.434C995.865 422.307 996.476 413.151 996.476 399.968V382.023V64.1523C990.372 63.6641 983.17 63.4199 974.869 63.4199C949.967 63.4199 931.656 68.5469 919.938 78.8008C908.463 88.8105 897.232 102.36 886.246 119.45C875.504 136.54 865.982 145.085 857.682 145.085C852.799 145.085 848.648 141.789 845.23 135.197C842.057 128.361 840.47 119.084 840.47 107.365C840.47 90.7637 842.545 74.4062 846.695 58.293C851.09 42.1797 856.461 29.1182 862.809 19.1084C866.959 13.0049 871.354 9.09863 875.992 7.38965C880.875 5.68066 888.81 4.82617 899.796 4.82617C921.036 4.82617 952.896 5.68066 995.377 7.38965C1038.1 9.09863 1068.5 9.95312 1086.56 9.95312C1114.64 9.95312 1146.5 8.85449 1182.14 6.65723C1217.79 4.45996 1238.42 3.36133 1244.03 3.36133C1253.8 3.36133 1263.2 13.127 1272.23 32.6582C1281.27 52.1895 1285.78 76.6035 1285.78 105.9C1285.78 131.047 1280.04 143.62 1268.57 143.62C1261.98 143.62 1256 139.836 1250.63 132.268C1238.91 114.445 1230.61 102.482 1225.72 96.3789C1221.08 90.0313 1215.23 84.416 1208.15 79.5332C1201.31 74.6504 1191.18 70.7441 1177.75 67.8145C1164.57 64.8848 1147.6 63.4199 1126.85 63.4199ZM1497.45 157.902V340.642C1497.45 370.671 1497.82 393.254 1498.55 408.391C1499.53 423.283 1501.85 436.467 1505.51 447.941C1509.42 459.416 1515.4 468.938 1523.45 476.506C1525.89 478.459 1527.12 482.243 1527.12 487.858C1527.12 496.647 1523.82 502.263 1517.23 504.704C1510.88 506.901 1500.5 508 1486.1 508C1474.87 508 1456.8 507.268 1431.9 505.803C1416.03 505.803 1403.46 505.925 1394.18 506.169C1384.9 506.169 1374.53 506.291 1363.05 506.535C1346.94 506.535 1338.88 500.798 1338.88 489.323C1338.88 484.929 1340.47 479.924 1343.64 474.309C1353.65 458.439 1359.76 446.354 1361.95 438.054C1364.15 429.753 1365.25 412.541 1365.25 386.418V337.712V157.17C1365.25 148.381 1364.76 137.517 1363.79 124.577C1362.81 111.638 1361.22 97.2334 1359.02 81.3643C1357.07 65.4951 1355.97 55.9736 1355.73 52.7998C1354.26 45.9639 1349.99 38.1514 1342.91 29.3623C1339.74 25.9443 1338.15 21.1836 1338.15 15.0801C1338.15 13.127 1339 11.54 1340.71 10.3193C1342.42 9.09863 1344.13 8.48828 1345.84 8.48828C1354.87 8.48828 1361.83 8.61035 1366.71 8.85449C1371.84 8.85449 1378.31 8.97656 1386.12 9.2207C1393.94 9.46484 1402.48 9.83105 1411.76 10.3193C1421.28 10.5635 1430.31 10.6855 1438.86 10.6855C1444.23 10.6855 1450.33 10.5635 1457.17 10.3193C1464 9.83105 1470.72 9.46484 1477.31 9.2207C1483.9 8.97656 1489.4 8.85449 1493.79 8.85449C1498.43 8.61035 1505.39 8.48828 1514.66 8.48828C1522.48 8.48828 1526.38 11.54 1526.38 17.6436C1526.38 23.0146 1525.41 27.165 1523.45 30.0947C1503.92 56.4619 1494.16 85.0264 1494.16 115.788C1494.16 122.136 1494.64 129.704 1495.62 138.493C1496.84 147.282 1497.45 153.752 1497.45 157.902ZM1865.86 63.4199V380.559C1865.86 422.062 1875.63 453.068 1895.16 473.576C1900.77 479.68 1903.58 485.661 1903.58 491.521C1903.58 499.333 1900.41 504.094 1894.06 505.803C1887.71 507.268 1874.04 508 1853.04 508C1844.99 508 1828.02 507.512 1802.14 506.535C1783.34 506.535 1768.45 506.657 1757.46 506.901C1746.72 506.901 1734.63 507.023 1721.21 507.268C1714.86 507.268 1709.73 505.559 1705.83 502.141C1702.16 498.723 1700.33 494.938 1700.33 490.788C1700.33 483.952 1702.29 477.971 1706.19 472.844C1718.89 455.021 1726.33 444.279 1728.53 440.617C1730.97 436.955 1732.68 432.561 1733.66 427.434C1734.88 422.307 1735.49 413.151 1735.49 399.968V382.023V64.1523C1729.39 63.6641 1722.18 63.4199 1713.88 63.4199C1688.98 63.4199 1670.67 68.5469 1658.95 78.8008C1647.48 88.8105 1636.25 102.36 1625.26 119.45C1614.52 136.54 1605 145.085 1596.7 145.085C1591.81 145.085 1587.66 141.789 1584.24 135.197C1581.07 128.361 1579.48 119.084 1579.48 107.365C1579.48 90.7637 1581.56 74.4062 1585.71 58.293C1590.1 42.1797 1595.47 29.1182 1601.82 19.1084C1605.97 13.0049 1610.37 9.09863 1615.01 7.38965C1619.89 5.68066 1627.82 4.82617 1638.81 4.82617C1660.05 4.82617 1691.91 5.68066 1734.39 7.38965C1777.12 9.09863 1807.51 9.95312 1825.58 9.95312C1853.65 9.95312 1885.51 8.85449 1921.16 6.65723C1956.8 4.45996 1977.43 3.36133 1983.05 3.36133C1992.81 3.36133 2002.21 13.127 2011.25 32.6582C2020.28 52.1895 2024.8 76.6035 2024.8 105.9C2024.8 131.047 2019.06 143.62 2007.58 143.62C2000.99 143.62 1995.01 139.836 1989.64 132.268C1977.92 114.445 1969.62 102.482 1964.74 96.3789C1960.1 90.0313 1954.24 84.416 1947.16 79.5332C1940.32 74.6504 1930.19 70.7441 1916.76 67.8145C1903.58 64.8848 1886.61 63.4199 1865.86 63.4199ZM2326.19 508C2272.48 508 2226.94 499.089 2189.59 481.267C2152.24 463.2 2124.04 437.565 2105 404.362C2085.95 370.915 2076.43 331.73 2076.43 286.809C2076.43 258.732 2079 233.708 2084.12 211.735C2089.25 189.763 2096.7 161.931 2106.46 128.239C2116.47 94.3037 2121.48 71.1104 2121.48 58.6592C2121.48 51.335 2118.79 45.3535 2113.42 40.7148C2108.78 37.0527 2106.46 31.3154 2106.46 23.5029C2106.46 19.1084 2109.02 15.4463 2114.15 12.5166C2119.52 9.34277 2126.97 7.75586 2136.49 7.75586C2153.82 7.75586 2173.97 8.24414 2196.92 9.2207C2220.11 9.95312 2243.18 10.8076 2266.13 11.7842C2289.08 12.5166 2309.1 12.8828 2326.19 12.8828C2342.3 12.8828 2360.98 12.5166 2382.22 11.7842C2403.46 10.8076 2424.7 9.95312 2445.94 9.2207C2467.18 8.24414 2485.86 7.75586 2501.97 7.75586C2525.41 7.75586 2537.12 15.2021 2537.12 30.0947C2537.12 35.9541 2534.32 40.959 2528.7 45.1094C2526.75 46.8184 2525.41 49.1377 2524.67 52.0674C2523.94 54.9971 2523.58 59.2695 2523.58 64.8848C2523.58 74.4062 2525.77 87.3457 2530.17 103.703C2534.81 120.061 2540.42 139.226 2547.01 161.198C2553.85 183.171 2559.22 205.754 2563.13 228.947C2567.28 251.896 2569.35 276.433 2569.35 302.556C2569.35 324.772 2565.69 347.233 2558.37 369.938C2551.04 392.399 2541.15 411.687 2528.7 427.8C2507.95 454.899 2480.61 475.041 2446.67 488.225C2412.98 501.408 2372.82 508 2326.19 508ZM2326.19 459.294C2340.1 459.294 2353.9 453.19 2367.57 440.983C2381.24 428.532 2391.01 411.931 2396.87 391.179C2398.82 384.831 2401.02 373.601 2403.46 357.487C2405.9 341.374 2407.85 324.04 2409.32 305.485C2411.03 286.931 2411.88 269.23 2411.88 252.385C2411.88 193.303 2409.07 151.555 2403.46 127.141C2399.06 104.191 2389.79 85.8809 2375.63 72.209C2361.47 58.293 2344.99 51.335 2326.19 51.335C2302.02 51.335 2282.85 59.2695 2268.69 75.1387C2254.53 90.7637 2244.4 114.079 2238.3 145.085C2232.44 176.091 2229.51 215.52 2229.51 263.371C2229.51 282.658 2231.46 305.607 2235.37 332.219C2239.52 358.586 2243.79 378.972 2248.18 393.376C2255.26 413.884 2265.64 429.997 2279.31 441.716C2292.98 453.435 2308.61 459.294 2326.19 459.294Z" fill="#003250"/>
</svg>
