<svg width="1920" height="507" viewBox="0 0 1920 507" fill="none" xmlns="http://www.w3.org/2000/svg">
<path opacity="0.03" d="M-1595.6 450.829C-1600 440.819 -1604.51 433.495 -1609.15 428.856C-1613.55 423.974 -1619.53 421.532 -1627.1 421.532C-1631.98 421.532 -1636.37 423.119 -1640.28 426.293C-1643.94 429.467 -1645.77 432.885 -1645.77 436.547C-1645.77 449.486 -1636.74 455.956 -1618.67 455.956C-1616.23 455.956 -1612.69 455.346 -1608.05 454.125C-1603.42 452.904 -1599.26 451.806 -1595.6 450.829ZM-1675.07 410.912C-1666.04 397.973 -1657.86 389.062 -1650.53 384.179C-1643.21 379.052 -1632.35 376.488 -1617.94 376.488C-1606.96 376.488 -1596.7 379.174 -1587.18 384.545C-1577.66 389.672 -1567.89 396.508 -1557.88 405.053C-1551.05 376.977 -1546.04 353.783 -1542.87 335.473C-1539.45 317.162 -1537.74 296.532 -1537.74 273.583C-1537.74 247.948 -1539.57 219.75 -1543.23 188.988C-1546.65 158.227 -1550.19 134.545 -1553.85 117.943C-1557.27 101.098 -1563.01 86.5713 -1571.07 74.3643C-1579.12 61.9131 -1588.77 52.2695 -1600 45.4336C-1611.23 38.5977 -1622.7 35.1797 -1634.42 35.1797C-1646.38 35.1797 -1658.59 39.6963 -1671.04 48.7295C-1683.25 57.5186 -1693.62 69.4814 -1702.17 84.6182C-1707.05 93.4072 -1710.84 103.661 -1713.52 115.38C-1716.21 127.099 -1718.16 140.16 -1719.38 154.564C-1720.36 168.725 -1720.85 185.448 -1720.85 204.735C-1720.85 237.45 -1718.89 265.893 -1714.99 290.062C-1710.84 313.988 -1705.83 334.13 -1699.97 350.487C-1694.11 366.845 -1685.81 386.986 -1675.07 410.912ZM-1595.6 498.803C-1599.02 499.291 -1602.07 499.657 -1604.76 499.901C-1607.44 500.146 -1610.74 500.512 -1614.65 501C-1618.31 501.488 -1620.99 501.732 -1622.7 501.732C-1666.16 501.732 -1705.71 494.408 -1741.35 479.76C-1777 465.111 -1805.2 445.458 -1825.95 420.8C-1840.6 402.978 -1851.71 381.249 -1859.27 355.614C-1866.84 329.979 -1870.63 300.927 -1870.63 268.456C-1870.63 245.263 -1868.06 222.558 -1862.94 200.341C-1857.57 177.88 -1850.36 151.635 -1841.33 121.605C-1832.05 91.5762 -1827.41 73.2656 -1827.41 66.6738C-1827.41 59.1055 -1828.15 53.3682 -1829.61 49.4619C-1839.13 34.0811 -1843.89 24.8037 -1843.89 21.6299C-1843.89 7.71387 -1833.15 0.755859 -1811.67 0.755859C-1798.48 0.755859 -1784.2 1 -1768.82 1.48828C-1753.44 1.73242 -1738.91 2.2207 -1725.24 2.95312C-1711.57 3.44141 -1694.36 4.05176 -1673.61 4.78418C-1652.61 5.5166 -1635.64 5.88281 -1622.7 5.88281C-1606.59 5.88281 -1587.91 5.5166 -1566.67 4.78418C-1545.43 3.80762 -1524.19 2.95312 -1502.95 2.2207C-1481.71 1.24414 -1463.03 0.755859 -1446.92 0.755859C-1435.2 0.755859 -1426.78 2.46484 -1421.65 5.88281C-1416.53 9.05664 -1413.96 15.0381 -1413.96 23.8271C-1413.96 31.8838 -1416.04 40.7949 -1420.19 50.5605C-1424.09 60.3262 -1426.05 67.7725 -1426.05 72.8994C-1426.05 80.4678 -1421.65 95.9707 -1412.86 119.408C-1403.83 142.602 -1396.38 166.161 -1390.52 190.087C-1384.67 214.013 -1381.74 242.943 -1381.74 276.879C-1381.74 309.35 -1384.79 336.693 -1390.89 358.91C-1396.99 380.883 -1405.54 398.949 -1416.53 413.109C-1427.27 427.025 -1439.47 438.5 -1453.15 447.533C-1466.57 456.566 -1484.76 466.942 -1507.71 478.661C-1502.58 487.938 -1498.19 494.53 -1494.53 498.437C-1490.62 502.099 -1485.25 503.93 -1478.42 503.93C-1465.96 503.93 -1458.15 501.732 -1454.98 497.338C-1451.8 492.699 -1448.51 485.497 -1445.09 475.731C-1441.67 465.966 -1437.03 461.083 -1431.17 461.083C-1428 461.083 -1424.58 463.036 -1420.92 466.942C-1417.26 470.849 -1414.21 475.854 -1411.76 481.957C-1409.32 488.061 -1408.1 494.896 -1408.1 502.465C-1408.1 517.846 -1411.52 532.372 -1418.36 546.044C-1425.19 559.716 -1434.96 570.58 -1447.65 578.637C-1460.35 586.938 -1475.36 591.088 -1492.7 591.088C-1512.23 591.088 -1528.46 587.792 -1541.4 581.2C-1554.34 574.608 -1565.08 564.477 -1573.63 550.805C-1582.17 537.133 -1589.5 519.799 -1595.6 498.803ZM-882.59 202.538V251.977C-882.59 292.016 -882.712 323.998 -882.956 347.924C-882.956 371.85 -883.078 398.095 -883.322 426.659C-883.322 442.284 -877.585 455.59 -866.11 466.576C-860.007 472.436 -856.955 478.905 -856.955 485.985C-856.955 492.577 -859.274 496.728 -863.913 498.437C-868.308 500.146 -881.735 501 -904.196 501C-912.497 500.756 -921.408 500.512 -930.93 500.268C-940.207 500.023 -948.752 499.779 -956.564 499.535C-964.133 499.291 -970.48 499.169 -975.607 499.169C-980.734 498.925 -988.181 498.803 -997.946 498.803C-1007.96 498.803 -1015.65 498.925 -1021.02 499.169C-1026.14 499.169 -1033.1 499.291 -1041.89 499.535C-1050.44 499.779 -1060.2 500.023 -1071.19 500.268C-1082.17 500.512 -1092.79 500.756 -1103.05 501C-1122.58 501 -1138.69 500.756 -1151.39 500.268C-1163.84 499.535 -1177.02 497.704 -1190.94 494.774C-1204.86 491.845 -1219.02 486.962 -1233.42 480.126C-1264.91 464.501 -1289.33 441.186 -1306.66 410.18C-1323.75 378.93 -1332.3 342.675 -1332.3 301.415C-1332.3 274.804 -1330.1 249.657 -1325.71 225.976C-1321.07 202.294 -1315.21 179.345 -1308.13 157.128C-1300.8 134.667 -1294.46 114.892 -1289.08 97.8018C-1283.47 80.4678 -1280.66 67.6504 -1280.66 59.3496C-1280.66 50.0723 -1285.42 41.5273 -1294.94 33.7148C-1298.85 30.2969 -1300.8 23.583 -1300.8 13.5732C-1300.8 9.91113 -1299.46 6.85938 -1296.77 4.41797C-1294.09 1.97656 -1290.67 0.755859 -1286.52 0.755859C-1276.75 0.755859 -1269.8 0.87793 -1265.65 1.12207C-1261.25 1.12207 -1256.25 1.24414 -1250.63 1.48828C-1244.77 1.73242 -1238.06 1.97656 -1230.49 2.2207C-1222.92 2.46484 -1215.35 2.70898 -1207.79 2.95312C-1202.41 2.95312 -1196.07 2.83105 -1188.74 2.58691C-1181.42 2.09863 -1174.22 1.73242 -1167.14 1.48828C-1159.81 1 -1153.46 0.755859 -1148.09 0.755859C-1143.45 0.755859 -1139.43 2.58691 -1136.01 6.24902C-1132.59 9.91113 -1130.88 14.0615 -1130.88 18.7002C-1130.88 26.0244 -1133.08 36.5225 -1137.47 50.1943C-1141.87 63.8662 -1147.97 83.0313 -1155.78 107.689C-1163.35 132.348 -1169.46 158.593 -1174.09 186.425C-1178.73 214.013 -1181.05 242.333 -1181.05 271.386C-1181.05 302.147 -1179.46 327.538 -1176.29 347.558C-1173.12 367.577 -1166.4 385.766 -1156.15 402.123C-1144.67 420.189 -1130.51 434.472 -1113.67 444.97C-1096.58 455.224 -1079.25 460.351 -1061.67 460.351C-1048.73 460.351 -1039.45 457.787 -1033.83 452.66C-1028.22 447.533 -1025.05 439.11 -1024.31 427.392C-1022.12 387.841 -1019.92 344.14 -1017.72 296.288C-1015.52 248.437 -1014.43 212.67 -1014.43 188.988V158.227C-1014.43 122.338 -1016.01 95.7266 -1019.19 78.3926C-1022.36 61.0586 -1029.56 48.7295 -1040.79 41.4053C-1049.83 35.0576 -1054.34 27.001 -1054.34 17.2354C-1054.34 12.1084 -1052.27 7.95801 -1048.12 4.78418C-1043.97 1.61035 -1038.96 0.0234375 -1033.1 0.0234375C-1020.16 0.0234375 -1005.39 0.633789 -988.791 1.85449C-972.189 3.0752 -960.959 3.68555 -955.1 3.68555C-951.193 3.68555 -946.677 3.56348 -941.55 3.31934C-936.423 2.83105 -931.296 2.46484 -926.169 2.2207C-921.042 1.73242 -916.525 1.48828 -912.619 1.48828C-898.215 1.48828 -889.06 4.90625 -885.153 11.7422C-881.247 18.5781 -879.294 29.6865 -879.294 45.0674V63.7441C-878.806 73.7539 -878.562 87.792 -878.562 105.858C-878.562 125.39 -878.928 141.137 -879.66 153.1C-880.148 165.062 -880.759 175.805 -881.491 185.326C-882.224 194.848 -882.59 200.585 -882.59 202.538ZM-376.486 501H-470.969C-474.875 501 -478.903 499.291 -483.054 495.873C-486.96 492.211 -488.913 488.427 -488.913 484.521C-488.913 478.417 -488.425 474.389 -487.448 472.436C-475.974 462.182 -468.161 454.003 -464.011 447.899C-459.616 441.796 -457.419 431.786 -457.419 417.87C-457.419 405.907 -460.959 385.033 -468.039 355.248C-474.875 325.463 -485.007 288.354 -498.435 243.92C-505.271 268.09 -515.646 285.668 -529.562 296.654C-543.479 307.396 -556.662 312.768 -569.113 312.768C-572.775 312.768 -576.56 311.913 -580.466 310.204C-584.372 308.495 -586.325 306.298 -586.325 303.612C-586.325 302.88 -585.471 299.828 -583.762 294.457C-582.053 288.842 -581.198 285.18 -581.198 283.471C-581.198 277.855 -583.151 272.362 -587.058 266.991C-590.72 261.62 -595.725 257.348 -602.072 254.174C-608.176 250.756 -615.378 249.047 -623.679 249.047C-639.304 249.047 -654.44 254.54 -669.089 265.526C-683.493 276.269 -695.212 291.039 -704.245 309.838C-711.813 326.684 -718.283 347.191 -723.654 371.361C-729.025 395.287 -731.711 417.016 -731.711 436.547C-731.711 440.941 -730.979 444.97 -729.514 448.632C-728.049 452.05 -726.096 455.468 -723.654 458.886C-720.969 462.06 -715.964 467.797 -708.64 476.098C-707.663 478.539 -707.175 479.882 -707.175 480.126C-707.175 486.962 -711.081 492.211 -718.894 495.873C-726.462 499.291 -736.838 501 -750.021 501H-764.67C-775.656 501 -785.056 497.582 -792.868 490.746C-800.681 483.666 -804.587 475.854 -804.587 467.309C-804.587 462.914 -803.854 457.421 -802.39 450.829C-791.892 403.954 -779.44 358.666 -765.036 314.965C-750.388 271.264 -734.152 227.44 -716.33 183.495C-698.264 139.55 -686.423 110.009 -680.808 94.8721C-674.948 79.4912 -672.019 66.6738 -672.019 56.4199C-672.019 53.002 -673.972 48.4854 -677.878 42.8701C-681.784 37.0107 -684.592 32.7383 -686.301 30.0527C-687.766 27.123 -688.498 22.6064 -688.498 16.5029C-688.498 13.8174 -686.057 10.5215 -681.174 6.61523C-676.291 2.70898 -671.164 0.755859 -665.793 0.755859C-657.248 0.755859 -650.534 0.87793 -645.651 1.12207C-640.524 1.12207 -633.322 1.24414 -624.045 1.48828C-614.523 1.73242 -603.049 1.97656 -589.621 2.2207C-576.193 2.46484 -562.888 2.70898 -549.704 2.95312C-540.671 2.95312 -528.342 2.83105 -512.717 2.58691C-497.092 2.09863 -481.345 1.73242 -465.476 1.48828C-449.606 1 -437.155 0.755859 -428.122 0.755859C-419.821 0.755859 -413.352 1.73242 -408.713 3.68555C-404.074 5.39453 -401.755 9.91113 -401.755 17.2354C-401.755 21.1416 -403.098 24.4375 -405.783 27.123C-414.572 35.9121 -418.967 45.3115 -418.967 55.3213C-418.967 62.1572 -417.014 69.2373 -413.107 76.5615C-404.318 92.6748 -396.262 111.107 -388.938 131.859C-381.613 152.611 -375.632 171.654 -370.993 188.988C-366.354 206.078 -360.861 228.783 -354.514 257.104C-347.922 285.18 -341.452 312.768 -335.104 339.867C-330.71 356.225 -326.071 374.535 -321.188 394.799C-316.062 414.818 -313.498 436.181 -313.498 458.886C-313.498 477.44 -318.991 489.159 -329.978 494.042C-340.964 498.681 -356.467 501 -376.486 501ZM-648.581 150.902L-673.483 210.595C-656.394 190.575 -640.28 175.316 -625.144 164.818C-610.007 154.32 -593.039 149.071 -574.24 149.071C-560.568 149.071 -543.601 155.907 -523.337 169.579L-549.704 101.098C-553.366 91.332 -558.493 83.5195 -565.085 77.6602C-571.677 71.8008 -578.513 68.8711 -585.593 68.8711C-594.626 68.8711 -604.758 76.1953 -615.988 90.8438C-626.975 105.492 -637.839 125.512 -648.581 150.902ZM-147.971 284.936L-119.772 258.568L-152.731 221.215C-191.794 175.805 -221.579 136.62 -242.087 103.661C-262.351 70.7021 -272.482 46.4102 -272.482 30.7852C-272.482 11.2539 -261.496 1.48828 -239.523 1.48828H-112.082C-105.979 1.48828 -100.974 3.19727 -97.0674 6.61523C-93.1611 10.0332 -91.208 14.3057 -91.208 19.4326C-91.208 21.874 -93.0391 27.2451 -96.7012 35.5459C-100.363 43.8467 -102.194 50.1943 -102.194 54.5889C-102.194 63.6221 -97.3115 76.1953 -87.5459 92.3086C-77.5361 108.422 -64.2305 125.146 -47.6289 142.479L-27.4873 163.354L-6.97949 146.142C17.6787 124.657 36.2334 105.37 48.6846 88.2803C61.3799 70.9463 67.7275 58.251 67.7275 50.1943C67.7275 45.7998 65.6523 40.6729 61.502 34.8135C57.3516 28.71 55.2764 23.583 55.2764 19.4326C55.2764 14.0615 57.1074 9.66699 60.7695 6.24902C64.6758 2.58691 69.3145 0.755859 74.6855 0.755859C85.1836 0.511719 94.4609 0.389648 102.518 0.389648C110.818 0.145508 119.974 0.0234375 129.983 0.0234375C142.435 0.0234375 151.712 0.511719 157.815 1.48828C163.919 2.46484 168.191 4.66211 170.633 8.08008C173.074 11.2539 174.295 16.2588 174.295 23.0947C174.295 28.4658 173.196 33.959 170.999 39.5742C169.046 44.9453 166.116 48.9736 162.21 51.6592C113.382 95.3604 68.46 136.864 27.4443 176.171L2.54199 199.608L25.2471 227.074C63.8213 274.438 91.043 308.007 106.912 327.782C122.781 347.313 136.941 365.868 149.393 383.446C162.088 400.78 171.976 416.894 179.056 431.786C186.38 446.679 190.042 459.984 190.042 471.703C190.042 480.736 187.356 487.938 181.985 493.31C176.614 498.437 169.046 501 159.28 501H23.7822C17.1904 501 11.8193 499.047 7.66895 495.141C3.7627 491.234 1.80957 486.229 1.80957 480.126C1.80957 476.22 2.78613 472.924 4.73926 470.238C8.64551 466.088 12.1855 461.693 15.3594 457.055C18.7773 452.172 20.4863 447.777 20.4863 443.871C20.4863 441.43 16.458 433.495 8.40137 420.067C0.344727 406.64 -10.8857 390.282 -25.29 370.995C-39.4502 351.464 -56.1738 330.59 -75.4609 308.373L-90.4756 291.161L-107.688 307.641C-120.383 319.359 -131.125 329.735 -139.914 338.769C-148.459 347.558 -156.394 357.079 -163.718 367.333C-171.042 377.587 -176.413 387.353 -179.831 396.63C-183.249 405.907 -184.958 416.161 -184.958 427.392C-184.958 444.237 -178.488 457.543 -165.549 467.309C-162.375 469.018 -160.788 472.558 -160.788 477.929C-160.788 484.032 -162.985 489.403 -167.38 494.042C-171.774 498.681 -175.559 501 -178.732 501H-252.341C-269.431 501 -277.976 491.234 -277.976 471.703C-277.976 459.984 -264.792 433.983 -238.425 393.7C-212.058 353.173 -181.906 316.918 -147.971 284.936ZM411.233 150.17V324.853C411.233 356.347 413.309 382.104 417.459 402.123C421.609 422.143 428.445 436.913 437.967 446.435C447.732 455.712 461.038 460.351 477.884 460.351C487.894 460.351 497.659 455.956 507.181 447.167C516.702 438.134 521.463 427.88 521.463 416.405C521.463 404.931 519.144 395.287 514.505 387.475C510.11 379.418 504.129 372.582 496.561 366.967C488.992 361.352 483.133 356.957 478.982 353.783C474.832 350.609 472.757 347.68 472.757 344.994C472.757 340.355 475.809 335.473 481.912 330.346C488.26 324.975 496.438 320.458 506.448 316.796C516.702 313.134 527.444 311.303 538.675 311.303C560.159 311.303 579.446 316.796 596.536 327.782C613.626 338.769 626.932 353.173 636.453 370.995C646.219 388.573 651.102 406.64 651.102 425.194C651.102 474.755 627.176 499.535 579.324 499.535C574.441 499.535 564.676 498.925 550.027 497.704C535.379 496.483 522.562 495.873 511.575 495.873C501.077 495.873 478.128 496.972 442.728 499.169C407.327 501.366 377.786 502.465 354.104 502.465C324.563 502.465 303.567 502.221 291.116 501.732C278.665 501.244 269.266 499.779 262.918 497.338C256.814 494.652 253.763 490.38 253.763 484.521C253.763 479.882 255.472 475.121 258.89 470.238C266.702 459.252 272.073 451.073 275.003 445.702C277.933 440.331 279.397 433.739 279.397 425.927V329.979V150.17C279.397 89.1348 270.364 51.0488 252.298 35.9121C248.147 32.4941 246.072 26.7568 246.072 18.7002C246.072 7.71387 256.57 2.2207 277.566 2.2207C282.938 2.2207 289.773 2.70898 298.074 3.68555C306.375 4.66211 313.089 5.15039 318.216 5.15039C321.39 5.15039 331.399 4.2959 348.245 2.58691C365.091 0.87793 379.373 0.0234375 391.092 0.0234375C410.623 0.0234375 423.685 1 430.276 2.95312C437.112 4.90625 440.53 9.42285 440.53 16.5029C440.53 23.583 438.455 29.3203 434.305 33.7148C423.807 47.6309 417.337 59.2275 414.896 68.5049C412.454 77.5381 411.233 94.75 411.233 120.141V150.17ZM882.547 100.365L944.803 253.441L1009.99 99.6328C1017.56 79.6133 1021.34 66.918 1021.34 61.5469C1021.34 56.4199 1018.17 49.2178 1011.82 39.9404C1005.72 30.6631 1002.66 23.583 1002.66 18.7002C1002.66 14.0615 1004.25 10.0332 1007.42 6.61523C1010.6 3.19727 1014.5 1.48828 1019.14 1.48828H1061.62C1068.22 1.24414 1074.08 1.12207 1079.2 1.12207C1084.57 0.87793 1091.78 0.755859 1100.81 0.755859C1105.2 0.755859 1109.6 2.95312 1113.99 7.34766C1118.63 11.498 1120.95 16.0146 1120.95 20.8975C1120.95 24.3154 1114.6 35.9121 1101.91 55.6875C1089.21 75.2187 1080.3 89.3789 1075.17 98.168L1017.68 199.608C1006.69 218.163 996.805 239.037 988.016 262.23C979.227 285.424 972.757 307.274 968.606 327.782C964.7 348.046 962.747 367.577 962.747 386.376C962.747 408.349 964.944 424.95 969.339 436.181C973.978 447.411 979.471 457.055 985.818 465.111C992.41 472.924 995.706 479.149 995.706 483.788C995.706 494.774 984.231 500.268 961.282 500.268C956.888 500.268 948.099 499.657 934.915 498.437C921.976 497.216 910.501 496.605 900.491 496.605C893.899 496.605 885.965 496.85 876.688 497.338C867.654 497.582 858.499 497.948 849.222 498.437C839.944 498.681 832.01 498.803 825.418 498.803C815.652 498.803 808.694 497.826 804.544 495.873C800.638 493.92 798.685 489.159 798.685 481.591C798.685 475.976 800.394 471.459 803.812 468.041C813.821 458.031 820.535 446.557 823.953 433.617C827.615 420.678 829.446 403.588 829.446 382.348C829.446 344.75 822.732 307.763 809.305 271.386C795.877 234.765 775.979 194.848 749.612 151.635L719.949 101.098C710.184 85.2285 702.371 72.5332 696.512 63.0117C690.652 53.4902 686.014 45.5557 682.596 39.208C679.422 32.6162 677.835 27.4893 677.835 23.8271C677.835 17.9678 679.3 13.5732 682.229 10.6436C685.403 7.46973 689.798 5.39453 695.413 4.41797C701.028 3.44141 709.451 2.70898 720.682 2.2207H750.711C759.5 1.97656 768.655 1.73242 778.177 1.48828C787.942 1.24414 796.243 1 803.079 0.755859C810.159 0.511719 815.774 0.389648 819.925 0.389648C824.075 0.145508 829.935 0.0234375 837.503 0.0234375C862.649 0.0234375 878.519 1 885.11 2.95312C891.946 4.66211 895.364 8.69043 895.364 15.0381C895.364 20.4092 894.388 24.6816 892.435 27.8555C889.749 31.7617 886.697 36.0342 883.279 40.6729C879.861 45.3115 877.298 49.4619 875.589 53.124C874.124 56.7861 873.392 60.3262 873.392 63.7441C873.392 72.7773 876.443 84.9844 882.547 100.365ZM1433.69 450.829C1429.3 440.819 1424.78 433.495 1420.14 428.856C1415.75 423.974 1409.77 421.532 1402.2 421.532C1397.32 421.532 1392.92 423.119 1389.02 426.293C1385.35 429.467 1383.52 432.885 1383.52 436.547C1383.52 449.486 1392.56 455.956 1410.62 455.956C1413.06 455.956 1416.6 455.346 1421.24 454.125C1425.88 452.904 1430.03 451.806 1433.69 450.829ZM1354.23 410.912C1363.26 397.973 1371.44 389.062 1378.76 384.179C1386.09 379.052 1396.95 376.488 1411.36 376.488C1422.34 376.488 1432.6 379.174 1442.12 384.545C1451.64 389.672 1461.4 396.508 1471.41 405.053C1478.25 376.977 1483.25 353.783 1486.43 335.473C1489.85 317.162 1491.56 296.532 1491.56 273.583C1491.56 247.948 1489.72 219.75 1486.06 188.988C1482.64 158.227 1479.1 134.545 1475.44 117.943C1472.02 101.098 1466.29 86.5713 1458.23 74.3643C1450.17 61.9131 1440.53 52.2695 1429.3 45.4336C1418.07 38.5977 1406.59 35.1797 1394.88 35.1797C1382.91 35.1797 1370.71 39.6963 1358.25 48.7295C1346.05 57.5186 1335.67 69.4814 1327.13 84.6182C1322.24 93.4072 1318.46 103.661 1315.77 115.38C1313.09 127.099 1311.14 140.16 1309.92 154.564C1308.94 168.725 1308.45 185.448 1308.45 204.735C1308.45 237.45 1310.4 265.893 1314.31 290.062C1318.46 313.988 1323.46 334.13 1329.32 350.487C1335.18 366.845 1343.48 386.986 1354.23 410.912ZM1433.69 498.803C1430.28 499.291 1427.22 499.657 1424.54 499.901C1421.85 500.146 1418.56 500.512 1414.65 501C1410.99 501.488 1408.3 501.732 1406.59 501.732C1363.14 501.732 1323.59 494.408 1287.94 479.76C1252.3 465.111 1224.1 445.458 1203.35 420.8C1188.7 402.978 1177.59 381.249 1170.02 355.614C1162.45 329.979 1158.67 300.927 1158.67 268.456C1158.67 245.263 1161.23 222.558 1166.36 200.341C1171.73 177.88 1178.93 151.635 1187.97 121.605C1197.24 91.5762 1201.88 73.2656 1201.88 66.6738C1201.88 59.1055 1201.15 53.3682 1199.69 49.4619C1190.16 34.0811 1185.4 24.8037 1185.4 21.6299C1185.4 7.71387 1196.15 0.755859 1217.63 0.755859C1230.81 0.755859 1245.1 1 1260.48 1.48828C1275.86 1.73242 1290.38 2.2207 1304.06 2.95312C1317.73 3.44141 1334.94 4.05176 1355.69 4.78418C1376.69 5.5166 1393.66 5.88281 1406.59 5.88281C1422.71 5.88281 1441.38 5.5166 1462.62 4.78418C1483.87 3.80762 1505.11 2.95312 1526.35 2.2207C1547.59 1.24414 1566.26 0.755859 1582.38 0.755859C1594.09 0.755859 1602.52 2.46484 1607.64 5.88281C1612.77 9.05664 1615.33 15.0381 1615.33 23.8271C1615.33 31.8838 1613.26 40.7949 1609.11 50.5605C1605.2 60.3262 1603.25 67.7725 1603.25 72.8994C1603.25 80.4678 1607.64 95.9707 1616.43 119.408C1625.47 142.602 1632.91 166.161 1638.77 190.087C1644.63 214.013 1647.56 242.943 1647.56 276.879C1647.56 309.35 1644.51 336.693 1638.41 358.91C1632.3 380.883 1623.76 398.949 1612.77 413.109C1602.03 427.025 1589.82 438.5 1576.15 447.533C1562.72 456.566 1544.53 466.942 1521.58 478.661C1526.71 487.938 1531.11 494.53 1534.77 498.437C1538.67 502.099 1544.05 503.93 1550.88 503.93C1563.33 503.93 1571.15 501.732 1574.32 497.338C1577.49 492.699 1580.79 485.497 1584.21 475.731C1587.62 465.966 1592.26 461.083 1598.12 461.083C1601.3 461.083 1604.71 463.036 1608.38 466.942C1612.04 470.849 1615.09 475.854 1617.53 481.957C1619.97 488.061 1621.19 494.896 1621.19 502.465C1621.19 517.846 1617.78 532.372 1610.94 546.044C1604.1 559.716 1594.34 570.58 1581.64 578.637C1568.95 586.938 1553.93 591.088 1536.6 591.088C1517.07 591.088 1500.83 587.792 1487.89 581.2C1474.95 574.608 1464.21 564.477 1455.67 550.805C1447.12 537.133 1439.8 519.799 1433.69 498.803ZM2146.71 202.538V251.977C2146.71 292.016 2146.58 323.998 2146.34 347.924C2146.34 371.85 2146.22 398.095 2145.97 426.659C2145.97 442.284 2151.71 455.59 2163.19 466.576C2169.29 472.436 2172.34 478.905 2172.34 485.985C2172.34 492.577 2170.02 496.728 2165.38 498.437C2160.99 500.146 2147.56 501 2125.1 501C2116.8 500.756 2107.89 500.512 2098.37 500.268C2089.09 500.023 2080.54 499.779 2072.73 499.535C2065.16 499.291 2058.82 499.169 2053.69 499.169C2048.56 498.925 2041.12 498.803 2031.35 498.803C2021.34 498.803 2013.65 498.925 2008.28 499.169C2003.15 499.169 1996.19 499.291 1987.41 499.535C1978.86 499.779 1969.09 500.023 1958.11 500.268C1947.12 500.512 1936.5 500.756 1926.25 501C1906.72 501 1890.6 500.756 1877.91 500.268C1865.46 499.535 1852.27 497.704 1838.36 494.774C1824.44 491.845 1810.28 486.962 1795.88 480.126C1764.38 464.501 1739.97 441.186 1722.63 410.18C1705.54 378.93 1697 342.675 1697 301.415C1697 274.804 1699.2 249.657 1703.59 225.976C1708.23 202.294 1714.09 179.345 1721.17 157.128C1728.49 134.667 1734.84 114.892 1740.21 97.8018C1745.83 80.4678 1748.64 67.6504 1748.64 59.3496C1748.64 50.0723 1743.88 41.5273 1734.35 33.7148C1730.45 30.2969 1728.49 23.583 1728.49 13.5732C1728.49 9.91113 1729.84 6.85938 1732.52 4.41797C1735.21 1.97656 1738.63 0.755859 1742.78 0.755859C1752.54 0.755859 1759.5 0.87793 1763.65 1.12207C1768.04 1.12207 1773.05 1.24414 1778.67 1.48828C1784.52 1.73242 1791.24 1.97656 1798.81 2.2207C1806.38 2.46484 1813.94 2.70898 1821.51 2.95312C1826.88 2.95312 1833.23 2.83105 1840.55 2.58691C1847.88 2.09863 1855.08 1.73242 1862.16 1.48828C1869.49 1 1875.83 0.755859 1881.2 0.755859C1885.84 0.755859 1889.87 2.58691 1893.29 6.24902C1896.71 9.91113 1898.42 14.0615 1898.42 18.7002C1898.42 26.0244 1896.22 36.5225 1891.82 50.1943C1887.43 63.8662 1881.33 83.0313 1873.51 107.689C1865.95 132.348 1859.84 158.593 1855.2 186.425C1850.56 214.013 1848.25 242.333 1848.25 271.386C1848.25 302.147 1849.83 327.538 1853.01 347.558C1856.18 367.577 1862.89 385.766 1873.15 402.123C1884.62 420.189 1898.78 434.472 1915.63 444.97C1932.72 455.224 1950.05 460.351 1967.63 460.351C1980.57 460.351 1989.85 457.787 1995.46 452.66C2001.08 447.533 2004.25 439.11 2004.98 427.392C2007.18 387.841 2009.38 344.14 2011.58 296.288C2013.77 248.437 2014.87 212.67 2014.87 188.988V158.227C2014.87 122.338 2013.28 95.7266 2010.11 78.3926C2006.94 61.0586 1999.73 48.7295 1988.5 41.4053C1979.47 35.0576 1974.95 27.001 1974.95 17.2354C1974.95 12.1084 1977.03 7.95801 1981.18 4.78418C1985.33 1.61035 1990.33 0.0234375 1996.19 0.0234375C2009.13 0.0234375 2023.9 0.633789 2040.51 1.85449C2057.11 3.0752 2068.34 3.68555 2074.2 3.68555C2078.1 3.68555 2082.62 3.56348 2087.75 3.31934C2092.87 2.83105 2098 2.46484 2103.13 2.2207C2108.25 1.73242 2112.77 1.48828 2116.68 1.48828C2131.08 1.48828 2140.24 4.90625 2144.14 11.7422C2148.05 18.5781 2150 29.6865 2150 45.0674V63.7441C2150.49 73.7539 2150.74 87.792 2150.74 105.858C2150.74 125.39 2150.37 141.137 2149.64 153.1C2149.15 165.062 2148.54 175.805 2147.81 185.326C2147.07 194.848 2146.71 200.585 2146.71 202.538ZM2652.81 501H2558.33C2554.42 501 2550.39 499.291 2546.24 495.873C2542.34 492.211 2540.38 488.427 2540.38 484.521C2540.38 478.417 2540.87 474.389 2541.85 472.436C2553.32 462.182 2561.14 454.003 2565.29 447.899C2569.68 441.796 2571.88 431.786 2571.88 417.87C2571.88 405.907 2568.34 385.033 2561.26 355.248C2554.42 325.463 2544.29 288.354 2530.86 243.92C2524.03 268.09 2513.65 285.668 2499.73 296.654C2485.82 307.396 2472.63 312.768 2460.18 312.768C2456.52 312.768 2452.74 311.913 2448.83 310.204C2444.92 308.495 2442.97 306.298 2442.97 303.612C2442.97 302.88 2443.83 299.828 2445.54 294.457C2447.24 288.842 2448.1 285.18 2448.1 283.471C2448.1 277.855 2446.15 272.362 2442.24 266.991C2438.58 261.62 2433.57 257.348 2427.22 254.174C2421.12 250.756 2413.92 249.047 2405.62 249.047C2389.99 249.047 2374.86 254.54 2360.21 265.526C2345.8 276.269 2334.08 291.039 2325.05 309.838C2317.48 326.684 2311.01 347.191 2305.64 371.361C2300.27 395.287 2297.59 417.016 2297.59 436.547C2297.59 440.941 2298.32 444.97 2299.78 448.632C2301.25 452.05 2303.2 455.468 2305.64 458.886C2308.33 462.06 2313.33 467.797 2320.66 476.098C2321.63 478.539 2322.12 479.882 2322.12 480.126C2322.12 486.962 2318.22 492.211 2310.4 495.873C2302.83 499.291 2292.46 501 2279.28 501H2264.63C2253.64 501 2244.24 497.582 2236.43 490.746C2228.62 483.666 2224.71 475.854 2224.71 467.309C2224.71 462.914 2225.44 457.421 2226.91 450.829C2237.41 403.954 2249.86 358.666 2264.26 314.965C2278.91 271.264 2295.14 227.44 2312.97 183.495C2331.03 139.55 2342.87 110.009 2348.49 94.8721C2354.35 79.4912 2357.28 66.6738 2357.28 56.4199C2357.28 53.002 2355.33 48.4854 2351.42 42.8701C2347.51 37.0107 2344.71 32.7383 2343 30.0527C2341.53 27.123 2340.8 22.6064 2340.8 16.5029C2340.8 13.8174 2343.24 10.5215 2348.12 6.61523C2353.01 2.70898 2358.13 0.755859 2363.5 0.755859C2372.05 0.755859 2378.76 0.87793 2383.65 1.12207C2388.77 1.12207 2395.97 1.24414 2405.25 1.48828C2414.77 1.73242 2426.25 1.97656 2439.68 2.2207C2453.1 2.46484 2466.41 2.70898 2479.59 2.95312C2488.63 2.95312 2500.96 2.83105 2516.58 2.58691C2532.21 2.09863 2547.95 1.73242 2563.82 1.48828C2579.69 1 2592.14 0.755859 2601.17 0.755859C2609.48 0.755859 2615.95 1.73242 2620.58 3.68555C2625.22 5.39453 2627.54 9.91113 2627.54 17.2354C2627.54 21.1416 2626.2 24.4375 2623.51 27.123C2614.72 35.9121 2610.33 45.3115 2610.33 55.3213C2610.33 62.1572 2612.28 69.2373 2616.19 76.5615C2624.98 92.6748 2633.04 111.107 2640.36 131.859C2647.68 152.611 2653.67 171.654 2658.3 188.988C2662.94 206.078 2668.44 228.783 2674.78 257.104C2681.38 285.18 2687.84 312.768 2694.19 339.867C2698.59 356.225 2703.23 374.535 2708.11 394.799C2713.24 414.818 2715.8 436.181 2715.8 458.886C2715.8 477.44 2710.31 489.159 2699.32 494.042C2688.33 498.681 2672.83 501 2652.81 501ZM2380.72 150.902L2355.81 210.595C2372.9 190.575 2389.02 175.316 2404.15 164.818C2419.29 154.32 2436.26 149.071 2455.06 149.071C2468.73 149.071 2485.7 155.907 2505.96 169.579L2479.59 101.098C2475.93 91.332 2470.8 83.5195 2464.21 77.6602C2457.62 71.8008 2450.78 68.8711 2443.7 68.8711C2434.67 68.8711 2424.54 76.1953 2413.31 90.8438C2402.32 105.492 2391.46 125.512 2380.72 150.902ZM2881.33 284.936L2909.52 258.568L2876.57 221.215C2837.5 175.805 2807.72 136.62 2787.21 103.661C2766.95 70.7021 2756.81 46.4102 2756.81 30.7852C2756.81 11.2539 2767.8 1.48828 2789.77 1.48828H2917.21C2923.32 1.48828 2928.32 3.19727 2932.23 6.61523C2936.14 10.0332 2938.09 14.3057 2938.09 19.4326C2938.09 21.874 2936.26 27.2451 2932.6 35.5459C2928.93 43.8467 2927.1 50.1943 2927.1 54.5889C2927.1 63.6221 2931.99 76.1953 2941.75 92.3086C2951.76 108.422 2965.07 125.146 2981.67 142.479L3001.81 163.354L3022.32 146.142C3046.98 124.657 3065.53 105.37 3077.98 88.2803C3090.68 70.9463 3097.02 58.251 3097.02 50.1943C3097.02 45.7998 3094.95 40.6729 3090.8 34.8135C3086.65 28.71 3084.57 23.583 3084.57 19.4326C3084.57 14.0615 3086.4 9.66699 3090.07 6.24902C3093.97 2.58691 3098.61 0.755859 3103.98 0.755859C3114.48 0.511719 3123.76 0.389648 3131.81 0.389648C3140.12 0.145508 3149.27 0.0234375 3159.28 0.0234375C3171.73 0.0234375 3181.01 0.511719 3187.11 1.48828C3193.22 2.46484 3197.49 4.66211 3199.93 8.08008C3202.37 11.2539 3203.59 16.2588 3203.59 23.0947C3203.59 28.4658 3202.49 33.959 3200.3 39.5742C3198.34 44.9453 3195.41 48.9736 3191.51 51.6592C3142.68 95.3604 3097.76 136.864 3056.74 176.171L3031.84 199.608L3054.54 227.074C3093.12 274.438 3120.34 308.007 3136.21 327.782C3152.08 347.313 3166.24 365.868 3178.69 383.446C3191.38 400.78 3201.27 416.894 3208.35 431.786C3215.68 446.679 3219.34 459.984 3219.34 471.703C3219.34 480.736 3216.65 487.938 3211.28 493.31C3205.91 498.437 3198.34 501 3188.58 501H3053.08C3046.49 501 3041.12 499.047 3036.97 495.141C3033.06 491.234 3031.11 486.229 3031.11 480.126C3031.11 476.22 3032.08 472.924 3034.04 470.238C3037.94 466.088 3041.48 461.693 3044.66 457.055C3048.07 452.172 3049.78 447.777 3049.78 443.871C3049.78 441.43 3045.75 433.495 3037.7 420.067C3029.64 406.64 3018.41 390.282 3004.01 370.995C2989.85 351.464 2973.12 330.59 2953.84 308.373L2938.82 291.161L2921.61 307.641C2908.91 319.359 2898.17 329.735 2889.38 338.769C2880.84 347.558 2872.9 357.079 2865.58 367.333C2858.25 377.587 2852.88 387.353 2849.47 396.63C2846.05 405.907 2844.34 416.161 2844.34 427.392C2844.34 444.237 2850.81 457.543 2863.75 467.309C2866.92 469.018 2868.51 472.558 2868.51 477.929C2868.51 484.032 2866.31 489.403 2861.92 494.042C2857.52 498.681 2853.74 501 2850.56 501H2776.96C2759.87 501 2751.32 491.234 2751.32 471.703C2751.32 459.984 2764.5 433.983 2790.87 393.7C2817.24 353.173 2847.39 316.918 2881.33 284.936ZM3440.53 150.17V324.853C3440.53 356.347 3442.61 382.104 3446.76 402.123C3450.91 422.143 3457.74 436.913 3467.26 446.435C3477.03 455.712 3490.33 460.351 3507.18 460.351C3517.19 460.351 3526.96 455.956 3536.48 447.167C3546 438.134 3550.76 427.88 3550.76 416.405C3550.76 404.931 3548.44 395.287 3543.8 387.475C3539.41 379.418 3533.43 372.582 3525.86 366.967C3518.29 361.352 3512.43 356.957 3508.28 353.783C3504.13 350.609 3502.05 347.68 3502.05 344.994C3502.05 340.355 3505.11 335.473 3511.21 330.346C3517.56 324.975 3525.74 320.458 3535.75 316.796C3546 313.134 3556.74 311.303 3567.97 311.303C3589.46 311.303 3608.74 316.796 3625.83 327.782C3642.92 338.769 3656.23 353.173 3665.75 370.995C3675.52 388.573 3680.4 406.64 3680.4 425.194C3680.4 474.755 3656.47 499.535 3608.62 499.535C3603.74 499.535 3593.97 498.925 3579.32 497.704C3564.68 496.483 3551.86 495.873 3540.87 495.873C3530.37 495.873 3507.42 496.972 3472.02 499.169C3436.62 501.366 3407.08 502.465 3383.4 502.465C3353.86 502.465 3332.86 502.221 3320.41 501.732C3307.96 501.244 3298.56 499.779 3292.21 497.338C3286.11 494.652 3283.06 490.38 3283.06 484.521C3283.06 479.882 3284.77 475.121 3288.19 470.238C3296 459.252 3301.37 451.073 3304.3 445.702C3307.23 440.331 3308.69 433.739 3308.69 425.927V329.979V150.17C3308.69 89.1348 3299.66 51.0488 3281.59 35.9121C3277.44 32.4941 3275.37 26.7568 3275.37 18.7002C3275.37 7.71387 3285.87 2.2207 3306.86 2.2207C3312.23 2.2207 3319.07 2.70898 3327.37 3.68555C3335.67 4.66211 3342.39 5.15039 3347.51 5.15039C3350.69 5.15039 3360.7 4.2959 3377.54 2.58691C3394.39 0.87793 3408.67 0.0234375 3420.39 0.0234375C3439.92 0.0234375 3452.98 1 3459.57 2.95312C3466.41 4.90625 3469.83 9.42285 3469.83 16.5029C3469.83 23.583 3467.75 29.3203 3463.6 33.7148C3453.1 47.6309 3446.63 59.2275 3444.19 68.5049C3441.75 77.5381 3440.53 94.75 3440.53 120.141V150.17ZM3911.84 100.365L3974.1 253.441L4039.29 99.6328C4046.85 79.6133 4050.64 66.918 4050.64 61.5469C4050.64 56.4199 4047.46 49.2178 4041.12 39.9404C4035.01 30.6631 4031.96 23.583 4031.96 18.7002C4031.96 14.0615 4033.55 10.0332 4036.72 6.61523C4039.9 3.19727 4043.8 1.48828 4048.44 1.48828H4090.92C4097.51 1.24414 4103.37 1.12207 4108.5 1.12207C4113.87 0.87793 4121.07 0.755859 4130.11 0.755859C4134.5 0.755859 4138.89 2.95312 4143.29 7.34766C4147.93 11.498 4150.25 16.0146 4150.25 20.8975C4150.25 24.3154 4143.9 35.9121 4131.2 55.6875C4118.51 75.2187 4109.6 89.3789 4104.47 98.168L4046.98 199.608C4035.99 218.163 4026.1 239.037 4017.31 262.23C4008.52 285.424 4002.05 307.274 3997.9 327.782C3994 348.046 3992.04 367.577 3992.04 386.376C3992.04 408.349 3994.24 424.95 3998.64 436.181C4003.27 447.411 4008.77 457.055 4015.12 465.111C4021.71 472.924 4025 479.149 4025 483.788C4025 494.774 4013.53 500.268 3990.58 500.268C3986.18 500.268 3977.4 499.657 3964.21 498.437C3951.27 497.216 3939.8 496.605 3929.79 496.605C3923.2 496.605 3915.26 496.85 3905.98 497.338C3896.95 497.582 3887.8 497.948 3878.52 498.437C3869.24 498.681 3861.31 498.803 3854.71 498.803C3844.95 498.803 3837.99 497.826 3833.84 495.873C3829.93 493.92 3827.98 489.159 3827.98 481.591C3827.98 475.976 3829.69 471.459 3833.11 468.041C3843.12 458.031 3849.83 446.557 3853.25 433.617C3856.91 420.678 3858.74 403.588 3858.74 382.348C3858.74 344.75 3852.03 307.763 3838.6 271.386C3825.17 234.765 3805.28 194.848 3778.91 151.635L3749.25 101.098C3739.48 85.2285 3731.67 72.5332 3725.81 63.0117C3719.95 53.4902 3715.31 45.5557 3711.89 39.208C3708.72 32.6162 3707.13 27.4893 3707.13 23.8271C3707.13 17.9678 3708.6 13.5732 3711.53 10.6436C3714.7 7.46973 3719.09 5.39453 3724.71 4.41797C3730.33 3.44141 3738.75 2.70898 3749.98 2.2207H3780.01C3788.8 1.97656 3797.95 1.73242 3807.47 1.48828C3817.24 1.24414 3825.54 1 3832.38 0.755859C3839.46 0.511719 3845.07 0.389648 3849.22 0.389648C3853.37 0.145508 3859.23 0.0234375 3866.8 0.0234375C3891.95 0.0234375 3907.82 1 3914.41 2.95312C3921.24 4.66211 3924.66 8.69043 3924.66 15.0381C3924.66 20.4092 3923.68 24.6816 3921.73 27.8555C3919.05 31.7617 3915.99 36.0342 3912.58 40.6729C3909.16 45.3115 3906.59 49.4619 3904.89 53.124C3903.42 56.7861 3902.69 60.3262 3902.69 63.7441C3902.69 72.7773 3905.74 84.9844 3911.84 100.365Z" fill="#003250"/>
</svg>
