<svg width="1920" height="502" viewBox="0 0 1920 502" fill="none" xmlns="http://www.w3.org/2000/svg">
<path opacity="0.03" d="M-414.526 31.5176C-428.931 31.5176 -441.87 33.3486 -453.345 37.0107C-464.575 40.6729 -473.608 45.6777 -480.444 52.0254C-487.036 58.373 -490.332 65.8193 -490.332 74.3643C-490.332 85.5947 -483.374 97.8018 -469.458 110.985C-455.298 124.169 -434.058 139.672 -405.737 157.494C-378.882 174.096 -356.787 188.866 -339.453 201.806C-322.119 214.501 -306.006 230.492 -291.113 249.779C-276.465 268.334 -266.089 284.813 -259.985 299.218C-253.638 313.378 -250.464 330.346 -250.464 350.121C-250.464 381.859 -258.154 409.081 -273.535 431.786C-288.916 454.491 -311.621 471.703 -341.65 483.422C-371.436 495.141 -407.568 501 -450.049 501C-515.234 501 -564.307 491.601 -597.266 472.802C-629.98 453.759 -646.338 425.194 -646.338 387.108C-646.338 373.925 -642.065 360.863 -633.521 347.924C-624.731 334.74 -612.402 323.998 -596.533 315.697C-580.42 307.152 -562.598 302.88 -543.066 302.88C-533.545 302.88 -524.512 304.345 -515.967 307.274C-507.422 309.96 -500.83 313.256 -496.191 317.162C-491.309 321.068 -488.867 324.608 -488.867 327.782C-488.867 331.688 -496.191 338.158 -510.84 347.191C-529.15 358.666 -538.306 373.192 -538.306 390.771C-538.306 408.837 -532.324 423.241 -520.361 433.983C-508.398 444.726 -493.14 450.097 -474.585 450.097C-450.171 450.097 -431.372 443.627 -418.188 430.688C-404.761 417.504 -398.047 400.658 -398.047 380.15C-398.047 360.375 -403.54 342.797 -414.526 327.416C-425.513 311.791 -440.283 297.387 -458.838 284.203C-477.148 271.02 -502.173 254.784 -533.911 235.497C-561.255 218.651 -583.228 203.515 -599.829 190.087C-616.187 176.415 -629.004 161.645 -638.281 145.775C-647.314 129.906 -651.831 113.061 -651.831 95.2383C-651.831 78.3926 -645.972 63.0117 -634.253 49.0957C-622.534 34.9355 -605.322 23.583 -582.617 15.0381C-559.668 6.49316 -532.446 2.2207 -500.952 2.2207C-497.046 2.2207 -484.473 2.46484 -463.232 2.95312C-441.992 3.44141 -422.827 3.68555 -405.737 3.68555C-391.089 3.68555 -377.905 2.95312 -366.187 1.48828C-354.224 -0.220703 -344.214 -1.92969 -336.157 -3.63867C-328.101 -5.5918 -323.34 -6.56836 -321.875 -6.56836C-314.551 -6.56836 -309.302 -3.76074 -306.128 1.85449C-302.954 7.22559 -299.658 16.8691 -296.24 30.7852C-291.113 50.8047 -288.55 63.5 -288.55 68.8711C-288.55 75.4629 -290.381 81.2002 -294.043 86.083C-297.461 90.7217 -301.489 93.041 -306.128 93.041C-314.185 93.041 -324.072 85.4727 -335.791 70.3359C-357.031 44.457 -383.276 31.5176 -414.526 31.5176ZM-159.277 324.12V115.38C-159.277 101.708 -160.132 89.3789 -161.841 78.3926C-163.306 67.1621 -165.381 57.5186 -168.066 49.4619C-170.508 41.4053 -173.071 36.4004 -175.757 34.4473C-179.907 31.0293 -182.715 28.3437 -184.18 26.3906C-185.645 24.4375 -186.377 20.165 -186.377 13.5732C-186.377 8.69043 -182.104 5.76074 -173.56 4.78418C-165.015 3.56348 -151.953 2.95312 -134.375 2.95312C-122.412 2.95312 -106.909 3.19727 -87.8662 3.68555C-68.8232 4.17383 -53.3203 4.41797 -41.3574 4.41797C-32.3242 4.41797 -7.66602 3.68555 32.6172 2.2207C72.9004 0.755859 108.667 0.0234375 139.917 0.0234375C158.716 0.0234375 175.195 2.83105 189.355 8.44629C203.516 13.8174 215.356 21.2637 224.878 30.7852C234.399 40.0625 241.479 50.8047 246.118 63.0117C251.001 74.9746 253.442 87.6699 253.442 101.098C253.442 116.234 250.635 131.615 245.02 147.24C239.404 162.621 231.592 176.903 221.582 190.087C211.572 203.271 200.098 214.623 187.158 224.145C168.115 237.816 149.316 246.605 130.762 250.512C112.207 254.418 88.5254 256.371 59.7168 256.371C35.5469 256.371 18.2129 254.662 7.71484 251.244C-2.53906 247.582 -7.66602 239.525 -7.66602 227.074C-7.66602 221.215 -1.68457 218.285 10.2783 218.285C11.7432 218.285 16.0156 218.529 23.0957 219.018C30.1758 219.506 35.6689 219.75 39.5752 219.75C56.4209 219.75 70.3369 212.67 81.3232 198.51C92.5537 184.35 98.1689 163.72 98.1689 136.62C98.1689 118.798 95.6055 103.173 90.4785 89.7451C85.3516 76.0732 78.1494 65.5752 68.8721 58.251C59.5947 50.9268 48.8525 47.2646 36.6455 47.2646C15.8936 47.2646 -0.341797 53.3682 -12.0605 65.5752C-23.7793 77.7822 -29.6387 94.3838 -29.6387 115.38V321.923C-29.6387 346.581 -29.0283 366.601 -27.8076 381.981C-26.3428 397.362 -23.4131 410.668 -19.0186 421.898C-14.3799 433.129 -7.42188 441.796 1.85547 447.899C6.73828 451.073 11.0107 455.712 14.6729 461.815C18.335 467.919 20.166 473.778 20.166 479.394C20.166 489.403 16.8701 495.629 10.2783 498.07C3.68652 500.512 -5.59082 501.732 -17.5537 501.732C-19.751 501.732 -24.6338 501.488 -32.2021 501C-39.5264 500.512 -48.5596 500.023 -59.3018 499.535C-69.3115 499.535 -82.0068 499.779 -97.3877 500.268C-112.769 500.756 -125.586 501 -135.84 501C-152.441 501 -160.742 490.99 -160.742 470.971C-160.742 451.684 -160.498 427.147 -160.01 397.362C-159.521 367.577 -159.277 343.163 -159.277 324.12ZM560.327 204.003C572.29 204.003 582.788 197.655 591.821 184.96C600.854 172.021 605.371 155.663 605.371 135.888C605.371 116.845 602.563 100.609 596.948 87.1816C591.577 73.7539 583.398 63.3779 572.412 56.0537C561.426 48.7295 548.364 45.0674 533.228 45.0674C519.312 45.0674 506.494 50.3164 494.775 60.8145C483.301 71.0684 476.343 84.4961 473.901 101.098C469.995 126.977 468.042 151.757 468.042 175.438V300.683C468.042 331.688 468.408 357.812 469.141 379.052C469.873 400.292 471.216 415.185 473.169 423.729C475.61 433.007 477.93 439.721 480.127 443.871C482.324 447.777 485.742 453.148 490.381 459.984C495.264 466.576 498.682 471.459 500.635 474.633C502.832 477.562 503.931 480.614 503.931 483.788C503.931 491.356 500.269 496.239 492.944 498.437C485.864 500.634 473.047 501.732 454.492 501.732C445.947 501.488 437.769 501.244 429.956 501C422.388 501 411.035 501 395.898 501C376.611 501 362.939 500.512 354.883 499.535C346.826 498.314 340.845 495.507 336.938 491.112C333.276 486.718 331.445 479.76 331.445 470.238C331.445 450.463 331.689 425.316 332.178 394.799C332.666 364.281 332.91 339.379 332.91 320.092V115.38C332.91 96.8252 331.445 80.834 328.516 67.4062C325.83 53.7344 322.29 45.3115 317.896 42.1377C316.187 40.6729 314.355 39.208 312.402 37.7432C310.449 36.2783 308.862 34.0811 307.642 31.1514C306.421 27.9775 305.811 23.8271 305.811 18.7002C305.811 14.7939 309.229 10.7656 316.064 6.61523C322.9 2.2207 331.567 0.0234375 342.065 0.0234375C345.728 0.0234375 363.184 1.36621 394.434 4.05176C425.928 6.7373 454.98 8.08008 481.592 8.08008C513.818 8.08008 549.341 6.7373 588.159 4.05176C627.222 1.36621 649.194 0.0234375 654.077 0.0234375C675.806 0.0234375 695.581 4.41797 713.403 13.207C731.226 21.9961 745.02 33.5928 754.785 47.9971C764.551 62.1572 769.434 77.416 769.434 93.7734C769.434 117.455 760.4 140.526 742.334 162.987C724.268 185.204 698.267 205.346 664.331 223.412C657.739 227.074 653.711 230.492 652.246 233.666C650.781 236.84 650.049 242.455 650.049 250.512C650.049 263.451 653.223 277.611 659.57 292.992C665.918 308.129 675.317 325.585 687.769 345.36C700.22 364.892 713.403 383.935 727.319 402.489C741.235 421.044 762.842 449.12 792.139 486.718C793.604 488.671 794.336 491.723 794.336 495.873C794.336 499.291 789.087 501 778.589 501C752.71 501 723.169 491.845 689.966 473.534C657.007 454.979 625.146 431.176 594.385 402.123C563.623 373.07 538.721 343.163 519.678 312.401C500.635 281.396 491.113 254.296 491.113 231.103C491.113 219.872 493.188 210.961 497.339 204.369C501.489 197.533 507.227 194.115 514.551 194.115C515.527 194.115 522.241 195.824 534.692 199.242C547.144 202.416 555.688 204.003 560.327 204.003ZM1003.44 150.902V333.642C1003.44 363.671 1003.81 386.254 1004.54 401.391C1005.52 416.283 1007.84 429.467 1011.5 440.941C1015.41 452.416 1021.39 461.938 1029.44 469.506C1031.88 471.459 1033.11 475.243 1033.11 480.858C1033.11 489.647 1029.81 495.263 1023.22 497.704C1016.87 499.901 1006.49 501 992.09 501C980.859 501 962.793 500.268 937.891 498.803C922.021 498.803 909.448 498.925 900.171 499.169C890.894 499.169 880.518 499.291 869.043 499.535C852.93 499.535 844.873 493.798 844.873 482.323C844.873 477.929 846.46 472.924 849.634 467.309C859.644 451.439 865.747 439.354 867.944 431.054C870.142 422.753 871.24 405.541 871.24 379.418V330.712V150.17C871.24 141.381 870.752 130.517 869.775 117.577C868.799 104.638 867.212 90.2334 865.015 74.3643C863.062 58.4951 861.963 48.9736 861.719 45.7998C860.254 38.9639 855.981 31.1514 848.901 22.3623C845.728 18.9443 844.141 14.1836 844.141 8.08008C844.141 6.12695 844.995 4.54004 846.704 3.31934C848.413 2.09863 850.122 1.48828 851.831 1.48828C860.864 1.48828 867.822 1.61035 872.705 1.85449C877.832 1.85449 884.302 1.97656 892.114 2.2207C899.927 2.46484 908.472 2.83105 917.749 3.31934C927.271 3.56348 936.304 3.68555 944.849 3.68555C950.22 3.68555 956.323 3.56348 963.159 3.31934C969.995 2.83105 976.709 2.46484 983.301 2.2207C989.893 1.97656 995.386 1.85449 999.78 1.85449C1004.42 1.61035 1011.38 1.48828 1020.65 1.48828C1028.47 1.48828 1032.37 4.54004 1032.37 10.6436C1032.37 16.0146 1031.4 20.165 1029.44 23.0947C1009.91 49.4619 1000.15 78.0264 1000.15 108.788C1000.15 115.136 1000.63 122.704 1001.61 131.493C1002.83 140.282 1003.44 146.752 1003.44 150.902ZM1386.87 42.1377C1371.97 42.1377 1357.45 44.7012 1343.29 49.8281C1329.13 54.7109 1316.06 61.791 1304.1 71.0684C1292.14 80.1016 1282.5 90.3555 1275.17 101.83C1265.41 117.211 1259.06 132.226 1256.13 146.874C1253.44 161.278 1252.1 179.589 1252.1 201.806V221.947C1252.1 252.221 1252.22 275.78 1252.47 292.626C1252.95 309.472 1253.56 321.923 1254.3 329.979C1258.2 365.624 1268.95 394.799 1286.52 417.504C1304.35 440.209 1323.27 451.562 1343.29 451.562C1382.84 451.562 1402.61 426.781 1402.61 377.221C1402.61 336.693 1402.12 306.908 1401.15 287.865C1400.17 268.822 1397.85 253.441 1394.19 241.723C1390.77 229.76 1384.91 220.727 1376.61 214.623C1373.19 212.182 1369.78 209.74 1366.36 207.299C1362.94 204.857 1360.25 202.416 1358.3 199.975C1356.35 197.533 1355.37 194.604 1355.37 191.186C1355.37 182.152 1358.79 175.683 1365.62 171.776C1372.46 167.87 1384.55 165.917 1401.88 165.917C1401.88 165.917 1409.08 166.161 1423.49 166.649C1437.89 167.138 1452.17 167.382 1466.33 167.382C1486.11 167.382 1500.27 170.067 1508.81 175.438C1517.6 180.81 1523.1 189.599 1525.29 201.806C1527.49 213.769 1528.59 233.056 1528.59 259.667V275.414C1528.59 289.33 1528.1 305.443 1527.12 323.754C1526.39 341.82 1525.54 357.445 1524.56 370.629C1523.83 383.568 1523.46 391.747 1523.46 395.165C1523.46 411.278 1524.93 424.828 1527.86 435.814C1531.03 446.557 1534.57 456.2 1538.48 464.745C1542.38 473.29 1544.34 479.149 1544.34 482.323C1544.34 489.403 1541.53 494.286 1535.91 496.972C1530.3 499.657 1521.88 501 1510.64 501C1505.27 501 1493.43 500.512 1475.12 499.535C1456.81 498.559 1441.19 498.07 1428.25 498.07C1420.43 498.07 1411.04 498.314 1400.05 498.803C1389.06 499.047 1378.08 499.413 1367.09 499.901C1356.1 500.146 1346.7 500.268 1338.89 500.268C1285.91 500.268 1243.92 493.554 1212.92 480.126C1188.75 469.384 1167.75 454.613 1149.93 435.814C1132.1 416.771 1118.43 394.188 1108.91 368.065C1099.39 341.942 1094.63 314.232 1094.63 284.936C1094.63 257.836 1097.68 233.422 1103.78 211.693C1110.13 189.721 1119.41 161.645 1131.62 127.465C1143.82 93.2852 1149.93 70.0918 1149.93 57.8848C1149.93 49.584 1146.39 41.5273 1139.31 33.7148C1135.89 29.0762 1134.18 24.5596 1134.18 20.165C1134.18 7.22559 1143.46 0.755859 1162.01 0.755859C1172.27 0.755859 1193.51 1.97656 1225.73 4.41797C1257.96 6.85938 1284.94 8.08008 1306.67 8.08008C1352.08 8.08008 1395.65 6.98145 1437.4 4.78418C1479.15 2.58691 1497.34 1.48828 1491.97 1.48828C1504.42 1.48828 1512.35 5.27246 1515.77 12.8408C1519.19 20.4092 1522 32.6162 1524.19 49.4619C1524.68 53.6123 1525.17 57.6406 1525.66 61.5469C1526.39 65.4531 1526.88 68.8711 1527.12 71.8008C1527.61 74.7305 1527.86 77.5381 1527.86 80.2236C1527.86 88.2803 1525.9 95.1162 1522 100.731C1518.33 106.103 1514.55 108.788 1510.64 108.788C1506.25 108.788 1502.1 107.323 1498.19 104.394C1494.53 101.464 1489.16 96.2148 1482.08 88.6465C1468.9 72.2891 1455.35 60.4482 1441.43 53.124C1427.76 45.7998 1409.57 42.1377 1386.87 42.1377ZM2013.09 501H1918.6C1914.7 501 1910.67 499.291 1906.52 495.873C1902.61 492.211 1900.66 488.427 1900.66 484.521C1900.66 478.417 1901.15 474.389 1902.12 472.436C1913.6 462.182 1921.41 454.003 1925.56 447.899C1929.96 441.796 1932.15 431.786 1932.15 417.87C1932.15 405.907 1928.61 385.033 1921.53 355.248C1914.7 325.463 1904.57 288.354 1891.14 243.92C1884.3 268.09 1873.93 285.668 1860.01 296.654C1846.09 307.396 1832.91 312.768 1820.46 312.768C1816.8 312.768 1813.01 311.913 1809.11 310.204C1805.2 308.495 1803.25 306.298 1803.25 303.612C1803.25 302.88 1804.1 299.828 1805.81 294.457C1807.52 288.842 1808.37 285.18 1808.37 283.471C1808.37 277.855 1806.42 272.362 1802.51 266.991C1798.85 261.62 1793.85 257.348 1787.5 254.174C1781.4 250.756 1774.19 249.047 1765.89 249.047C1750.27 249.047 1735.13 254.54 1720.48 265.526C1706.08 276.269 1694.36 291.039 1685.33 309.838C1677.76 326.684 1671.29 347.191 1665.92 371.361C1660.55 395.287 1657.86 417.016 1657.86 436.547C1657.86 440.941 1658.59 444.97 1660.06 448.632C1661.52 452.05 1663.48 455.468 1665.92 458.886C1668.6 462.06 1673.61 467.797 1680.93 476.098C1681.91 478.539 1682.4 479.882 1682.4 480.126C1682.4 486.962 1678.49 492.211 1670.68 495.873C1663.11 499.291 1652.73 501 1639.55 501H1624.9C1613.92 501 1604.52 497.582 1596.7 490.746C1588.89 483.666 1584.99 475.854 1584.99 467.309C1584.99 462.914 1585.72 457.421 1587.18 450.829C1597.68 403.954 1610.13 358.666 1624.54 314.965C1639.18 271.264 1655.42 227.44 1673.24 183.495C1691.31 139.55 1703.15 110.009 1708.76 94.8721C1714.62 79.4912 1717.55 66.6738 1717.55 56.4199C1717.55 53.002 1715.6 48.4854 1711.69 42.8701C1707.79 37.0107 1704.98 32.7383 1703.27 30.0527C1701.81 27.123 1701.07 22.6064 1701.07 16.5029C1701.07 13.8174 1703.52 10.5215 1708.4 6.61523C1713.28 2.70898 1718.41 0.755859 1723.78 0.755859C1732.32 0.755859 1739.04 0.87793 1743.92 1.12207C1749.05 1.12207 1756.25 1.24414 1765.53 1.48828C1775.05 1.73242 1786.52 1.97656 1799.95 2.2207C1813.38 2.46484 1826.68 2.70898 1839.87 2.95312C1848.9 2.95312 1861.23 2.83105 1876.86 2.58691C1892.48 2.09863 1908.23 1.73242 1924.1 1.48828C1939.97 1 1952.42 0.755859 1961.45 0.755859C1969.75 0.755859 1976.22 1.73242 1980.86 3.68555C1985.5 5.39453 1987.82 9.91113 1987.82 17.2354C1987.82 21.1416 1986.47 24.4375 1983.79 27.123C1975 35.9121 1970.61 45.3115 1970.61 55.3213C1970.61 62.1572 1972.56 69.2373 1976.46 76.5615C1985.25 92.6748 1993.31 111.107 2000.63 131.859C2007.96 152.611 2013.94 171.654 2018.58 188.988C2023.22 206.078 2028.71 228.783 2035.06 257.104C2041.65 285.18 2048.12 312.768 2054.47 339.867C2058.86 356.225 2063.5 374.535 2068.38 394.799C2073.51 414.818 2076.07 436.181 2076.07 458.886C2076.07 477.44 2070.58 489.159 2059.59 494.042C2048.61 498.681 2033.11 501 2013.09 501ZM1740.99 150.902L1716.09 210.595C1733.18 190.575 1749.29 175.316 1764.43 164.818C1779.57 154.32 1796.53 149.071 1815.33 149.071C1829 149.071 1845.97 155.907 1866.24 169.579L1839.87 101.098C1836.21 91.332 1831.08 83.5195 1824.49 77.6602C1817.9 71.8008 1811.06 68.8711 1803.98 68.8711C1794.95 68.8711 1784.81 76.1953 1773.58 90.8438C1762.6 105.492 1751.73 125.512 1740.99 150.902ZM2392.85 56.4199V373.559C2392.85 415.062 2402.61 446.068 2422.14 466.576C2427.76 472.68 2430.57 478.661 2430.57 484.521C2430.57 492.333 2427.39 497.094 2421.04 498.803C2414.7 500.268 2401.03 501 2380.03 501C2371.97 501 2355 500.512 2329.13 499.535C2310.33 499.535 2295.43 499.657 2284.45 499.901C2273.71 499.901 2261.62 500.023 2248.19 500.268C2241.85 500.268 2236.72 498.559 2232.81 495.141C2229.15 491.723 2227.32 487.938 2227.32 483.788C2227.32 476.952 2229.27 470.971 2233.18 465.844C2245.87 448.021 2253.32 437.279 2255.52 433.617C2257.96 429.955 2259.67 425.561 2260.64 420.434C2261.87 415.307 2262.48 406.151 2262.48 392.968V375.023V57.1523C2256.37 56.6641 2249.17 56.4199 2240.87 56.4199C2215.97 56.4199 2197.66 61.5469 2185.94 71.8008C2174.46 81.8105 2163.23 95.3604 2152.25 112.45C2141.5 129.54 2131.98 138.085 2123.68 138.085C2118.8 138.085 2114.65 134.789 2111.23 128.197C2108.06 121.361 2106.47 112.084 2106.47 100.365C2106.47 83.7637 2108.54 67.4062 2112.7 51.293C2117.09 35.1797 2122.46 22.1182 2128.81 12.1084C2132.96 6.00488 2137.35 2.09863 2141.99 0.389648C2146.88 -1.31934 2154.81 -2.17383 2165.8 -2.17383C2187.04 -2.17383 2218.9 -1.31934 2261.38 0.389648C2304.1 2.09863 2334.5 2.95312 2352.56 2.95312C2380.64 2.95312 2412.5 1.85449 2448.14 -0.342773C2483.79 -2.54004 2504.42 -3.63867 2510.03 -3.63867C2519.8 -3.63867 2529.2 6.12695 2538.23 25.6582C2547.27 45.1895 2551.78 69.6035 2551.78 98.9004C2551.78 124.047 2546.04 136.62 2534.57 136.62C2527.98 136.62 2522 132.836 2516.63 125.268C2504.91 107.445 2496.61 95.4824 2491.72 89.3789C2487.08 83.0313 2481.23 77.416 2474.15 72.5332C2467.31 67.6504 2457.18 63.7441 2443.75 60.8145C2430.57 57.8848 2413.6 56.4199 2392.85 56.4199ZM2763.45 150.902V333.642C2763.45 363.671 2763.82 386.254 2764.55 401.391C2765.53 416.283 2767.85 429.467 2771.51 440.941C2775.42 452.416 2781.4 461.938 2789.45 469.506C2791.89 471.459 2793.12 475.243 2793.12 480.858C2793.12 489.647 2789.82 495.263 2783.23 497.704C2776.88 499.901 2766.5 501 2752.1 501C2740.87 501 2722.8 500.268 2697.9 498.803C2682.03 498.803 2669.46 498.925 2660.18 499.169C2650.9 499.169 2640.53 499.291 2629.05 499.535C2612.94 499.535 2604.88 493.798 2604.88 482.323C2604.88 477.929 2606.47 472.924 2609.64 467.309C2619.65 451.439 2625.76 439.354 2627.95 431.054C2630.15 422.753 2631.25 405.541 2631.25 379.418V330.712V150.17C2631.25 141.381 2630.76 130.517 2629.79 117.577C2628.81 104.638 2627.22 90.2334 2625.02 74.3643C2623.07 58.4951 2621.97 48.9736 2621.73 45.7998C2620.26 38.9639 2615.99 31.1514 2608.91 22.3623C2605.74 18.9443 2604.15 14.1836 2604.15 8.08008C2604.15 6.12695 2605 4.54004 2606.71 3.31934C2608.42 2.09863 2610.13 1.48828 2611.84 1.48828C2620.87 1.48828 2627.83 1.61035 2632.71 1.85449C2637.84 1.85449 2644.31 1.97656 2652.12 2.2207C2659.94 2.46484 2668.48 2.83105 2677.76 3.31934C2687.28 3.56348 2696.31 3.68555 2704.86 3.68555C2710.23 3.68555 2716.33 3.56348 2723.17 3.31934C2730 2.83105 2736.72 2.46484 2743.31 2.2207C2749.9 1.97656 2755.4 1.85449 2759.79 1.85449C2764.43 1.61035 2771.39 1.48828 2780.66 1.48828C2788.48 1.48828 2792.38 4.54004 2792.38 10.6436C2792.38 16.0146 2791.41 20.165 2789.45 23.0947C2769.92 49.4619 2760.16 78.0264 2760.16 108.788C2760.16 115.136 2760.64 122.704 2761.62 131.493C2762.84 140.282 2763.45 146.752 2763.45 150.902ZM3131.86 56.4199V373.559C3131.86 415.062 3141.63 446.068 3161.16 466.576C3166.77 472.68 3169.58 478.661 3169.58 484.521C3169.58 492.333 3166.41 497.094 3160.06 498.803C3153.71 500.268 3140.04 501 3119.04 501C3110.99 501 3094.02 500.512 3068.14 499.535C3049.34 499.535 3034.45 499.657 3023.46 499.901C3012.72 499.901 3000.63 500.023 2987.21 500.268C2980.86 500.268 2975.73 498.559 2971.83 495.141C2968.16 491.723 2966.33 487.938 2966.33 483.788C2966.33 476.952 2968.29 470.971 2972.19 465.844C2984.89 448.021 2992.33 437.279 2994.53 433.617C2996.97 429.955 2998.68 425.561 2999.66 420.434C3000.88 415.307 3001.49 406.151 3001.49 392.968V375.023V57.1523C2995.39 56.6641 2988.18 56.4199 2979.88 56.4199C2954.98 56.4199 2936.67 61.5469 2924.95 71.8008C2913.48 81.8105 2902.25 95.3604 2891.26 112.45C2880.52 129.54 2871 138.085 2862.7 138.085C2857.81 138.085 2853.66 134.789 2850.24 128.197C2847.07 121.361 2845.48 112.084 2845.48 100.365C2845.48 83.7637 2847.56 67.4062 2851.71 51.293C2856.1 35.1797 2861.47 22.1182 2867.82 12.1084C2871.97 6.00488 2876.37 2.09863 2881.01 0.389648C2885.89 -1.31934 2893.82 -2.17383 2904.81 -2.17383C2926.05 -2.17383 2957.91 -1.31934 3000.39 0.389648C3043.12 2.09863 3073.51 2.95312 3091.58 2.95312C3119.65 2.95312 3151.51 1.85449 3187.16 -0.342773C3222.8 -2.54004 3243.43 -3.63867 3249.05 -3.63867C3258.81 -3.63867 3268.21 6.12695 3277.25 25.6582C3286.28 45.1895 3290.8 69.6035 3290.8 98.9004C3290.8 124.047 3285.06 136.62 3273.58 136.62C3266.99 136.62 3261.01 132.836 3255.64 125.268C3243.92 107.445 3235.62 95.4824 3230.74 89.3789C3226.1 83.0313 3220.24 77.416 3213.16 72.5332C3206.32 67.6504 3196.19 63.7441 3182.76 60.8145C3169.58 57.8848 3152.61 56.4199 3131.86 56.4199ZM3592.19 501C3538.48 501 3492.94 492.089 3455.59 474.267C3418.24 456.2 3390.04 430.565 3371 397.362C3351.95 363.915 3342.43 324.73 3342.43 279.809C3342.43 251.732 3345 226.708 3350.12 204.735C3355.25 182.763 3362.7 154.931 3372.46 121.239C3382.47 87.3037 3387.48 64.1104 3387.48 51.6592C3387.48 44.335 3384.79 38.3535 3379.42 33.7148C3374.78 30.0527 3372.46 24.3154 3372.46 16.5029C3372.46 12.1084 3375.02 8.44629 3380.15 5.5166C3385.52 2.34277 3392.97 0.755859 3402.49 0.755859C3419.82 0.755859 3439.97 1.24414 3462.92 2.2207C3486.11 2.95312 3509.18 3.80762 3532.13 4.78418C3555.08 5.5166 3575.1 5.88281 3592.19 5.88281C3608.3 5.88281 3626.98 5.5166 3648.22 4.78418C3669.46 3.80762 3690.7 2.95312 3711.94 2.2207C3733.18 1.24414 3751.86 0.755859 3767.97 0.755859C3791.41 0.755859 3803.12 8.20215 3803.12 23.0947C3803.12 28.9541 3800.32 33.959 3794.7 38.1094C3792.75 39.8184 3791.41 42.1377 3790.67 45.0674C3789.94 47.9971 3789.58 52.2695 3789.58 57.8848C3789.58 67.4062 3791.77 80.3457 3796.17 96.7031C3800.81 113.061 3806.42 132.226 3813.01 154.198C3819.85 176.171 3825.22 198.754 3829.13 221.947C3833.28 244.896 3835.35 269.433 3835.35 295.556C3835.35 317.772 3831.69 340.233 3824.37 362.938C3817.04 385.399 3807.15 404.687 3794.7 420.8C3773.95 447.899 3746.61 468.041 3712.67 481.225C3678.98 494.408 3638.82 501 3592.19 501ZM3592.19 452.294C3606.1 452.294 3619.9 446.19 3633.57 433.983C3647.24 421.532 3657.01 404.931 3662.87 384.179C3664.82 377.831 3667.02 366.601 3669.46 350.487C3671.9 334.374 3673.85 317.04 3675.32 298.485C3677.03 279.931 3677.88 262.23 3677.88 245.385C3677.88 186.303 3675.07 144.555 3669.46 120.141C3665.06 97.1914 3655.79 78.8809 3641.63 65.209C3627.47 51.293 3610.99 44.335 3592.19 44.335C3568.02 44.335 3548.85 52.2695 3534.69 68.1387C3520.53 83.7637 3510.4 107.079 3504.3 138.085C3498.44 169.091 3495.51 208.52 3495.51 256.371C3495.51 275.658 3497.46 298.607 3501.37 325.219C3505.52 351.586 3509.79 371.972 3514.18 386.376C3521.26 406.884 3531.64 422.997 3545.31 434.716C3558.98 446.435 3574.61 452.294 3592.19 452.294Z" fill="#003250"/>
</svg>
