<svg width="1920" height="590" viewBox="0 0 1920 590" fill="none" xmlns="http://www.w3.org/2000/svg">
<path opacity="0.03" d="M-279.454 448.829C-283.849 438.819 -288.365 431.495 -293.004 426.856C-297.398 421.974 -303.38 419.532 -310.948 419.532C-315.831 419.532 -320.226 421.119 -324.132 424.293C-327.794 427.467 -329.625 430.885 -329.625 434.547C-329.625 447.486 -320.592 453.956 -302.525 453.956C-300.084 453.956 -296.544 453.346 -291.905 452.125C-287.267 450.904 -283.116 449.806 -279.454 448.829ZM-358.922 408.912C-349.889 395.973 -341.71 387.062 -334.386 382.179C-327.062 377.052 -316.197 374.488 -301.793 374.488C-290.807 374.488 -280.553 377.174 -271.031 382.545C-261.51 387.672 -251.744 394.508 -241.734 403.053C-234.898 374.977 -229.894 351.783 -226.72 333.473C-223.302 315.162 -221.593 294.532 -221.593 271.583C-221.593 245.948 -223.424 217.75 -227.086 186.988C-230.504 156.227 -234.044 132.545 -237.706 115.943C-241.124 99.0977 -246.861 84.5713 -254.918 72.3643C-262.975 59.9131 -272.618 50.2695 -283.849 43.4336C-295.079 36.5977 -306.554 33.1797 -318.272 33.1797C-330.235 33.1797 -342.442 37.6963 -354.894 46.7295C-367.101 55.5186 -377.477 67.4814 -386.021 82.6182C-390.904 91.4072 -394.688 101.661 -397.374 113.38C-400.06 125.099 -402.013 138.16 -403.233 152.564C-404.21 166.725 -404.698 183.448 -404.698 202.735C-404.698 235.45 -402.745 263.893 -398.839 288.062C-394.688 311.988 -389.684 332.13 -383.824 348.487C-377.965 364.845 -369.664 384.986 -358.922 408.912ZM-279.454 496.803C-282.872 497.291 -285.924 497.657 -288.609 497.901C-291.295 498.146 -294.591 498.512 -298.497 499C-302.159 499.488 -304.845 499.732 -306.554 499.732C-350.011 499.732 -389.562 492.408 -425.206 477.76C-460.851 463.111 -489.049 443.458 -509.801 418.8C-524.449 400.978 -535.558 379.249 -543.126 353.614C-550.694 327.979 -554.479 298.927 -554.479 266.456C-554.479 243.263 -551.915 220.558 -546.788 198.341C-541.417 175.88 -534.215 149.635 -525.182 119.605C-515.904 89.5762 -511.266 71.2656 -511.266 64.6738C-511.266 57.1055 -511.998 51.3682 -513.463 47.4619C-522.984 32.0811 -527.745 22.8037 -527.745 19.6299C-527.745 5.71387 -517.003 -1.24414 -495.519 -1.24414C-482.335 -1.24414 -468.053 -1 -452.672 -0.511719C-437.291 -0.267578 -422.765 0.220703 -409.093 0.953125C-395.421 1.44141 -378.209 2.05176 -357.457 2.78418C-336.461 3.5166 -319.493 3.88281 -306.554 3.88281C-290.44 3.88281 -271.764 3.5166 -250.523 2.78418C-229.283 1.80762 -208.043 0.953125 -186.803 0.220703C-165.562 -0.755859 -146.886 -1.24414 -130.772 -1.24414C-119.054 -1.24414 -110.631 0.464844 -105.504 3.88281C-100.377 7.05664 -97.8135 13.0381 -97.8135 21.8271C-97.8135 29.8838 -99.8887 38.7949 -104.039 48.5605C-107.945 58.3262 -109.898 65.7725 -109.898 70.8994C-109.898 78.4678 -105.504 93.9707 -96.7148 117.408C-87.6816 140.602 -80.2354 164.161 -74.376 188.087C-68.5166 212.013 -65.5869 240.943 -65.5869 274.879C-65.5869 307.35 -68.6387 334.693 -74.7422 356.91C-80.8457 378.883 -89.3906 396.949 -100.377 411.109C-111.119 425.025 -123.326 436.5 -136.998 445.533C-150.426 454.566 -168.614 464.942 -191.563 476.661C-186.437 485.938 -182.042 492.53 -178.38 496.437C-174.474 500.099 -169.103 501.93 -162.267 501.93C-149.815 501.93 -142.003 499.732 -138.829 495.338C-135.655 490.699 -132.359 483.497 -128.941 473.731C-125.523 463.966 -120.885 459.083 -115.025 459.083C-111.852 459.083 -108.434 461.036 -104.771 464.942C-101.109 468.849 -98.0576 473.854 -95.6162 479.957C-93.1748 486.061 -91.9541 492.896 -91.9541 500.465C-91.9541 515.846 -95.3721 530.372 -102.208 544.044C-109.044 557.716 -118.81 568.58 -131.505 576.637C-144.2 584.938 -159.215 589.088 -176.549 589.088C-196.08 589.088 -212.315 585.792 -225.255 579.2C-238.194 572.608 -248.937 562.477 -257.481 548.805C-266.026 535.133 -273.351 517.799 -279.454 496.803ZM433.559 200.538V249.977C433.559 290.016 433.437 321.998 433.192 345.924C433.192 369.85 433.07 396.095 432.826 424.659C432.826 440.284 438.563 453.59 450.038 464.576C456.142 470.436 459.193 476.905 459.193 483.985C459.193 490.577 456.874 494.728 452.235 496.437C447.841 498.146 434.413 499 411.952 499C403.651 498.756 394.74 498.512 385.219 498.268C375.941 498.023 367.396 497.779 359.584 497.535C352.016 497.291 345.668 497.169 340.541 497.169C335.414 496.925 327.968 496.803 318.202 496.803C308.192 496.803 300.502 496.925 295.131 497.169C290.004 497.169 283.046 497.291 274.257 497.535C265.712 497.779 255.946 498.023 244.96 498.268C233.974 498.512 223.354 498.756 213.1 499C193.568 499 177.455 498.756 164.76 498.268C152.309 497.535 139.125 495.704 125.209 492.774C111.293 489.845 97.1328 484.962 82.7285 478.126C51.2344 462.501 26.8203 439.186 9.48633 408.18C-7.60352 376.93 -16.1484 340.675 -16.1484 299.415C-16.1484 272.804 -13.9512 247.657 -9.55664 223.976C-4.91797 200.294 0.941406 177.345 8.02148 155.128C15.3457 132.667 21.6934 112.892 27.0645 95.8018C32.6797 78.4678 35.4873 65.6504 35.4873 57.3496C35.4873 48.0723 30.7266 39.5273 21.2051 31.7148C17.2988 28.2969 15.3457 21.583 15.3457 11.5732C15.3457 7.91113 16.6885 4.85938 19.374 2.41797C22.0596 -0.0234375 25.4775 -1.24414 29.6279 -1.24414C39.3936 -1.24414 46.3516 -1.12207 50.502 -0.87793C54.8965 -0.87793 59.9014 -0.755859 65.5166 -0.511719C71.376 -0.267578 78.0898 -0.0234375 85.6582 0.220703C93.2266 0.464844 100.795 0.708984 108.363 0.953125C113.734 0.953125 120.082 0.831055 127.406 0.586914C134.73 0.0986328 141.933 -0.267578 149.013 -0.511719C156.337 -1 162.685 -1.24414 168.056 -1.24414C172.694 -1.24414 176.723 0.586914 180.141 4.24902C183.559 7.91113 185.268 12.0615 185.268 16.7002C185.268 24.0244 183.07 34.5225 178.676 48.1943C174.281 61.8662 168.178 81.0313 160.365 105.689C152.797 130.348 146.693 156.593 142.055 184.425C137.416 212.013 135.097 240.333 135.097 269.386C135.097 300.147 136.684 325.538 139.857 345.558C143.031 365.577 149.745 383.766 159.999 400.123C171.474 418.189 185.634 432.472 202.479 442.97C219.569 453.224 236.903 458.351 254.481 458.351C267.421 458.351 276.698 455.787 282.313 450.66C287.929 445.533 291.103 437.11 291.835 425.392C294.032 385.841 296.229 342.14 298.427 294.288C300.624 246.437 301.723 210.67 301.723 186.988V156.227C301.723 120.338 300.136 93.7266 296.962 76.3926C293.788 59.0586 286.586 46.7295 275.355 39.4053C266.322 33.0576 261.806 25.001 261.806 15.2354C261.806 10.1084 263.881 5.95801 268.031 2.78418C272.182 -0.389648 277.187 -1.97656 283.046 -1.97656C295.985 -1.97656 310.756 -1.36621 327.357 -0.145508C343.959 1.0752 355.189 1.68555 361.049 1.68555C364.955 1.68555 369.472 1.56348 374.599 1.31934C379.726 0.831055 384.853 0.464844 389.979 0.220703C395.106 -0.267578 399.623 -0.511719 403.529 -0.511719C417.934 -0.511719 427.089 2.90625 430.995 9.74219C434.901 16.5781 436.854 27.6865 436.854 43.0674V61.7441C437.343 71.7539 437.587 85.792 437.587 103.858C437.587 123.39 437.221 139.137 436.488 151.1C436 163.062 435.39 173.805 434.657 183.326C433.925 192.848 433.559 198.585 433.559 200.538ZM939.662 499H845.18C841.273 499 837.245 497.291 833.095 493.873C829.188 490.211 827.235 486.427 827.235 482.521C827.235 476.417 827.724 472.389 828.7 470.436C840.175 460.182 847.987 452.003 852.138 445.899C856.532 439.796 858.729 429.786 858.729 415.87C858.729 403.907 855.189 383.033 848.109 353.248C841.273 323.463 831.142 286.354 817.714 241.92C810.878 266.09 800.502 283.668 786.586 294.654C772.67 305.396 759.486 310.768 747.035 310.768C743.373 310.768 739.589 309.913 735.683 308.204C731.776 306.495 729.823 304.298 729.823 301.612C729.823 300.88 730.678 297.828 732.387 292.457C734.096 286.842 734.95 283.18 734.95 281.471C734.95 275.855 732.997 270.362 729.091 264.991C725.429 259.62 720.424 255.348 714.076 252.174C707.973 248.756 700.771 247.047 692.47 247.047C676.845 247.047 661.708 252.54 647.06 263.526C632.655 274.269 620.937 289.039 611.903 307.838C604.335 324.684 597.865 345.191 592.494 369.361C587.123 393.287 584.438 415.016 584.438 434.547C584.438 438.941 585.17 442.97 586.635 446.632C588.1 450.05 590.053 453.468 592.494 456.886C595.18 460.06 600.185 465.797 607.509 474.098C608.485 476.539 608.974 477.882 608.974 478.126C608.974 484.962 605.067 490.211 597.255 493.873C589.687 497.291 579.311 499 566.127 499H551.479C540.492 499 531.093 495.582 523.28 488.746C515.468 481.666 511.562 473.854 511.562 465.309C511.562 460.914 512.294 455.421 513.759 448.829C524.257 401.954 536.708 356.666 551.112 312.965C565.761 269.264 581.996 225.44 599.818 181.495C617.885 137.55 629.726 108.009 635.341 92.8721C641.2 77.4912 644.13 64.6738 644.13 54.4199C644.13 51.002 642.177 46.4854 638.271 40.8701C634.364 35.0107 631.557 30.7383 629.848 28.0527C628.383 25.123 627.65 20.6064 627.65 14.5029C627.65 11.8174 630.092 8.52148 634.975 4.61523C639.857 0.708984 644.984 -1.24414 650.355 -1.24414C658.9 -1.24414 665.614 -1.12207 670.497 -0.87793C675.624 -0.87793 682.826 -0.755859 692.104 -0.511719C701.625 -0.267578 713.1 -0.0234375 726.527 0.220703C739.955 0.464844 753.261 0.708984 766.444 0.953125C775.478 0.953125 787.807 0.831055 803.432 0.586914C819.057 0.0986328 834.804 -0.267578 850.673 -0.511719C866.542 -1 878.993 -1.24414 888.026 -1.24414C896.327 -1.24414 902.797 -0.267578 907.436 1.68555C912.074 3.39453 914.394 7.91113 914.394 15.2354C914.394 19.1416 913.051 22.4375 910.365 25.123C901.576 33.9121 897.182 43.3115 897.182 53.3213C897.182 60.1572 899.135 67.2373 903.041 74.5615C911.83 90.6748 919.887 109.107 927.211 129.859C934.535 150.611 940.517 169.654 945.155 186.988C949.794 204.078 955.287 226.783 961.635 255.104C968.227 283.18 974.696 310.768 981.044 337.867C985.438 354.225 990.077 372.535 994.96 392.799C1000.09 412.818 1002.65 434.181 1002.65 456.886C1002.65 475.44 997.157 487.159 986.171 492.042C975.185 496.681 959.682 499 939.662 499ZM667.567 148.902L642.665 208.595C659.755 188.575 675.868 173.316 691.005 162.818C706.142 152.32 723.109 147.071 741.908 147.071C755.58 147.071 772.548 153.907 792.812 167.579L766.444 99.0977C762.782 89.332 757.655 81.5195 751.063 75.6602C744.472 69.8008 737.636 66.8711 730.556 66.8711C721.522 66.8711 711.391 74.1953 700.16 88.8438C689.174 103.492 678.31 123.512 667.567 148.902ZM1168.18 282.936L1196.38 256.568L1163.42 219.215C1124.35 173.805 1094.57 134.62 1074.06 101.661C1053.8 68.7021 1043.67 44.4102 1043.67 28.7852C1043.67 9.25391 1054.65 -0.511719 1076.62 -0.511719H1204.07C1210.17 -0.511719 1215.17 1.19727 1219.08 4.61523C1222.99 8.0332 1224.94 12.3057 1224.94 17.4326C1224.94 19.874 1223.11 25.2451 1219.45 33.5459C1215.79 41.8467 1213.95 48.1943 1213.95 52.5889C1213.95 61.6221 1218.84 74.1953 1228.6 90.3086C1238.61 106.422 1251.92 123.146 1268.52 140.479L1288.66 161.354L1309.17 144.142C1333.83 122.657 1352.38 103.37 1364.83 86.2803C1377.53 68.9463 1383.88 56.251 1383.88 48.1943C1383.88 43.7998 1381.8 38.6729 1377.65 32.8135C1373.5 26.71 1371.42 21.583 1371.42 17.4326C1371.42 12.0615 1373.26 7.66699 1376.92 4.24902C1380.82 0.586914 1385.46 -1.24414 1390.83 -1.24414C1401.33 -1.48828 1410.61 -1.61035 1418.67 -1.61035C1426.97 -1.85449 1436.12 -1.97656 1446.13 -1.97656C1458.58 -1.97656 1467.86 -1.48828 1473.96 -0.511719C1480.07 0.464844 1484.34 2.66211 1486.78 6.08008C1489.22 9.25391 1490.44 14.2588 1490.44 21.0947C1490.44 26.4658 1489.34 31.959 1487.15 37.5742C1485.19 42.9453 1482.26 46.9736 1478.36 49.6592C1429.53 93.3604 1384.61 134.864 1343.59 174.171L1318.69 197.608L1341.4 225.074C1379.97 272.438 1407.19 306.007 1423.06 325.782C1438.93 345.313 1453.09 363.868 1465.54 381.446C1478.24 398.78 1488.12 414.894 1495.2 429.786C1502.53 444.679 1506.19 457.984 1506.19 469.703C1506.19 478.736 1503.5 485.938 1498.13 491.31C1492.76 496.437 1485.19 499 1475.43 499H1339.93C1333.34 499 1327.97 497.047 1323.82 493.141C1319.91 489.234 1317.96 484.229 1317.96 478.126C1317.96 474.22 1318.93 470.924 1320.89 468.238C1324.79 464.088 1328.33 459.693 1331.51 455.055C1334.93 450.172 1336.63 445.777 1336.63 441.871C1336.63 439.43 1332.61 431.495 1324.55 418.067C1316.49 404.64 1305.26 388.282 1290.86 368.995C1276.7 349.464 1259.97 328.59 1240.69 306.373L1225.67 289.161L1208.46 305.641C1195.77 317.359 1185.02 327.735 1176.23 336.769C1167.69 345.558 1159.75 355.079 1152.43 365.333C1145.11 375.587 1139.74 385.353 1136.32 394.63C1132.9 403.907 1131.19 414.161 1131.19 425.392C1131.19 442.237 1137.66 455.543 1150.6 465.309C1153.77 467.018 1155.36 470.558 1155.36 475.929C1155.36 482.032 1153.16 487.403 1148.77 492.042C1144.37 496.681 1140.59 499 1137.42 499H1063.81C1046.72 499 1038.17 489.234 1038.17 469.703C1038.17 457.984 1051.36 431.983 1077.72 391.7C1104.09 351.173 1134.24 314.918 1168.18 282.936ZM1727.38 148.17V322.853C1727.38 354.347 1729.46 380.104 1733.61 400.123C1737.76 420.143 1744.59 434.913 1754.12 444.435C1763.88 453.712 1777.19 458.351 1794.03 458.351C1804.04 458.351 1813.81 453.956 1823.33 445.167C1832.85 436.134 1837.61 425.88 1837.61 414.405C1837.61 402.931 1835.29 393.287 1830.65 385.475C1826.26 377.418 1820.28 370.582 1812.71 364.967C1805.14 359.352 1799.28 354.957 1795.13 351.783C1790.98 348.609 1788.91 345.68 1788.91 342.994C1788.91 338.355 1791.96 333.473 1798.06 328.346C1804.41 322.975 1812.59 318.458 1822.6 314.796C1832.85 311.134 1843.59 309.303 1854.82 309.303C1876.31 309.303 1895.59 314.796 1912.68 325.782C1929.77 336.769 1943.08 351.173 1952.6 368.995C1962.37 386.573 1967.25 404.64 1967.25 423.194C1967.25 472.755 1943.32 497.535 1895.47 497.535C1890.59 497.535 1880.82 496.925 1866.18 495.704C1851.53 494.483 1838.71 493.873 1827.72 493.873C1817.23 493.873 1794.28 494.972 1758.88 497.169C1723.48 499.366 1693.93 500.465 1670.25 500.465C1640.71 500.465 1619.72 500.221 1607.26 499.732C1594.81 499.244 1585.41 497.779 1579.07 495.338C1572.96 492.652 1569.91 488.38 1569.91 482.521C1569.91 477.882 1571.62 473.121 1575.04 468.238C1582.85 457.252 1588.22 449.073 1591.15 443.702C1594.08 438.331 1595.55 431.739 1595.55 423.927V327.979V148.17C1595.55 87.1348 1586.51 49.0488 1568.45 33.9121C1564.3 30.4941 1562.22 24.7568 1562.22 16.7002C1562.22 5.71387 1572.72 0.220703 1593.71 0.220703C1599.09 0.220703 1605.92 0.708984 1614.22 1.68555C1622.52 2.66211 1629.24 3.15039 1634.36 3.15039C1637.54 3.15039 1647.55 2.2959 1664.39 0.586914C1681.24 -1.12207 1695.52 -1.97656 1707.24 -1.97656C1726.77 -1.97656 1739.83 -1 1746.42 0.953125C1753.26 2.90625 1756.68 7.42285 1756.68 14.5029C1756.68 21.583 1754.6 27.3203 1750.45 31.7148C1739.96 45.6309 1733.49 57.2275 1731.04 66.5049C1728.6 75.5381 1727.38 92.75 1727.38 118.141V148.17ZM2198.7 98.3652L2260.95 251.441L2326.14 97.6328C2333.71 77.6133 2337.49 64.918 2337.49 59.5469C2337.49 54.4199 2334.32 47.2178 2327.97 37.9404C2321.86 28.6631 2318.81 21.583 2318.81 16.7002C2318.81 12.0615 2320.4 8.0332 2323.57 4.61523C2326.75 1.19727 2330.65 -0.511719 2335.29 -0.511719H2377.77C2384.36 -0.755859 2390.22 -0.87793 2395.35 -0.87793C2400.72 -1.12207 2407.92 -1.24414 2416.96 -1.24414C2421.35 -1.24414 2425.75 0.953125 2430.14 5.34766C2434.78 9.49805 2437.1 14.0146 2437.1 18.8975C2437.1 22.3154 2430.75 33.9121 2418.06 53.6875C2405.36 73.2187 2396.45 87.3789 2391.32 96.168L2333.83 197.608C2322.84 216.163 2312.95 237.037 2304.16 260.23C2295.38 283.424 2288.91 305.274 2284.75 325.782C2280.85 346.046 2278.9 365.577 2278.9 384.376C2278.9 406.349 2281.09 422.95 2285.49 434.181C2290.13 445.411 2295.62 455.055 2301.97 463.111C2308.56 470.924 2311.85 477.149 2311.85 481.788C2311.85 492.774 2300.38 498.268 2277.43 498.268C2273.04 498.268 2264.25 497.657 2251.06 496.437C2238.12 495.216 2226.65 494.605 2216.64 494.605C2210.05 494.605 2202.11 494.85 2192.84 495.338C2183.8 495.582 2174.65 495.948 2165.37 496.437C2156.09 496.681 2148.16 496.803 2141.57 496.803C2131.8 496.803 2124.84 495.826 2120.69 493.873C2116.79 491.92 2114.83 487.159 2114.83 479.591C2114.83 473.976 2116.54 469.459 2119.96 466.041C2129.97 456.031 2136.68 444.557 2140.1 431.617C2143.76 418.678 2145.59 401.588 2145.59 380.348C2145.59 342.75 2138.88 305.763 2125.45 269.386C2112.03 232.765 2092.13 192.848 2065.76 149.635L2036.1 99.0977C2026.33 83.2285 2018.52 70.5332 2012.66 61.0117C2006.8 51.4902 2002.16 43.5557 1998.74 37.208C1995.57 30.6162 1993.98 25.4893 1993.98 21.8271C1993.98 15.9678 1995.45 11.5732 1998.38 8.64355C2001.55 5.46973 2005.95 3.39453 2011.56 2.41797C2017.18 1.44141 2025.6 0.708984 2036.83 0.220703H2066.86C2075.65 -0.0234375 2084.8 -0.267578 2094.33 -0.511719C2104.09 -0.755859 2112.39 -1 2119.23 -1.24414C2126.31 -1.48828 2131.92 -1.61035 2136.07 -1.61035C2140.22 -1.85449 2146.08 -1.97656 2153.65 -1.97656C2178.8 -1.97656 2194.67 -1 2201.26 0.953125C2208.09 2.66211 2211.51 6.69043 2211.51 13.0381C2211.51 18.4092 2210.54 22.6816 2208.58 25.8555C2205.9 29.7617 2202.85 34.0342 2199.43 38.6729C2196.01 43.3115 2193.45 47.4619 2191.74 51.124C2190.27 54.7861 2189.54 58.3262 2189.54 61.7441C2189.54 70.7773 2192.59 82.9844 2198.7 98.3652Z" fill="#003250"/>
</svg>
