<svg width="1920" height="502" viewBox="0 0 1920 502" fill="none" xmlns="http://www.w3.org/2000/svg">
<path opacity="0.03" d="M-568.261 44.335C-582.421 44.335 -593.773 46.166 -602.318 49.8281C-610.619 53.2461 -618.31 59.8379 -625.39 69.6035C-639.306 88.8906 -646.264 114.159 -646.264 145.409C-646.264 152.733 -644.799 170.067 -641.869 197.411C-616.479 139.306 -584.74 110.253 -546.654 110.253C-519.799 110.253 -499.047 118.065 -484.398 133.69C-469.75 149.315 -462.426 170.312 -462.426 196.679C-462.426 208.886 -465.6 221.093 -471.947 233.3C-478.295 245.507 -486.84 255.639 -497.582 263.695C-508.08 271.508 -519.188 275.414 -530.907 275.414C-537.987 275.414 -543.114 274.438 -546.288 272.484C-549.462 270.287 -551.049 266.259 -551.049 260.399C-551.049 260.399 -549.706 257.714 -547.021 252.343C-544.091 246.972 -542.626 242.333 -542.626 238.427C-542.626 230.126 -545.678 222.68 -551.781 216.088C-557.641 209.496 -565.331 206.2 -574.853 206.2C-586.327 206.2 -597.313 209.618 -607.812 216.454C-618.31 223.29 -626.854 233.788 -633.446 247.948C-640.038 262.108 -643.334 278.954 -643.334 298.485C-643.334 306.542 -642.968 315.331 -642.235 324.853C-641.503 334.374 -640.771 345.482 -640.038 358.178C-639.306 370.873 -638.939 383.935 -638.939 397.362C-638.939 412.011 -636.62 425.316 -631.981 437.279C-627.099 448.998 -620.141 459.008 -611.107 467.309C-606.957 471.215 -604.882 476.952 -604.882 484.521C-604.882 490.136 -607.445 493.92 -612.572 495.873C-617.699 497.826 -625.39 498.803 -635.644 498.803H-654.687C-660.546 498.559 -665.917 498.437 -670.8 498.437C-675.683 498.192 -682.274 498.07 -690.575 498.07C-694.237 498.07 -704.125 498.559 -720.238 499.535C-736.352 500.512 -750.146 501 -761.62 501C-777.733 501 -789.208 500.268 -796.044 498.803C-802.636 497.094 -805.932 493.065 -805.932 486.718C-805.932 479.394 -804.223 473.412 -800.805 468.773C-791.527 457.055 -785.424 448.998 -782.494 444.604C-779.32 439.965 -777.245 434.838 -776.269 429.223C-775.048 423.363 -774.438 414.818 -774.438 403.588V362.938L-776.635 150.902C-776.635 139.184 -777.245 128.075 -778.466 117.577C-779.442 106.835 -780.663 98.0459 -782.128 91.21C-783.593 84.374 -785.302 77.6602 -787.255 71.0684C-789.208 64.4766 -790.917 58.9834 -792.382 54.5889C-793.847 49.7061 -797.509 44.5791 -803.368 39.208C-809.228 33.8369 -812.157 27.001 -812.157 18.7002C-812.157 10.6436 -809.228 5.63867 -803.368 3.68555C-797.265 1.73242 -784.691 0.755859 -765.648 0.755859H-737.816C-712.914 0.755859 -683.373 1.24414 -649.193 2.2207C-615.014 3.19727 -593.285 3.68555 -584.008 3.68555C-562.035 3.68555 -536.4 2.09863 -507.104 -1.0752C-477.562 -4.24902 -458.397 -5.83594 -449.608 -5.83594C-443.261 -5.83594 -437.157 2.09863 -431.298 17.9678C-425.194 33.5928 -422.143 54.5889 -422.143 80.9561C-422.143 88.0361 -423.852 94.0176 -427.27 98.9004C-430.443 103.539 -433.983 105.858 -437.89 105.858C-442.284 105.858 -445.458 105.126 -447.411 103.661C-464.013 87.0596 -476.342 75.4629 -484.398 68.8711C-492.211 62.2793 -502.953 56.542 -516.625 51.6592C-530.297 46.7764 -547.509 44.335 -568.261 44.335ZM66.749 202.538V251.977C66.749 292.016 66.627 323.998 66.3828 347.924C66.3828 371.85 66.2607 398.095 66.0166 426.659C66.0166 442.284 71.7539 455.59 83.2285 466.576C89.332 472.436 92.3838 478.905 92.3838 485.985C92.3838 492.577 90.0645 496.728 85.4258 498.437C81.0312 500.146 67.6035 501 45.1426 501C36.8418 500.756 27.9307 500.512 18.4092 500.268C9.13184 500.023 0.586914 499.779 -7.22559 499.535C-14.7939 499.291 -21.1416 499.169 -26.2686 499.169C-31.3955 498.925 -38.8418 498.803 -48.6074 498.803C-58.6172 498.803 -66.3076 498.925 -71.6787 499.169C-76.8057 499.169 -83.7637 499.291 -92.5527 499.535C-101.098 499.779 -110.863 500.023 -121.85 500.268C-132.836 500.512 -143.456 500.756 -153.71 501C-173.241 501 -189.354 500.756 -202.05 500.268C-214.501 499.535 -227.685 497.704 -241.601 494.774C-255.517 491.845 -269.677 486.962 -284.081 480.126C-315.575 464.501 -339.989 441.186 -357.323 410.18C-374.413 378.93 -382.958 342.675 -382.958 301.415C-382.958 274.804 -380.761 249.657 -376.366 225.976C-371.728 202.294 -365.868 179.345 -358.788 157.128C-351.464 134.667 -345.116 114.892 -339.745 97.8018C-334.13 80.4678 -331.322 67.6504 -331.322 59.3496C-331.322 50.0723 -336.083 41.5273 -345.604 33.7148C-349.511 30.2969 -351.464 23.583 -351.464 13.5732C-351.464 9.91113 -350.121 6.85938 -347.436 4.41797C-344.75 1.97656 -341.332 0.755859 -337.182 0.755859C-327.416 0.755859 -320.458 0.87793 -316.308 1.12207C-311.913 1.12207 -306.908 1.24414 -301.293 1.48828C-295.434 1.73242 -288.72 1.97656 -281.151 2.2207C-273.583 2.46484 -266.015 2.70898 -258.446 2.95312C-253.075 2.95312 -246.728 2.83105 -239.403 2.58691C-232.079 2.09863 -224.877 1.73242 -217.797 1.48828C-210.473 1 -204.125 0.755859 -198.754 0.755859C-194.115 0.755859 -190.087 2.58691 -186.669 6.24902C-183.251 9.91113 -181.542 14.0615 -181.542 18.7002C-181.542 26.0244 -183.739 36.5225 -188.134 50.1943C-192.528 63.8662 -198.632 83.0313 -206.444 107.689C-214.013 132.348 -220.116 158.593 -224.755 186.425C-229.394 214.013 -231.713 242.333 -231.713 271.386C-231.713 302.147 -230.126 327.538 -226.952 347.558C-223.778 367.577 -217.064 385.766 -206.811 402.123C-195.336 420.189 -181.176 434.472 -164.33 444.97C-147.24 455.224 -129.906 460.351 -112.328 460.351C-99.3887 460.351 -90.1113 457.787 -84.4961 452.66C-78.8809 447.533 -75.707 439.11 -74.9746 427.392C-72.7773 387.841 -70.5801 344.14 -68.3828 296.288C-66.1855 248.437 -65.0869 212.67 -65.0869 188.988V158.227C-65.0869 122.338 -66.6738 95.7266 -69.8477 78.3926C-73.0215 61.0586 -80.2236 48.7295 -91.4541 41.4053C-100.487 35.0576 -105.004 27.001 -105.004 17.2354C-105.004 12.1084 -102.929 7.95801 -98.7783 4.78418C-94.6279 1.61035 -89.623 0.0234375 -83.7637 0.0234375C-70.8242 0.0234375 -56.0537 0.633789 -39.4521 1.85449C-22.8506 3.0752 -11.6201 3.68555 -5.76074 3.68555C-1.85449 3.68555 2.66211 3.56348 7.78906 3.31934C12.916 2.83105 18.043 2.46484 23.1699 2.2207C28.2969 1.73242 32.8135 1.48828 36.7197 1.48828C51.124 1.48828 60.2793 4.90625 64.1855 11.7422C68.0918 18.5781 70.0449 29.6865 70.0449 45.0674V63.7441C70.5332 73.7539 70.7773 87.792 70.7773 105.858C70.7773 125.39 70.4111 141.137 69.6787 153.1C69.1904 165.062 68.5801 175.805 67.8477 185.326C67.1152 194.848 66.749 200.585 66.749 202.538ZM203.346 332.177V150.902C203.346 126.977 201.148 105.736 196.754 87.1816C192.359 68.3828 186.988 54.833 180.641 46.5322C177.711 42.8701 175.147 39.6963 172.95 37.0107C170.997 34.3252 169.532 31.6396 168.556 28.9541C167.579 26.2686 167.091 22.8506 167.091 18.7002C167.091 14.5498 167.945 10.8877 169.654 7.71387C171.363 4.54004 173.805 2.95312 176.979 2.95312C188.453 2.95312 197.364 3.0752 203.712 3.31934C210.304 3.31934 219.093 3.44141 230.079 3.68555C241.31 3.92969 254.493 4.17383 269.63 4.41797C285.011 4.66211 299.903 4.90625 314.308 5.15039C370.704 5.15039 427.711 3.68555 485.328 0.755859C489.723 0.511719 494.972 -0.220703 501.075 -1.44141C507.423 -2.90625 513.404 -3.63867 519.02 -3.63867C529.762 -3.63867 536.964 -3.15039 540.626 -2.17383C544.288 -1.19727 546.852 1.48828 548.316 5.88281C556.373 33.959 560.401 58.9834 560.401 80.9561C560.401 96.0928 554.298 103.661 542.091 103.661C537.208 103.661 534.034 102.807 532.569 101.098C520.606 87.1816 509.376 76.1953 498.878 68.1387C488.624 59.8379 476.295 53.4902 461.891 49.0957C447.486 44.457 430.763 42.1377 411.72 42.1377C385.108 42.1377 364.967 51.293 351.295 69.6035C337.623 87.6699 330.787 112.45 330.787 143.944C330.787 152.001 332.252 168.969 335.182 194.848C366.188 138.451 398.658 110.253 432.594 110.253C459.205 110.253 479.713 118.065 494.117 133.69C508.766 149.071 516.09 170.067 516.09 196.679C516.09 213.036 508.888 230.248 494.483 248.314C480.079 266.381 463.966 275.414 446.144 275.414C440.04 275.414 435.646 274.438 432.96 272.484C430.274 270.287 428.932 266.503 428.932 261.132C428.932 261.62 430.03 259.057 432.228 253.441C434.669 247.582 435.89 243.065 435.89 239.892C435.89 231.103 432.716 223.534 426.368 217.187C420.021 210.839 411.842 207.665 401.832 207.665C392.799 207.665 384.376 209.252 376.563 212.426C368.995 215.355 364.479 219.262 363.014 224.145C353.736 257.836 347.267 281.396 343.604 294.823C340.187 308.007 337.013 321.679 334.083 335.839C331.397 349.999 330.055 362.328 330.055 372.826C330.055 395.531 336.036 413.598 347.999 427.025C359.962 440.453 374.732 447.167 392.311 447.167C407.203 447.167 418.556 446.557 426.368 445.336C434.425 444.115 443.58 440.697 453.834 435.082C491.92 411.889 522.438 382.348 545.387 346.459C546.363 344.994 551.368 344.262 560.401 344.262C565.772 344.262 570.167 347.069 573.585 352.685C577.247 358.3 579.078 365.746 579.078 375.023C579.078 384.057 576.759 394.921 572.12 407.616C567.481 420.067 560.768 436.181 551.979 455.956C549.537 462.304 546.974 468.896 544.288 475.731C541.603 482.567 538.551 487.816 535.133 491.479C531.959 494.896 527.442 497.46 521.583 499.169C515.968 500.878 507.545 501.732 496.314 501.732C492.896 501.732 475.196 500.756 443.214 498.803C411.231 496.85 381.202 495.873 353.126 495.873C337.501 495.873 310.035 496.361 270.729 497.338C231.422 498.314 200.172 498.803 176.979 498.803C170.387 498.803 167.091 495.019 167.091 487.45C167.091 478.905 168.678 472.68 171.852 468.773C176.734 462.914 181.617 456.688 186.5 450.097C191.627 443.505 195.167 436.669 197.12 429.589C199.073 422.509 200.538 411.645 201.515 396.996C202.735 382.104 203.346 360.497 203.346 332.177ZM965.431 -0.708984C984.474 -0.708984 1000.83 2.09863 1014.5 7.71387C1028.17 13.085 1038.31 20.8975 1044.9 31.1514C1051.49 41.4053 1054.79 53.7344 1054.79 68.1387C1054.79 84.4961 1048.32 101.342 1035.38 118.676C1022.44 136.01 1005.59 150.17 984.84 161.156C964.088 172.143 942.604 177.636 920.387 177.636C903.541 177.636 890.113 174.95 880.104 169.579C870.338 163.964 865.455 156.396 865.455 146.874C865.455 144.188 871.314 140.038 883.033 134.423C896.217 127.099 906.227 119.774 913.062 112.45C919.898 104.882 923.316 95.1162 923.316 83.1533C923.316 71.1904 917.579 60.9365 906.104 52.3916C894.63 43.8467 879.615 39.5742 861.061 39.5742C848.365 39.5742 836.158 44.2129 824.439 53.4902C812.965 62.5234 803.077 75.3408 794.776 91.9424C786.476 108.544 780.86 128.686 777.931 152.367C774.513 179.223 772.804 211.938 772.804 250.512C772.804 292.748 779.762 329.369 793.678 360.375C807.838 391.381 827.369 415.062 852.271 431.42C877.418 447.777 905.86 455.956 937.599 455.956C957.13 455.956 979.591 451.928 1004.98 443.871C1030.62 435.57 1046.61 431.42 1052.96 431.42C1056.37 431.42 1059.3 432.396 1061.74 434.35C1064.43 436.303 1065.77 438.988 1065.77 442.406C1065.77 447.289 1055.03 454.735 1033.55 464.745C1012.06 474.511 985.572 483.178 954.078 490.746C922.828 498.07 892.799 501.732 863.99 501.732C840.064 501.732 817.115 499.901 795.143 496.239C773.17 492.333 754.371 486.962 738.746 480.126C720.191 471.825 703.59 461.205 688.941 448.266C674.293 435.326 661.476 420.067 650.489 402.489C639.747 384.667 631.568 365.99 625.953 346.459C620.338 326.928 617.53 306.42 617.53 284.936C617.53 261.742 619.483 239.892 623.39 219.384C627.296 198.876 633.277 175.927 641.334 150.536C649.391 124.901 654.762 107.445 657.447 98.168C660.133 88.6465 661.476 76.9277 661.476 63.0117C661.476 54.9551 658.302 48.2412 651.954 42.8701C645.851 36.7666 642.799 28.9541 642.799 19.4326C642.799 16.5029 644.508 13.5732 647.926 10.6436C651.588 7.71387 655.616 5.39453 660.011 3.68555C666.603 2.2207 675.392 1.48828 686.378 1.48828C690.528 1.48828 698.829 1.85449 711.28 2.58691C723.731 3.31934 731.666 3.68555 735.084 3.68555C790.748 3.68555 844.337 2.95312 895.851 1.48828C947.364 0.0234375 970.558 -0.708984 965.431 -0.708984ZM1377.05 501C1323.34 501 1277.81 492.089 1240.46 474.267C1203.1 456.2 1174.9 430.565 1155.86 397.362C1136.82 363.915 1127.3 324.73 1127.3 279.809C1127.3 251.732 1129.86 226.708 1134.99 204.735C1140.11 182.763 1147.56 154.931 1157.33 121.239C1167.33 87.3037 1172.34 64.1104 1172.34 51.6592C1172.34 44.335 1169.65 38.3535 1164.28 33.7148C1159.64 30.0527 1157.33 24.3154 1157.33 16.5029C1157.33 12.1084 1159.89 8.44629 1165.02 5.5166C1170.39 2.34277 1177.83 0.755859 1187.35 0.755859C1204.69 0.755859 1224.83 1.24414 1247.78 2.2207C1270.97 2.95312 1294.04 3.80762 1316.99 4.78418C1339.94 5.5166 1359.96 5.88281 1377.05 5.88281C1393.17 5.88281 1411.84 5.5166 1433.08 4.78418C1454.32 3.80762 1475.56 2.95312 1496.8 2.2207C1518.04 1.24414 1536.72 0.755859 1552.83 0.755859C1576.27 0.755859 1587.99 8.20215 1587.99 23.0947C1587.99 28.9541 1585.18 33.959 1579.57 38.1094C1577.61 39.8184 1576.27 42.1377 1575.54 45.0674C1574.81 47.9971 1574.44 52.2695 1574.44 57.8848C1574.44 67.4062 1576.64 80.3457 1581.03 96.7031C1585.67 113.061 1591.29 132.226 1597.88 154.198C1604.71 176.171 1610.08 198.754 1613.99 221.947C1618.14 244.896 1620.22 269.433 1620.22 295.556C1620.22 317.772 1616.55 340.233 1609.23 362.938C1601.91 385.399 1592.02 404.687 1579.57 420.8C1558.81 447.899 1531.47 468.041 1497.54 481.225C1463.84 494.408 1423.68 501 1377.05 501ZM1377.05 452.294C1390.97 452.294 1404.76 446.19 1418.43 433.983C1432.11 421.532 1441.87 404.931 1447.73 384.179C1449.68 377.831 1451.88 366.601 1454.32 350.487C1456.76 334.374 1458.72 317.04 1460.18 298.485C1461.89 279.931 1462.75 262.23 1462.75 245.385C1462.75 186.303 1459.94 144.555 1454.32 120.141C1449.93 97.1914 1440.65 78.8809 1426.49 65.209C1412.33 51.293 1395.85 44.335 1377.05 44.335C1352.88 44.335 1333.72 52.2695 1319.56 68.1387C1305.4 83.7637 1295.26 107.079 1289.16 138.085C1283.3 169.091 1280.37 208.52 1280.37 256.371C1280.37 275.658 1282.33 298.607 1286.23 325.219C1290.38 351.586 1294.65 371.972 1299.05 386.376C1306.13 406.884 1316.5 422.997 1330.18 434.716C1343.85 446.435 1359.47 452.294 1377.05 452.294ZM2030.37 -0.708984C2049.42 -0.708984 2065.77 2.09863 2079.44 7.71387C2093.12 13.085 2103.25 20.8975 2109.84 31.1514C2116.43 41.4053 2119.73 53.7344 2119.73 68.1387C2119.73 84.4961 2113.26 101.342 2100.32 118.676C2087.38 136.01 2070.53 150.17 2049.78 161.156C2029.03 172.143 2007.54 177.636 1985.33 177.636C1968.48 177.636 1955.05 174.95 1945.04 169.579C1935.28 163.964 1930.4 156.396 1930.4 146.874C1930.4 144.188 1936.26 140.038 1947.97 134.423C1961.16 127.099 1971.17 119.774 1978 112.45C1984.84 104.882 1988.26 95.1162 1988.26 83.1533C1988.26 71.1904 1982.52 60.9365 1971.05 52.3916C1959.57 43.8467 1944.56 39.5742 1926 39.5742C1913.31 39.5742 1901.1 44.2129 1889.38 53.4902C1877.91 62.5234 1868.02 75.3408 1859.72 91.9424C1851.42 108.544 1845.8 128.686 1842.87 152.367C1839.45 179.223 1837.75 211.938 1837.75 250.512C1837.75 292.748 1844.7 329.369 1858.62 360.375C1872.78 391.381 1892.31 415.062 1917.21 431.42C1942.36 447.777 1970.8 455.956 2002.54 455.956C2022.07 455.956 2044.53 451.928 2069.92 443.871C2095.56 435.57 2111.55 431.42 2117.9 431.42C2121.31 431.42 2124.24 432.396 2126.69 434.35C2129.37 436.303 2130.71 438.988 2130.71 442.406C2130.71 447.289 2119.97 454.735 2098.49 464.745C2077 474.511 2050.51 483.178 2019.02 490.746C1987.77 498.07 1957.74 501.732 1928.93 501.732C1905.01 501.732 1882.06 499.901 1860.08 496.239C1838.11 492.333 1819.31 486.962 1803.69 480.126C1785.13 471.825 1768.53 461.205 1753.88 448.266C1739.23 435.326 1726.42 420.067 1715.43 402.489C1704.69 384.667 1696.51 365.99 1690.89 346.459C1685.28 326.928 1682.47 306.42 1682.47 284.936C1682.47 261.742 1684.42 239.892 1688.33 219.384C1692.24 198.876 1698.22 175.927 1706.28 150.536C1714.33 124.901 1719.7 107.445 1722.39 98.168C1725.07 88.6465 1726.42 76.9277 1726.42 63.0117C1726.42 54.9551 1723.24 48.2412 1716.9 42.8701C1710.79 36.7666 1707.74 28.9541 1707.74 19.4326C1707.74 16.5029 1709.45 13.5732 1712.87 10.6436C1716.53 7.71387 1720.56 5.39453 1724.95 3.68555C1731.54 2.2207 1740.33 1.48828 1751.32 1.48828C1755.47 1.48828 1763.77 1.85449 1776.22 2.58691C1788.67 3.31934 1796.61 3.68555 1800.03 3.68555C1855.69 3.68555 1909.28 2.95312 1960.79 1.48828C2012.31 0.0234375 2035.5 -0.708984 2030.37 -0.708984ZM2441.99 501C2388.28 501 2342.75 492.089 2305.4 474.267C2268.04 456.2 2239.84 430.565 2220.8 397.362C2201.76 363.915 2192.24 324.73 2192.24 279.809C2192.24 251.732 2194.8 226.708 2199.93 204.735C2205.05 182.763 2212.5 154.931 2222.27 121.239C2232.28 87.3037 2237.28 64.1104 2237.28 51.6592C2237.28 44.335 2234.6 38.3535 2229.22 33.7148C2224.59 30.0527 2222.27 24.3154 2222.27 16.5029C2222.27 12.1084 2224.83 8.44629 2229.96 5.5166C2235.33 2.34277 2242.77 0.755859 2252.3 0.755859C2269.63 0.755859 2289.77 1.24414 2312.72 2.2207C2335.91 2.95312 2358.99 3.80762 2381.93 4.78418C2404.88 5.5166 2424.9 5.88281 2441.99 5.88281C2458.11 5.88281 2476.78 5.5166 2498.02 4.78418C2519.26 3.80762 2540.5 2.95312 2561.74 2.2207C2582.98 1.24414 2601.66 0.755859 2617.77 0.755859C2641.21 0.755859 2652.93 8.20215 2652.93 23.0947C2652.93 28.9541 2650.12 33.959 2644.51 38.1094C2642.55 39.8184 2641.21 42.1377 2640.48 45.0674C2639.75 47.9971 2639.38 52.2695 2639.38 57.8848C2639.38 67.4062 2641.58 80.3457 2645.97 96.7031C2650.61 113.061 2656.23 132.226 2662.82 154.198C2669.65 176.171 2675.03 198.754 2678.93 221.947C2683.08 244.896 2685.16 269.433 2685.16 295.556C2685.16 317.772 2681.5 340.233 2674.17 362.938C2666.85 385.399 2656.96 404.687 2644.51 420.8C2623.76 447.899 2596.41 468.041 2562.48 481.225C2528.79 494.408 2488.62 501 2441.99 501ZM2441.99 452.294C2455.91 452.294 2469.7 446.19 2483.38 433.983C2497.05 421.532 2506.81 404.931 2512.67 384.179C2514.62 377.831 2516.82 366.601 2519.26 350.487C2521.71 334.374 2523.66 317.04 2525.12 298.485C2526.83 279.931 2527.69 262.23 2527.69 245.385C2527.69 186.303 2524.88 144.555 2519.26 120.141C2514.87 97.1914 2505.59 78.8809 2491.43 65.209C2477.27 51.293 2460.79 44.335 2441.99 44.335C2417.82 44.335 2398.66 52.2695 2384.5 68.1387C2370.34 83.7637 2360.21 107.079 2354.1 138.085C2348.24 169.091 2345.31 208.52 2345.31 256.371C2345.31 275.658 2347.27 298.607 2351.17 325.219C2355.32 351.586 2359.6 371.972 2363.99 386.376C2371.07 406.884 2381.45 422.997 2395.12 434.716C2408.79 446.435 2424.42 452.294 2441.99 452.294Z" fill="#003250"/>
</svg>
