<svg width="788" height="122" viewBox="0 0 788 122" fill="none" xmlns="http://www.w3.org/2000/svg">
<path fill-rule="evenodd" clip-rule="evenodd" d="M0 122L82.4316 0L116.186 0.0323734L130.715 122H94.7412L93.8701 110.845L42.4294 110.802L35.2712 122H0ZM59.6157 83.9L91.7551 83.9324L88.248 39.0958L59.6157 83.9Z" fill="#D42D26"/>
<path d="M200.743 0.0215816L241.716 76.4218L262.781 0.0755367L297.7 0.0971193L264.087 121.914H228.037L194.808 59.7174L177.644 121.914H142.715L176.355 0L200.743 0.0215816Z" fill="#D42D26"/>
<path d="M349.692 0.0431643L363.45 45.6459L402.363 0.0863276L441.577 0.118701L371.867 78.0513L359.795 121.806H324.866L336.527 79.5512L309.7 0L349.692 0.0431643Z" fill="#D42D26"/>
<path d="M452.627 0L572.224 0.0971193L564.174 29.2652L521.83 29.2328L496.323 121.676H461.394L486.91 29.2004L444.577 29.1681L452.627 0Z" fill="#D42D26"/>
<path d="M555.224 121.568L588.776 0L623.695 0.0323734L590.159 121.568H555.224Z" fill="#D42D26"/>
<path d="M696.435 69.1703L762.432 0.0971193L787.597 0.118701L754.103 121.514H719.563L734.98 65.6524L698.032 104.058L675.403 104.047L659.853 65.6308L644.429 121.514H609.695L643.235 0L668.4 0.0215816L696.435 69.1703Z" fill="#D42D26"/>
</svg>
